<?xml version="1.0" standalone="no"?>
<!DOCTYPE svg PUBLIC "-//W3C//DTD SVG 1.1//EN" "http://www.w3.org/Graphics/SVG/1.1/DTD/svg11.dtd" >
<svg>
<metadata>
Created by FontForge 20090914 at Mon Feb 22 18:08:09 2021
 By www-data
Copyright 2008 The Bungee Project Authors (david@djr.com)
</metadata>
<defs>
<font id="BungeeOutline-Regular" horiz-adv-x="1000" >
  <font-face 
    font-family="Bungee Outline"
    font-weight="400"
    font-stretch="normal"
    units-per-em="1000"
    panose-1="0 0 0 0 0 0 0 0 0 0"
    ascent="860"
    descent="-140"
    x-height="730"
    cap-height="730"
    bbox="-616.001 -923.997 1952 1644"
    underline-thickness="0"
    underline-position="0"
    unicode-range="U+0020-U+FF3E"
  />
<missing-glyph 
d="M900 724v-728c0 -12.667 -2.83301 -21.834 -8.5 -27.501s-14.834 -8.5 -27.501 -8.5h-728c-12.667 0 -21.834 2.83301 -27.501 8.5s-8.5 14.834 -8.5 27.501v728c0 12.667 2.83301 21.834 8.5 27.501s14.834 8.5 27.501 8.5h728c12.667 0 21.834 -2.83301 27.501 -8.5
s8.5 -14.834 8.5 -27.501zM136 -30h728c8.66699 0 15.167 2.16699 19.5 6.5s6.5 10.833 6.5 19.5v728c0 8.66699 -2.16699 15.167 -6.5 19.5s-10.833 6.5 -19.5 6.5h-728c-8.66699 0 -15.167 -2.16699 -19.5 -6.5s-6.5 -10.833 -6.5 -19.5v-728
c0 -8.66699 2.16699 -15.167 6.5 -19.5s10.833 -6.5 19.5 -6.5zM120 -20v760h760v-760h-760zM870 -10v740h-740v-740h740zM140 720h720v-720h-720v720zM150 10h700v700h-700v-700z" />
    <glyph glyph-name="I_I.salt_v" unicode="&#xe201;&#xe201;" 
d="M391 730c16 0 27.667 -3.66699 35 -11s11 -19 11 -35v-648c0 -16 -3.66699 -27.667 -11 -35s-19 -11 -35 -11h-155c-16 0 -27.667 3.66699 -35 11s-11 19 -11 35v648c0 16 3.66699 27.667 11 35s19 11 35 11h155zM609 -10c-16 0 -27.667 3.66699 -35 11s-11 19 -11 35
v648c0 16 3.66699 27.667 11 35s19 11 35 11h155c16 0 27.667 -3.66699 35 -11s11 -19 11 -35v-648c0 -16 -3.66699 -27.667 -11 -35s-19 -11 -35 -11h-155zM427 684c0 12.667 -2.83301 21.834 -8.5 27.501s-14.834 8.5 -27.501 8.5h-155
c-12.667 0 -21.834 -2.83301 -27.501 -8.5s-8.5 -14.834 -8.5 -27.501v-648c0 -12.667 2.83301 -21.834 8.5 -27.501s14.834 -8.5 27.501 -8.5h155c12.667 0 21.834 2.83301 27.501 8.5s8.5 14.834 8.5 27.501v648zM573 36c0 -12.667 2.83301 -21.834 8.5 -27.501
s14.834 -8.5 27.501 -8.5h155c12.667 0 21.834 2.83301 27.501 8.5s8.5 14.834 8.5 27.501v648c0 12.667 -2.83301 21.834 -8.5 27.501s-14.834 8.5 -27.501 8.5h-155c-12.667 0 -21.834 -2.83301 -27.501 -8.5s-8.5 -14.834 -8.5 -27.501v-648zM309 630h10v-540h-10v540z
M681 630h10v-540h-10v540z" />
    <glyph glyph-name=".notdef" 
d="M900 724v-728c0 -12.667 -2.83301 -21.834 -8.5 -27.501s-14.834 -8.5 -27.501 -8.5h-728c-12.667 0 -21.834 2.83301 -27.501 8.5s-8.5 14.834 -8.5 27.501v728c0 12.667 2.83301 21.834 8.5 27.501s14.834 8.5 27.501 8.5h728c12.667 0 21.834 -2.83301 27.501 -8.5
s8.5 -14.834 8.5 -27.501zM136 -30h728c8.66699 0 15.167 2.16699 19.5 6.5s6.5 10.833 6.5 19.5v728c0 8.66699 -2.16699 15.167 -6.5 19.5s-10.833 6.5 -19.5 6.5h-728c-8.66699 0 -15.167 -2.16699 -19.5 -6.5s-6.5 -10.833 -6.5 -19.5v-728
c0 -8.66699 2.16699 -15.167 6.5 -19.5s10.833 -6.5 19.5 -6.5zM120 -20v760h760v-760h-760zM870 -10v740h-740v-740h740zM140 720h720v-720h-720v720zM150 10h700v700h-700v-700z" />
    <glyph glyph-name="space" unicode=" " horiz-adv-x="225" 
 />
    <glyph glyph-name="exclam" unicode="!" horiz-adv-x="424" 
d="M338 298c-0.666992 -16 -4.83301 -27.667 -12.5 -35s-19.5 -11 -35.5 -11h-155c-16 0 -27.667 3.66699 -35 11s-11.333 19 -12 35l-15 386c-0.666992 16 2.5 27.667 9.5 35s18.5 11 34.5 11h191c16 0 27.5 -3.66699 34.5 -11s10.167 -19 9.5 -35zM290.001 262
c12.667 0 21.9961 2.83301 27.9961 8.5s9.33301 14.834 10 27.501l14 386c0.666992 12.667 -1.66602 21.834 -6.99902 27.501s-14.333 8.5 -27 8.5h-191c-12.667 0 -21.667 -2.83301 -27 -8.5s-7.66602 -14.834 -6.99902 -27.501l15 -386
c0.666992 -12.667 3.83398 -21.834 9.50098 -27.501s14.834 -8.5 27.501 -8.5h155zM207.997 630h10v-278h-10v278zM350.997 36c0 -16 -3.66699 -27.667 -11 -35s-19 -11 -35 -11h-184c-16 0 -27.667 3.66699 -35 11s-11 19 -11 35v131c0 16.667 3.66699 28.5 11 35.5
s19 10.5 35 10.5h184c16 0 27.667 -3.5 35 -10.5s11 -18.833 11 -35.5v-131zM304.997 0c12.667 0 21.834 2.83301 27.501 8.5s8.5 14.834 8.5 27.501v131c0 12.667 -2.83301 21.834 -8.5 27.501s-14.834 8.5 -27.501 8.5h-184c-12.667 0 -21.834 -2.83301 -27.501 -8.5
s-8.5 -14.834 -8.5 -27.501v-131c0 -12.667 2.83301 -21.834 8.5 -27.501s14.834 -8.5 27.501 -8.5h184zM217.997 80h-10v43h10v-43z" />
    <glyph glyph-name="quotedbl" unicode="&#x22;" horiz-adv-x="646" 
d="M293 385c-0.666992 -21.333 -4.16895 -34.999 -10.502 -40.999s-20.166 -9 -41.499 -9h-144c-21.333 0 -35.166 3 -41.499 9s-9.83301 20 -10.5 42l-8 293c-0.666992 21.333 2 35.166 8 41.499s20 9.5 42 9.5h165c21.333 0 35 -3 41 -9s8.66699 -20 8 -42z
M602.998 385.001c-0.666992 -21.333 -4.16895 -34.999 -10.502 -40.999s-20.166 -9 -41.499 -9h-144c-21.333 0 -35.166 3 -41.499 9s-9.83301 20 -10.5 42l-8 293c-0.666992 21.333 2 35.166 8 41.499s20 9.5 42 9.5h165c21.333 0 35 -3 41 -9s8.66699 -20 8 -42z
M240.996 345.002c17.333 0 28.5 2.5 33.5 7.5s7.83301 16.167 8.5 33.5l8 293c0.666992 17.333 -1.5 28.5 -6.5 33.5s-15.833 7.5 -32.5 7.5h-165c-17.333 0 -28.5 -2.5 -33.5 -7.5s-7.16699 -16.167 -6.5 -33.5l8 -293c0.666992 -17.333 3.5 -28.5 8.5 -33.5
s16.167 -7.5 33.5 -7.5h144zM550.996 345.002c17.333 0 28.5 2.5 33.5 7.5s7.83301 16.167 8.5 33.5l8 293c0.666992 17.333 -1.5 28.5 -6.5 33.5s-15.833 7.5 -32.5 7.5h-165c-17.333 0 -28.5 -2.5 -33.5 -7.5s-7.16699 -16.167 -6.5 -33.5l8 -293
c0.666992 -17.333 3.5 -28.5 8.5 -33.5s16.167 -7.5 33.5 -7.5h144zM473.996 630.002h10v-195h-10v195zM163.996 630.002h10v-195h-10v195z" />
    <glyph glyph-name="numbersign" unicode="#" horiz-adv-x="750" 
d="M534 495h-279l-38 -265h279zM439 411l-14 -97h-113l14 97h113zM416 324l11 77h-92l-12 -77h93zM187 90l19 130h-81v10h82l38 265h-84v10h85l18 125h10l-18 -125h279l18 125h10l-18 -125h80v-10h-81l-38 -265h83v-10h-84l-19 -130h-10l19 130h-279l-19 -130h-10zM272 36
l14 99h113l-14 -99c-1.33301 -12.667 1.16699 -21.834 7.5 -27.501s15.833 -8.5 28.5 -8.5h105c12.667 0 21.5 2.83301 26.5 8.5s8.16699 14.834 9.5 27.501l14 99h67c12.667 0 21.834 2.83301 27.501 8.5s8.5 14.834 8.5 27.501v107c0 12.667 -2.83301 21.834 -8.5 27.501
s-14.834 8.5 -27.501 8.5h-41l14 97h63c12.667 0 21.834 2.83301 27.501 8.5s8.5 14.834 8.5 27.501v107c0 12.667 -2.83301 21.834 -8.5 27.501s-14.834 8.5 -27.501 8.5h-37l13 94c1.33301 12.667 -1.16699 21.834 -7.5 27.501s-15.833 8.5 -28.5 8.5h-105
c-12.667 0 -21.5 -2.83301 -26.5 -8.5s-8.16699 -14.834 -9.5 -27.501l-13 -94h-113l13 94c1.33301 12.667 -1.16699 21.834 -7.5 27.501s-15.833 8.5 -28.5 8.5h-105c-12.667 0 -21.5 -2.83301 -26.5 -8.5s-8.16699 -14.834 -9.5 -27.501l-13 -94h-68
c-12.667 0 -21.834 -2.83301 -27.501 -8.5s-8.5 -14.834 -8.5 -27.501v-107c0 -12.667 2.83301 -21.834 8.5 -27.501s14.834 -8.5 27.501 -8.5h42l-14 -97h-64c-12.667 0 -21.834 -2.83301 -27.501 -8.5s-8.5 -14.834 -8.5 -27.501v-107
c0 -12.667 2.83301 -21.834 8.5 -27.501s14.834 -8.5 27.501 -8.5h38l-14 -99c-1.33301 -12.667 1.16699 -21.834 7.5 -27.501s15.833 -8.5 28.5 -8.5h105c12.667 0 21.5 2.83301 26.5 8.5s8.16699 14.834 9.5 27.501zM131 -10c-16.667 0 -29 3.83301 -37 11.5
s-11 19.5 -9 35.5l13 88h-27c-16 0 -27.667 3.5 -35 10.5s-11 18.833 -11 35.5v107c0 16 3.66699 27.667 11 35s19 11 35 11h55l11 77h-30c-16 0 -27.667 3.5 -35 10.5s-11 18.833 -11 35.5v107c0 16 3.66699 27.667 11 35s19 11 35 11h59l12 85c2 16 6.33301 27.5 13 34.5
s17.667 10.5 33 10.5h105c16.667 0 29 -3.83301 37 -11.5s11 -19.5 9 -35.5l-12 -83h93l12 85c2 16 6.33301 27.5 13 34.5s17.667 10.5 33 10.5h105c16.667 0 29 -3.83301 37 -11.5s11 -19.5 9 -35.5l-12 -83h26c16 0 27.667 -3.5 35 -10.5s11 -18.833 11 -35.5v-107
c0 -16.667 -3.66699 -28.5 -11 -35.5s-19 -10.5 -35 -10.5h-54l-12 -77h30c16 0 27.667 -3.5 35 -10.5s11 -18.833 11 -35.5v-107c0 -16.667 -3.66699 -28.5 -11 -35.5s-19 -10.5 -35 -10.5h-58l-13 -90c-2 -16 -6.33301 -27.5 -13 -34.5s-17.667 -10.5 -33 -10.5h-105
c-16.667 0 -29 3.83301 -37 11.5s-11 19.5 -9 35.5l13 88h-93l-13 -90c-2 -16 -6.33301 -27.5 -13 -34.5s-17.667 -10.5 -33 -10.5h-105z" />
    <glyph glyph-name="dollar" unicode="$" horiz-adv-x="650" 
d="M405 -100l-145 0.00195312c-16 0 -27.667 3.66699 -35 11s-11 19 -11 35v44h-127c-16 0 -27.667 3.66699 -35 11s-11 19 -11 35v117c0 16 3.66699 27.667 11 35s19 11 35 11h269c5.33301 0 9.33301 2 12 6s4 8.33301 4 13c0 7.33301 -1.33301 13 -4 17s-7 6.33301 -13 7
l-150 21c-50 7.33301 -89.833 23.833 -119.5 49.5s-44.5 67.834 -44.5 126.501v105c0 53.333 15.167 95.666 45.5 126.999s72.833 50.333 127.5 57v46c0 16 3.66699 27.667 11 35s19 11 35 11h145c16 0 27.667 -3.66699 35 -11s11 -19 11 -35v-44h87
c16 0 27.667 -3.66699 35 -11s11 -19 11 -35v-119c0 -16 -3.66699 -27.667 -11 -35s-19 -11 -35 -11h-233c-5.33301 0 -9.5 -2 -12.5 -6s-4.5 -8.66699 -4.5 -14c0 -6 1.5 -11 4.5 -15s7.5 -6.33301 13.5 -7l149 -20c50 -7.33301 90 -23.833 120 -49.5
s45 -67.834 45 -126.501v-105c0 -52 -14.833 -93.833 -44.5 -125.5s-71.167 -50.834 -124.5 -57.501v-47c0 -16 -3.66699 -27.667 -11 -35s-19 -11 -35 -11zM441 2.00195c1.33301 0 3.00098 0.164062 5.00098 0.49707s3.66699 0.5 5 0.5c50 6.66699 89 24.834 117 54.501
s42 69.167 42 118.5v105c0 56 -14.333 96 -43 120s-66.334 39.333 -113.001 46l-149 20c-8.66699 0.666992 -15.334 4 -20.001 10s-7 13.333 -7 22s2.33301 15.834 7 21.501s11.334 8.5 20.001 8.5h233c12.667 0 21.834 2.83301 27.501 8.5s8.5 14.834 8.5 27.501v119
c0 12.667 -2.83301 21.834 -8.5 27.501s-14.834 8.5 -27.501 8.5h-97v54c0 12.667 -2.83301 21.834 -8.5 27.501s-14.834 8.5 -27.501 8.5h-145c-12.667 0 -21.834 -2.83301 -27.501 -8.5s-8.5 -14.834 -8.5 -27.501v-55c-54 -4.66699 -96.333 -22 -127 -52
s-46 -71 -46 -123v-105c0 -56 14.167 -96 42.5 -120s65.833 -39.333 112.5 -46l150 -21c8.66699 -0.666992 15.167 -3.66699 19.5 -9s6.5 -13.666 6.5 -24.999c0 -8 -2.16699 -14.833 -6.5 -20.5s-10.833 -8.5 -19.5 -8.5h-269c-12.667 0 -21.834 -2.83301 -27.501 -8.5
s-8.5 -14.834 -8.5 -27.501v-117c0 -12.667 2.83301 -21.834 8.5 -27.501s14.834 -8.5 27.501 -8.5h137v-54c0 -12.667 2.83301 -21.834 8.5 -27.501s14.834 -8.5 27.501 -8.5h145c12.667 0 21.834 2.83301 27.501 8.5s8.5 14.834 8.5 27.501v56zM338.001 -0.000976562h-10
v90h-187v10h249c30.667 0 55.167 8.5 73.5 25.5s27.5 38.833 27.5 65.5v58c0 31.333 -5.5 52.833 -16.5 64.5s-25.833 19.5 -44.5 23.5l-211 43c-17.333 3.33301 -31.5 10.166 -42.5 20.499s-16.5 29.166 -16.5 56.499v82c0 26.667 9.33301 48.5 28 65.5
s43.334 25.5 74.001 25.5h66v90h10v-90h146v-10h-222c-28 0 -50.333 -7.66699 -67 -23s-25 -34.666 -25 -57.999v-82c0 -23.333 4.66699 -39.666 14 -48.999s21.666 -15.333 36.999 -18l211 -43c20 -4 36.5 -12.667 49.5 -26s19.5 -37.333 19.5 -72v-58
c0 -29.333 -10 -53.5 -30 -72.5s-47 -28.5 -81 -28.5h-52v-90z" />
    <glyph glyph-name="percent" unicode="%" horiz-adv-x="1031" 
d="M408 606v-190c0 -18.667 -2.5 -36 -7.5 -52s-14.333 -29.667 -28 -41s-32.667 -20.166 -57 -26.499s-55.833 -9.5 -94.5 -9.5s-70.334 3.16699 -95.001 9.5s-43.834 15.166 -57.501 26.499s-23.167 25 -28.5 41s-8 33.333 -8 52v190c0 18.667 2.66699 36 8 52
s14.833 29.667 28.5 41s32.834 20.166 57.501 26.499s56.334 9.5 95.001 9.5s70.167 -3.16699 94.5 -9.5s43.333 -15.166 57 -26.499s23 -25 28 -41s7.5 -33.333 7.5 -52zM383 -10c-16.667 0 -28.667 4.16699 -36 12.5s-9 20.166 -5 35.499l160 648
c4 14.667 9.83301 25.667 17.5 33s18.834 11 33.501 11h105c16.667 0 28.667 -4.16699 36 -12.5s9 -20.166 5 -35.499l-160 -648c-4 -14.667 -9.83301 -25.667 -17.5 -33s-18.834 -11 -33.501 -11h-105zM398 416v190c0 17.333 -2.5 33.5 -7.5 48.5s-14.167 27.667 -27.5 38
s-31.5 18.333 -54.5 24s-52.167 8.5 -87.5 8.5c-71.333 0 -119 -11 -143 -33s-36 -50.667 -36 -86v-190c0 -35.333 12 -64 36 -86s71.667 -33 143 -33c35.333 0 64.5 2.83301 87.5 8.5s41.167 13.667 54.5 24s22.5 23 27.5 38s7.5 31.167 7.5 48.5zM352 36
c-2.66699 -12 -1.33398 -21 3.99902 -27s14.333 -9 27 -9h105c12.667 0 22 3 28 9s10.333 15 13 27l160 648c2.66699 12 1.33398 21 -3.99902 27s-14.333 9 -27 9h-105c-12.667 0 -22 -3 -28 -9s-10.333 -15 -13 -27zM331 583v-146c0 -28.667 -8.5 -49 -25.5 -61
s-45.167 -18 -84.5 -18c-38.667 0 -66.834 6 -84.501 18s-26.5 32.333 -26.5 61v146c0 28.667 8.83301 49.167 26.5 61.5s45.834 18.5 84.501 18.5c39.333 0 67.5 -6.16699 84.5 -18.5s25.5 -32.833 25.5 -61.5zM221 368c34 0 59.167 5 75.5 15s24.5 28 24.5 54v146
c0 26 -8.16699 44.167 -24.5 54.5s-41.5 15.5 -75.5 15.5s-59.333 -5.16699 -76 -15.5s-25 -28.5 -25 -54.5v-146c0 -26 8.33301 -44 25 -54s42 -15 76 -15zM459 90h-10l133 540h10zM187 447v128c0 4 2 7.83301 6 11.5s13.333 5.5 28 5.5c14 0 23 -1.83301 27 -5.5
s6 -7.5 6 -11.5v-128c0 -4.66699 -2 -8.83398 -6 -12.501s-13 -5.5 -27 -5.5c-14.667 0 -24 1.83301 -28 5.5s-6 7.83398 -6 12.501zM197 575l-0.000976562 -128c0 -3.33301 2.33301 -5.5 7 -6.5s10.334 -1.5 17.001 -1.5c6 0 11.333 0.5 16 1.5s7 3.16699 7 6.5v128
c0 2.66699 -2.33301 4.5 -7 5.5s-10 1.5 -16 1.5s-11.5 -0.5 -16.5 -1.5s-7.5 -2.83301 -7.5 -5.5zM1006 303v-190c0 -18.667 -2.5 -36 -7.5 -52s-14.333 -29.667 -28 -41s-32.667 -20.166 -57 -26.499s-55.833 -9.5 -94.5 -9.5s-70.334 3.16699 -95.001 9.5
s-43.834 15.166 -57.501 26.499s-23.167 25 -28.5 41s-8 33.333 -8 52v190c0 18.667 2.66699 36 8 52s14.833 29.667 28.5 41s32.834 20.166 57.501 26.499s56.334 9.5 95.001 9.5s70.167 -3.16699 94.5 -9.5s43.333 -15.166 57 -26.499s23 -25 28 -41s7.5 -33.333 7.5 -52z
M995.999 113v190c0 17.333 -2.5 33.5 -7.5 48.5s-14.167 27.667 -27.5 38s-31.5 18.333 -54.5 24s-52.167 8.5 -87.5 8.5c-71.333 0 -119 -11 -143 -33s-36 -50.667 -36 -86v-190c0 -35.333 12 -64 36 -86s71.667 -33 143 -33c35.333 0 64.5 2.83301 87.5 8.5
s41.167 13.667 54.5 24s22.5 23 27.5 38s7.5 31.167 7.5 48.5zM930.999 280v-146c0 -28.667 -8.5 -49 -25.5 -61s-45.167 -18 -84.5 -18c-38.667 0 -66.834 6 -84.501 18s-26.5 32.333 -26.5 61v146c0 28.667 8.83301 49.167 26.5 61.5s45.834 18.5 84.501 18.5
c39.333 0 67.5 -6.16699 84.5 -18.5s25.5 -32.833 25.5 -61.5zM820.999 65c34 0 59.167 5 75.5 15s24.5 28 24.5 54v146c0 26 -8.16699 44.167 -24.5 54.5s-41.5 15.5 -75.5 15.5s-59.333 -5.16699 -76 -15.5s-25 -28.5 -25 -54.5v-146c0 -26 8.33301 -44 25 -54
s42 -15 76 -15zM784.999 144v128c0 4 2 7.83301 6 11.5s13.333 5.5 28 5.5c14 0 23 -1.83301 27 -5.5s6 -7.5 6 -11.5v-128c0 -4.66699 -2 -8.83398 -6 -12.501s-13 -5.5 -27 -5.5c-14.667 0 -24 1.83301 -28 5.5s-6 7.83398 -6 12.501zM794.999 272l-0.000976562 -128
c0 -3.33301 2.33301 -5.5 7 -6.5s10.334 -1.5 17.001 -1.5c6 0 11.333 0.5 16 1.5s7 3.16699 7 6.5v128c0 2.66699 -2.33301 4.5 -7 5.5s-10 1.5 -16 1.5s-11.5 -0.5 -16.5 -1.5s-7.5 -2.83301 -7.5 -5.5z" />
    <glyph glyph-name="ampersand" unicode="&#x26;" horiz-adv-x="766" 
d="M226 -10c-64.667 0 -114.001 17.001 -148.001 51.001s-51 79 -51 135v80c0 44 10.167 79.5 30.5 106.5s45.833 44.833 76.5 53.5c-14.667 11.333 -25 25.666 -31 42.999s-9 37.333 -9 60v48c0 46 15.667 84.667 47 116s83 47 155 47h211c16 0 27.667 -3.66699 35 -11
s11 -19 11 -35v-115c0 -16 -3.66699 -27.667 -11 -35s-19 -11 -35 -11h-146c-10.667 0 -18 -1.83301 -22 -5.5s-6 -8.5 -6 -14.5v-21c0 -6 2 -10.833 6 -14.5s11.333 -5.5 22 -5.5h15c16 0 27.667 -3.66699 35 -11s11 -19 11 -35v-103c0 -16 -3.66699 -27.667 -11 -35
s-19 -11 -35 -11h-80c-10.667 0 -18 -1.66699 -22 -5s-6 -8 -6 -14v-31c0 -6 2 -10.833 6 -14.5s11.333 -5.5 22 -5.5h142c10.667 0 18 2.5 22 7.5s6 12.5 6 22.5v138c0 16 3.66699 27.667 11 35s19 11 35 11h194c16 0 27.667 -3.5 35 -10.5s11 -18.833 11 -35.5v-108
c0 -16 -3.66699 -27.667 -11 -35s-19 -11 -35 -11h-13v-35c0 -56 -16.167 -101 -48.5 -135s-79.166 -51 -140.499 -51h-278zM295.999 187.001c-16 0 -26.332 2.99609 -30.999 8.99609s-7 13 -7 21v31c0 8 2.33301 14.833 7 20.5s15 8.5 31 8.5h80
c12.667 0 21.834 2.83301 27.501 8.5s8.5 14.834 8.5 27.501v103c0 12.667 -2.83301 21.834 -8.5 27.501s-14.834 8.5 -27.501 8.5h-15c-16 0 -26.333 3 -31 9s-7 13 -7 21v21c0 8 2.33301 15 7 21s15 9 31 9h146c12.667 0 21.834 2.83301 27.501 8.5s8.5 14.834 8.5 27.501
v115c0 12.667 -2.83301 21.834 -8.5 27.501s-14.834 8.5 -27.501 8.5h-211c-67.333 0 -116.166 -14.5 -146.499 -43.5s-45.5 -65.5 -45.5 -109.5v-48c0 -25.333 4.33301 -47.333 13 -66s24 -32.667 46 -42c-36 -3.33301 -66 -18.333 -90 -45s-36 -63.334 -36 -110.001v-80
c0 -53.333 16.167 -96 48.5 -128s79.166 -48 140.499 -48h278c58 0 102.333 16 133 48s46 74.667 46 128v45h23c12.667 0 21.834 2.83301 27.501 8.5s8.5 14.834 8.5 27.501v108c0 12.667 -2.83301 21.834 -8.5 27.501s-14.834 8.5 -27.501 8.5h-194
c-12.667 0 -21.834 -2.83301 -27.501 -8.5s-8.5 -14.834 -8.5 -27.501v-138c0 -13.333 -2.66699 -23.333 -8 -30s-15.333 -10 -30 -10h-142zM250 89.9971c-39.333 0 -68.6689 8.83105 -88.002 26.498s-29 44.834 -29 81.501v61c0 32.667 10 59.667 30 81s50.667 32 92 32h7
c-17.333 6.66699 -30.333 18 -39 34s-13 37 -13 63v56c0 36.667 9.66699 63.334 29 80.001s49 25 89 25h125v-10h-125c-37.333 0 -64.666 -7.66699 -81.999 -23s-26 -40 -26 -74v-54c0 -32.667 7.5 -56.834 22.5 -72.501s38.167 -23.5 69.5 -23.5h10v-10h-67
c-38 0 -66.167 -9.83301 -84.5 -29.5s-27.5 -44.5 -27.5 -74.5v-61c0 -34 9 -58.833 27 -74.5s46.667 -23.5 86 -23.5h235c26.667 0 47.167 6.83301 61.5 20.5s21.5 33.834 21.5 60.501v135h75v-10h-65v-125c0 -30.667 -8.16699 -53.5 -24.5 -68.5
s-39.166 -22.5 -68.499 -22.5h-241z" />
    <glyph glyph-name="quotesingle" unicode="'" horiz-adv-x="356" 
d="M303 385c-0.666992 -21.333 -4.16895 -34.999 -10.502 -40.999s-20.166 -9 -41.499 -9h-144c-21.333 0 -35.166 3 -41.499 9s-9.83301 20 -10.5 42l-8 293c-0.666992 21.333 2 35.166 8 41.499s20 9.5 42 9.5h165c21.333 0 35 -3 41 -9s8.66699 -20 8 -42z
M250.998 345.001c17.333 0 28.5 2.5 33.5 7.5s7.83301 16.167 8.5 33.5l8 293c0.666992 17.333 -1.5 28.5 -6.5 33.5s-15.833 7.5 -32.5 7.5h-165c-17.333 0 -28.5 -2.5 -33.5 -7.5s-7.16699 -16.167 -6.5 -33.5l8 -293c0.666992 -17.333 3.5 -28.5 8.5 -33.5
s16.167 -7.5 33.5 -7.5h144zM173.998 630.001h10v-195h-10v195z" />
    <glyph glyph-name="parenleft" unicode="(" horiz-adv-x="429" 
d="M394 -44c0 -16 -3.66699 -27.6689 -11 -35.002s-19 -11 -35 -11h-54c-49.333 0 -90.5 5.33301 -123.5 16s-59.333 25.334 -79 44.001s-33.5 41.167 -41.5 67.5s-12 55.166 -12 86.499v471c0 31.333 4 60.333 12 87s21.833 49.334 41.5 68.001s46 33.334 79 44.001
s74.167 16 123.5 16h54c16 0 27.667 -3.66699 35 -11s11 -19 11 -35v-121c0 -16 -3.66699 -27.667 -11 -35s-19 -11 -35 -11h-31c-12.667 0 -21 -3.5 -25 -10.5s-6 -16.833 -6 -29.5v-396c0 -12.667 2 -22.5 6 -29.5s12.333 -10.5 25 -10.5h31c16 0 27.667 -3.66699 35 -11
s11 -19 11 -35v-119zM348 -80.002c12.667 0 21.834 2.8291 27.501 8.49609s8.5 14.834 8.5 27.501v119c0 12.667 -2.83301 21.834 -8.5 27.501s-14.834 8.5 -27.501 8.5h-31c-16 0 -26.833 4 -32.5 12s-8.5 20.667 -8.5 38v396c0 17.333 2.83301 30 8.5 38s16.5 12 32.5 12
h31c12.667 0 21.834 2.83301 27.501 8.5s8.5 14.834 8.5 27.501v121c0 12.667 -2.83301 21.834 -8.5 27.501s-14.834 8.5 -27.501 8.5h-54c-94 0 -158.5 -19 -193.5 -57s-52.5 -87.333 -52.5 -148v-471c0 -60 17.5 -109 52.5 -147s99.5 -57 193.5 -57h54zM294 20.9941v-10
c-43.333 0 -77 7.83301 -101 23.5s-36 45.5 -36 89.5v471c0 44 11.833 73.833 35.5 89.5s57.5 23.5 101.5 23.5v-10c-40 0 -71.167 -7 -93.5 -21s-33.5 -41.333 -33.5 -82v-471c0 -40.667 11.333 -68 34 -82s53.667 -21 93 -21z" />
    <glyph glyph-name="parenright" unicode=")" horiz-adv-x="429" 
d="M391 124c0 -31.333 -4 -60.1641 -12 -86.4971s-21.833 -48.833 -41.5 -67.5s-46 -33.334 -79 -44.001s-74.167 -16 -123.5 -16h-54c-16 0 -27.667 3.66699 -35 11s-11 19 -11 35v119c0 16 3.66699 27.667 11 35s19 11 35 11h31c12.667 0 21 3.5 25 10.5s6 16.833 6 29.5
v396c0 12.667 -2 22.5 -6 29.5s-12.333 10.5 -25 10.5h-31c-16 0 -27.667 3.66699 -35 11s-11 19 -11 35v121c0 16 3.66699 27.667 11 35s19 11 35 11h54c49.333 0 90.5 -5.33301 123.5 -16s59.333 -25.334 79 -44.001s33.5 -41.334 41.5 -68.001s12 -55.667 12 -87v-471z
M135 -79.998c94 0 158.5 19.0039 193.5 57.0039s52.5 87 52.5 147v471c0 60.667 -17.5 110 -52.5 148s-99.5 57 -193.5 57h-54c-12.667 0 -21.834 -2.83301 -27.501 -8.5s-8.5 -14.834 -8.5 -27.501v-121c0 -12.667 2.83301 -21.834 8.5 -27.501s14.834 -8.5 27.501 -8.5h31
c16 0 26.833 -4 32.5 -12s8.5 -20.667 8.5 -38v-396c0 -17.333 -2.83301 -30 -8.5 -38s-16.5 -12 -32.5 -12h-31c-12.667 0 -21.834 -2.83301 -27.501 -8.5s-8.5 -14.834 -8.5 -27.501v-119c0 -12.667 2.83301 -21.834 8.5 -27.501s14.834 -8.5 27.501 -8.5h54zM272 124.006
c0 -44 -12 -73.833 -36 -89.5s-57.667 -23.5 -101 -23.5v10c39.333 0 70.333 7 93 21s34 41.333 34 82v471c0 40.667 -11.167 68 -33.5 82s-53.5 21 -93.5 21v10c44 0 77.833 -7.83301 101.5 -23.5s35.5 -45.5 35.5 -89.5v-471z" />
    <glyph glyph-name="asterisk" unicode="*" horiz-adv-x="718" 
d="M493 145c-18.667 -12.667 -31.666 -17.8359 -38.999 -15.5029s-16.333 12.5 -27 30.5l-65 124l-64 -124c-10.667 -17.333 -20 -27.333 -28 -30s-21.333 2.33301 -40 15l-94 68c-18 12.667 -27.333 23.334 -28 32.001s6.33301 21 21 37l96 101l-134 22
c-21.333 4 -34.333 9.66699 -39 17s-3.66699 21.333 3 42l36 111c6.66699 20.667 14.167 32.834 22.5 36.501s21.833 0.833984 40.5 -8.49902l125 -56l-20 131c-2.66699 21.333 -1.16699 35.333 4.5 42s19.5 10 41.5 10h117c22 0 35.833 -3.33301 41.5 -10
s6.5 -20.667 2.5 -42l-18 -131l121 56c18.667 9.33301 32 12.333 40 9s15.333 -15.666 22 -36.999l37 -111c7.33301 -20.667 8.66602 -34.667 3.99902 -42s-17.667 -13 -39 -17l-135 -22l97 -101c14.667 -16 21.667 -28.333 21 -37s-10 -19.334 -28 -32.001z
M289.001 164.998l72.9941 141l74 -141c8 -14 15 -21.833 21 -23.5s16.333 2.16602 31 11.499l94 68c14 10 21.333 18.333 22 25s-4.66602 16.334 -15.999 29.001l-110 115l153 25c16.667 2.66699 26.834 6.83398 30.501 12.501s2.83398 16.834 -2.49902 33.501l-37 111
c-5.33301 16.667 -11.166 26.334 -17.499 29.001s-16.833 0.333984 -31.5 -6.99902l-137 -64l20 149c2.66699 16.667 1.83398 27.667 -2.49902 33s-14.833 8 -31.5 8h-117c-16.667 0 -27.5 -2.66699 -32.5 -8s-6.16699 -16.333 -3.5 -33l23 -149l-142 64
c-14.667 7.33301 -25.334 9.66602 -32.001 6.99902s-12.334 -12.334 -17.001 -29.001l-36 -111c-5.33301 -16.667 -6.16602 -27.834 -2.49902 -33.501s13.834 -9.83398 30.501 -12.501l152 -25l-109 -115c-11.333 -12.667 -16.666 -22.334 -15.999 -29.001s8 -15 22 -25
l94 -68c14.667 -9.33301 25.167 -13.166 31.5 -11.499s13.5 9.5 21.5 23.5zM472.995 267.998l-109 155l-109 -155l-8 6l106 152l-172 56l4 10l174 -57v195h10v-195l174 57l4 -10l-172 -56l106 -152z" />
    <glyph glyph-name="plus" unicode="+" horiz-adv-x="734" 
d="M305 53c-16.667 0 -28.5 3.66699 -35.5 11s-10.5 19 -10.5 35v158h-153c-16 0 -27.667 3.5 -35 10.5s-11 18.833 -11 35.5v114c0 16 3.66699 27.667 11 35s19 11 35 11h153v158c0 16 3.5 27.667 10.5 35s18.833 11 35.5 11h124c16 0 27.667 -3.66699 35 -11
s11 -19 11 -35v-158h153c16 0 27.667 -3.5 35 -10.5s11 -18.833 11 -35.5v-114c0 -16.667 -3.66699 -28.5 -11 -35.5s-19 -10.5 -35 -10.5h-153v-158c0 -16 -3.5 -27.667 -10.5 -35s-18.833 -11 -35.5 -11h-124zM465 99v168h163c12.667 0 21.834 2.83301 27.501 8.5
s8.5 14.834 8.5 27.501v114c0 12.667 -2.83301 21.834 -8.5 27.501s-14.834 8.5 -27.501 8.5h-163v168c0 12.667 -2.83301 21.834 -8.5 27.501s-14.834 8.5 -27.501 8.5h-124c-12.667 0 -21.834 -2.83301 -27.501 -8.5s-8.5 -14.834 -8.5 -27.501v-168h-163
c-12.667 0 -21.834 -2.83301 -27.501 -8.5s-8.5 -14.834 -8.5 -27.501v-114c0 -12.667 2.83301 -21.834 8.5 -27.501s14.834 -8.5 27.501 -8.5h163v-168c0 -12.667 2.83301 -21.834 8.5 -27.501s14.834 -8.5 27.501 -8.5h124c12.667 0 21.834 2.83301 27.501 8.5
s8.5 14.834 8.5 27.501zM362 153v202h-202v10h202v202h10v-202h202v-10h-202v-202h-10z" />
    <glyph glyph-name="comma" unicode="," horiz-adv-x="384" 
d="M104 -110c-16 0 -27.667 3.50098 -35 10.501s-11 18.833 -11 35.5v40c0 16 3.66699 27.667 11 35s19 11 35 11h69c6 0 10.333 1.66699 13 5s4 7.66602 4 12.999v5h-99c-16 0 -27.667 3.66699 -35 11s-11 19 -11 35v148c0 16 3.66699 27.667 11 35s19 11 35 11h202
c16 0 27.667 -3.66699 35 -11s11 -19 11 -35v-188c0 -54 -14.333 -94.333 -43 -121s-67 -40 -115 -40h-77zM181 -99.999c44.667 0 80.502 12.5029 107.502 37.5029s40.5 62.833 40.5 113.5v188c0 12.667 -2.83301 21.834 -8.5 27.501s-14.834 8.5 -27.501 8.5h-202
c-12.667 0 -21.834 -2.83301 -27.501 -8.5s-8.5 -14.834 -8.5 -27.501v-148c0 -12.667 2.83301 -21.834 8.5 -27.501s14.834 -8.5 27.501 -8.5h109v-15c0 -8.66699 -2.33301 -15.5 -7 -20.5s-11.334 -7.5 -20.001 -7.5h-69c-12.667 0 -21.834 -2.83301 -27.501 -8.5
s-8.5 -14.834 -8.5 -27.501v-40c0 -12.667 2.83301 -21.834 8.5 -27.501s14.834 -8.5 27.501 -8.5h77zM259.002 170.004v-119.001c0 -30.667 -8 -53.5 -24 -68.5s-37.333 -22.5 -64 -22.5h-46v10h46c24 0 43 6.83301 57 20.5s21 33.834 21 60.501v109h-124v10h134z" />
    <glyph glyph-name="hyphen" unicode="-" horiz-adv-x="420" 
d="M344 247h-268c-16 0 -27.667 3.5 -35 10.5s-11 18.833 -11 35.5v134c0 16 3.66699 27.667 11 35s19 11 35 11h268c16 0 27.667 -3.5 35 -10.5s11 -18.833 11 -35.5v-134c0 -16.667 -3.66699 -28.5 -11 -35.5s-19 -10.5 -35 -10.5zM76 257h268
c12.667 0 21.834 2.83301 27.501 8.5s8.5 14.834 8.5 27.501v134c0 12.667 -2.83301 21.834 -8.5 27.501s-14.834 8.5 -27.501 8.5h-268c-12.667 0 -21.834 -2.83301 -27.501 -8.5s-8.5 -14.834 -8.5 -27.501v-134c0 -12.667 2.83301 -21.834 8.5 -27.501
s14.834 -8.5 27.501 -8.5zM290 365v-10h-160v10h160z" />
    <glyph glyph-name="period" unicode="." horiz-adv-x="384" 
d="M339 36c0 -16 -3.66699 -27.667 -11 -35s-19 -11 -35 -11h-202c-16 0 -27.667 3.66699 -35 11s-11 19 -11 35v203c0 16.667 3.66699 28.5 11 35.5s19 10.5 35 10.5h202c16 0 27.667 -3.5 35 -10.5s11 -18.833 11 -35.5v-203zM293 0c12.667 0 21.834 2.83301 27.501 8.5
s8.5 14.834 8.5 27.501v203c0 12.667 -2.83301 21.834 -8.5 27.501s-14.834 8.5 -27.501 8.5h-202c-12.667 0 -21.834 -2.83301 -27.501 -8.5s-8.5 -14.834 -8.5 -27.501v-203c0 -12.667 2.83301 -21.834 8.5 -27.501s14.834 -8.5 27.501 -8.5h202zM187 90v95h10v-95h-10z
" />
    <glyph glyph-name="slash" unicode="/" horiz-adv-x="347" 
d="M43 -100c-16.667 0 -29 3.83301 -37 11.5s-11 19.5 -9 35.5l120 828c2 16 6.33301 27.5 13 34.5s17.667 10.5 33 10.5h145c16.667 0 29 -3.83301 37 -11.5s11 -19.5 9 -35.5l-120 -828c-2 -16 -6.33301 -27.5 -13 -34.5s-17.667 -10.5 -33 -10.5h-145zM7 -54
c-1.33301 -12.667 1.16699 -21.834 7.5 -27.501s15.833 -8.5 28.5 -8.5h145c12.667 0 21.5 2.83301 26.5 8.5s8.16699 14.834 9.5 27.501l120 828c1.33301 12.667 -1.16699 21.834 -7.5 27.501s-15.833 8.5 -28.5 8.5h-145c-12.667 0 -21.5 -2.83301 -26.5 -8.5
s-8.16699 -14.834 -9.5 -27.501zM223 720h10l-104 -720h-10z" />
    <glyph glyph-name="zero" unicode="0" horiz-adv-x="727" 
d="M679 530v-341c0 -31.333 -4.33301 -60.166 -13 -86.499s-24.5 -48.833 -47.5 -67.5s-55.167 -33.334 -96.5 -44.001s-94 -16 -158 -16s-116.667 5.33301 -158 16s-73.666 25.334 -96.999 44.001s-39.333 41.167 -48 67.5s-13 55.166 -13 86.499v341
c0 31.333 4.33301 60.166 13 86.499s24.667 49 48 68s55.666 33.833 96.999 44.5s94 16 158 16s116.667 -5.33301 158 -16s73.5 -25.5 96.5 -44.5s38.833 -41.667 47.5 -68s13 -55.166 13 -86.499zM669 189v341c0 30.667 -4.33301 58.5 -13 83.5s-24.334 46.5 -47.001 64.5
s-53.834 32 -93.501 42s-90.167 15 -151.5 15s-111.833 -5 -151.5 -15s-70.834 -24 -93.501 -42s-38.5 -39.5 -47.5 -64.5s-13.5 -52.833 -13.5 -83.5v-341c0 -30.667 4.5 -58.5 13.5 -83.5s24.833 -46.333 47.5 -64s53.834 -31.5 93.501 -41.5s90.167 -15 151.5 -15
s111.833 5 151.5 15s70.834 23.833 93.501 41.5s38.334 39 47.001 64s13 52.833 13 83.5zM166 212v294.995c0 20 3 38.333 9 55s16.333 30.834 31 42.501s34.834 20.834 60.501 27.501s57.834 10 96.501 10c77.333 0 129.833 -12.667 157.5 -38s41.5 -57.666 41.5 -96.999
v-295c0 -40 -13.833 -72.5 -41.5 -97.5s-80.167 -37.5 -157.5 -37.5c-38.667 0 -70.834 3.33301 -96.501 10s-45.834 15.834 -60.501 27.501s-25 25.834 -31 42.501s-9 35 -9 55zM363 631.995c-71.333 0 -120.333 -11.333 -147 -34s-40 -53 -40 -91v-295
c0 -38 13.333 -68.333 40 -91s75.667 -34 147 -34s120.666 11.333 147.999 34s41 53 41 91v295c0 37.333 -13.667 67.5 -41 90.5s-76.666 34.5 -147.999 34.5zM284 224.995v269c0 12.667 4.83301 23.5 14.5 32.5s31.5 13.5 65.5 13.5s55.833 -4.5 65.5 -13.5
s14.5 -19.833 14.5 -32.5v-269c0 -13.333 -4.83301 -24.5 -14.5 -33.5s-31.5 -13.5 -65.5 -13.5s-55.833 4.5 -65.5 13.5s-14.5 20.167 -14.5 33.5zM294 493.995v-269c0 -12 5 -21.167 15 -27.5s28.333 -9.5 55 -9.5s45 3.16699 55 9.5s15 15.5 15 27.5v269
c0 11.333 -5 20.166 -15 26.499s-28.333 9.5 -55 9.5s-45 -3.16699 -55 -9.5s-15 -15.166 -15 -26.499z" />
    <glyph glyph-name="one" unicode="1" horiz-adv-x="601" 
d="M84 -10c-16 0 -27.667 3.66699 -35 11s-11 19 -11 35v121c0 16 3.66699 27.667 11 35s19 11 35 11h102v314h-82c-16 0 -27.667 3.66699 -35 11s-11 19 -11 35v121c0 16 3.66699 27.667 11 35s19 11 35 11h290c16 0 27.667 -3.66699 35 -11s11 -19 11 -35v-481h86
c16 0 27.667 -3.66699 35 -11s11 -19 11 -35v-121c0 -16 -3.66699 -27.667 -11 -35s-19 -11 -35 -11h-442zM526 0c12.667 0 21.835 2.83398 27.502 8.50098s8.5 14.834 8.5 27.501v121c0 12.667 -2.83301 21.834 -8.5 27.501s-14.834 8.5 -27.501 8.5h-96v491
c0 12.667 -2.83301 21.834 -8.5 27.501s-14.834 8.5 -27.501 8.5h-290c-12.667 0 -21.834 -2.83301 -27.501 -8.5s-8.5 -14.834 -8.5 -27.501v-121c0 -12.667 2.83301 -21.834 8.5 -27.501s14.834 -8.5 27.501 -8.5h92v-334h-112c-12.667 0 -21.834 -2.83301 -27.501 -8.5
s-8.5 -14.834 -8.5 -27.501v-121c0 -12.667 2.83301 -21.834 8.5 -27.501s14.834 -8.5 27.501 -8.5h442zM138.001 85.001v10h170v525h-150v10h160v-535h154v-10h-334z" />
    <glyph glyph-name="two" unicode="2" horiz-adv-x="639" 
d="M76 -10c-16 0 -27.667 3.66602 -35 10.999s-11 19 -11 35v172c0 40 4 73.167 12 99.5s19.333 47.833 34 64.5s32 29.834 52 39.501s42 18.167 66 25.5l134 42c8 2 13.333 4.83301 16 8.5s4 9.5 4 17.5c0 6.66699 -1.33301 11 -4 13s-7 3 -13 3h-217
c-16 0 -27.667 3.66699 -35 11s-11 19 -11 35v117c0 16 3.66699 27.667 11 35s19 11 35 11h295c60 0 106 -15.167 138 -45.5s48 -73.833 48 -130.5v-94c0 -52.667 -14.5 -93 -43.5 -121s-68.833 -50 -119.5 -66l-136 -43c-6.66699 -2 -11.5 -3.83301 -14.5 -5.5
s-4.5 -6.5 -4.5 -14.5v-11h275c16 0 27.667 -3.66699 35 -11s11 -19 11 -35v-117c0 -16 -3.66699 -27.667 -11 -35s-19 -11 -35 -11h-476zM552 -0.000976562c12.667 0 21.834 2.83301 27.501 8.5s8.5 14.834 8.5 27.501v117c0 12.667 -2.83301 21.834 -8.5 27.501
s-14.834 8.5 -27.501 8.5h-285v21c0 10.667 1.83301 17.667 5.5 21s10.5 6.33301 20.5 9l136 43c48 14.667 86 35.334 114 62.001s42 65 42 115v94c0 54 -15.167 95.167 -45.5 123.5s-73.833 42.5 -130.5 42.5h-295c-12.667 0 -21.834 -2.83301 -27.501 -8.5
s-8.5 -14.834 -8.5 -27.501v-117c0 -12.667 2.83301 -21.834 8.5 -27.501s14.834 -8.5 27.501 -8.5h217c10 0 17 -1.83301 21 -5.5s6 -10.5 6 -20.5c0 -10.667 -1.83301 -18.667 -5.5 -24s-10.834 -9.33301 -21.501 -12l-134 -42c-22.667 -6.66699 -43.667 -14.667 -63 -24
s-36 -22 -50 -38s-24.833 -36.5 -32.5 -61.5s-11.5 -56.833 -11.5 -95.5v-172c0 -12.667 2.83301 -21.834 8.5 -27.501s14.834 -8.5 27.501 -8.5h476zM204 327.999l233 76.999c8.66699 3.33301 15.667 8.83301 21 16.5s8 17.834 8 30.501v91
c0 30.667 -8.66699 51.167 -26 61.5s-41 15.5 -71 15.5h-201v10h201c34 0 60.333 -6.16699 79 -18.5s28 -35.166 28 -68.499v-91c0 -15.333 -3.16699 -27.333 -9.5 -36s-14.833 -15.334 -25.5 -20.001l-233 -77c-18.667 -6.66699 -31.667 -14.834 -39 -24.501
s-11 -25.834 -11 -48.501v-146h340v-10h-349v156c0 24.667 4 42.834 12 54.501s22.333 20.834 43 27.501z" />
    <glyph glyph-name="three" unicode="3" horiz-adv-x="637" 
d="M85 -10c-16 0 -27.667 3.66699 -35 11s-11 19 -11 35v117c0 16 3.66699 27.667 11 35s19 11 35 11h251c10.667 0 18 1.83301 22 5.5s6 8.5 6 14.5v27c0 6 -2 10.667 -6 14s-11.333 5 -22 5h-170c-16 0 -27.667 3.66699 -35 11s-11 19 -11 35v107
c0 16 3.66699 27.667 11 35s19 11 35 11h105c10.667 0 18 1.83301 22 5.5s6 8.5 6 14.5v15c0 6 -2 10.833 -6 14.5s-11.333 5.5 -22 5.5h-186c-16 0 -27.667 3.66699 -35 11s-11 19 -11 35v119c0 16 3.66699 27.667 11 35s19 11 35 11h279c59.333 0 103.166 -14 131.499 -42
s42.5 -65 42.5 -111v-58c0 -22.667 -3 -42.667 -9 -60s-16.333 -31.666 -31 -42.999c40 -8.66699 67.833 -25.334 83.5 -50.001s23.5 -58 23.5 -100v-100c0 -54 -17.167 -96.833 -51.5 -128.5s-85.166 -47.5 -152.499 -47.5h-316zM85 189
c-12.667 0 -21.835 -2.82715 -27.502 -8.49414s-8.5 -14.834 -8.5 -27.501v-117c0 -12.667 2.83301 -21.834 8.5 -27.501s14.834 -8.5 27.501 -8.5h316c64 0 112.333 14.833 145 44.5s49 70.167 49 121.5v100c0 44 -9.16699 77.833 -27.5 101.5s-51.166 38.167 -98.499 43.5
c22 9.33301 37.333 23.333 46 42s13 40.667 13 66v58c0 44 -13.5 78.833 -40.5 104.5s-68.167 38.5 -123.5 38.5h-279c-12.667 0 -21.834 -2.83301 -27.501 -8.5s-8.5 -14.834 -8.5 -27.501v-119c0 -12.667 2.83301 -21.834 8.5 -27.501s14.834 -8.5 27.501 -8.5h186
c16 0 26.333 -3 31 -9s7 -13 7 -21v-15c0 -8 -2.33301 -15 -7 -21s-15 -9 -31 -9h-105c-12.667 0 -21.834 -2.83301 -27.501 -8.5s-8.5 -14.834 -8.5 -27.501v-107c0 -12.667 2.83301 -21.834 8.5 -27.501s14.834 -8.5 27.501 -8.5h170c16 0 26.333 -2.83301 31 -8.5
s7 -12.5 7 -20.5v-27c0 -8 -2.33301 -15 -7 -21s-15 -9 -31 -9h-251zM219.999 359.006l0.00195312 10.0049h83c25.333 0 45.333 2.5 60 7.5s25.834 11.667 33.501 20s12.5 18 14.5 29s3 22.5 3 34.5v68c0 26 -8 47.833 -24 65.5s-48.333 26.5 -97 26.5h-154v10h154
c27.333 0 49.666 -2.83301 66.999 -8.5s30.666 -13.334 39.999 -23.001s15.666 -20.834 18.999 -33.501s5 -26.334 5 -41.001v-64c0 -18.667 -3.5 -37.167 -10.5 -55.5s-25.5 -30.833 -55.5 -37.5h16c41.333 0 71 -9.33301 89 -28s27 -45.334 27 -80.001v-69
c0 -14.667 -1.66699 -28.167 -5 -40.5s-9.5 -22.833 -18.5 -31.5s-22.167 -15.5 -39.5 -20.5s-40 -7.5 -68 -7.5h-220v10h220c50 0 82.667 8.16699 98 24.5s23 38.166 23 65.499v69c0 33.333 -8.5 58.333 -25.5 75s-44.5 25 -82.5 25h-152z" />
    <glyph glyph-name="four" unicode="4" horiz-adv-x="709" 
d="M450 -10c-16 0 -27.667 3.66797 -35 11.001s-11 19 -11 35v121h-159c-68.667 0 -117.834 14.333 -147.501 43s-44.5 73 -44.5 133v351c0 16 3.66699 27.667 11 35s19 11 35 11h155c16 0 27.667 -3.66699 35 -11s11 -19 11 -35v-274
c0 -6.66699 1.83301 -12.334 5.5 -17.001s8.83398 -7 15.501 -7h83v298c0 16 3.66699 27.667 11 35s19 11 35 11h154c16 0 27.667 -3.66699 35 -11s11 -19 11 -35v-648c0 -16 -3.66699 -27.667 -11 -35s-19 -11 -35 -11h-154zM414 167.001l0.00195312 -131
c0 -12.667 2.83301 -21.834 8.5 -27.501s14.834 -8.5 27.501 -8.5h154c12.667 -0 21.834 2.83301 27.501 8.5s8.5 14.834 8.5 27.501v648c0 12.667 -2.83301 21.834 -8.5 27.501s-14.834 8.5 -27.501 8.5h-154c-12.667 0 -21.834 -2.83301 -27.501 -8.5
s-8.5 -14.834 -8.5 -27.501v-308h-93c-9.33301 0 -16.833 3 -22.5 9s-8.5 14.333 -8.5 25v274c0 12.667 -2.83301 21.834 -8.5 27.501s-14.834 8.5 -27.501 8.5h-155c-12.667 0 -21.834 -2.83301 -27.501 -8.5s-8.5 -14.834 -8.5 -27.501v-351
c0 -56.667 14.167 -98.5 42.5 -125.5s74.833 -40.5 139.5 -40.5h169zM522.002 90.001v176.999h-239c-38 0 -66 8.83301 -84 26.5s-27 43.834 -27 78.501v258h10v-258c0 -32 8.33301 -55.833 25 -71.5s42 -23.5 76 -23.5h239v353h10v-540h-10z" />
    <glyph glyph-name="five" unicode="5" horiz-adv-x="647" 
d="M91 -10c-16 0 -27.667 3.66699 -35 11s-11 19 -11 35v117c0 16 3.66699 27.667 11 35s19 11 35 11h258c4.66699 0 8.66699 1 12 3s5 5.33301 5 10v39c0 4.66699 -1.66699 8 -5 10s-7.33301 3 -12 3h-248c-16 0 -27.667 3.66699 -35 11s-11 19 -11 35v374
c0 16 3.66699 27.667 11 35s19 11 35 11h431c16 0 27.667 -3.66699 35 -11s11 -19 11 -35v-119c0 -16 -3.66699 -27.667 -11 -35s-19 -11 -35 -11h-230v-45h127c57.333 0 102.5 -14.167 135.5 -42.5s49.5 -70.5 49.5 -126.5v-139c0 -53.333 -18.333 -96 -55 -128
s-86.667 -48 -150 -48h-318zM409 0c60 0 107.5 15.001 142.5 45.001s52.5 70.333 52.5 121v139c0 52.667 -15.667 92.334 -47 119.001s-74 40 -128 40h-137v65h240c12.667 0 21.834 2.83301 27.501 8.5s8.5 14.834 8.5 27.501v119c0 12.667 -2.83301 21.834 -8.5 27.501
s-14.834 8.5 -27.501 8.5h-431c-12.667 0 -21.834 -2.83301 -27.501 -8.5s-8.5 -14.834 -8.5 -27.501v-374c0 -12.667 2.83301 -21.834 8.5 -27.501s14.834 -8.5 27.501 -8.5h248c8 0 14.5 -1.83301 19.5 -5.5s7.5 -9.5 7.5 -17.5v-39c0 -8 -2.5 -13.833 -7.5 -17.5
s-11.5 -5.5 -19.5 -5.5h-258c-12.667 0 -21.834 -2.83301 -27.501 -8.5s-8.5 -14.834 -8.5 -27.501v-117c0 -12.667 2.83301 -21.834 8.5 -27.501s14.834 -8.5 27.501 -8.5h318zM145 90.001l-0.00195312 10h236c37.333 0 64 7 80 21s24 36.333 24 67v88
c0 31.333 -8.16699 53.833 -24.5 67.5s-39.833 20.5 -70.5 20.5h-216v266h304v-10h-294v-246h206c34.667 0 60.834 -7.83301 78.501 -23.5s26.5 -40.5 26.5 -74.5v-88c0 -34 -8.66699 -58.833 -26 -74.5s-46.666 -23.5 -87.999 -23.5h-236z" />
    <glyph glyph-name="six" unicode="6" horiz-adv-x="693" 
d="M358 -25c-64 0 -116.334 5.16504 -157.001 15.498s-72.334 24.833 -95.001 43.5s-38 41 -46 67s-12 54.667 -12 86v328c0 31.333 4 60.333 12 87s21.833 49.334 41.5 68.001s46 33.334 79 44.001s74.167 16 123.5 16h230c16.667 0 28.5 -3.66699 35.5 -11
s10.5 -19 10.5 -35v-118c0 -16 -3.66699 -27.667 -11 -35s-19 -11 -35 -11h-187c-20.667 0 -34.667 -3.16699 -42 -9.5s-11 -19.833 -11 -40.5v-8c15.333 3.33301 32.833 6 52.5 8s41.167 3 64.5 3c47.333 0 86.833 -4.16699 118.5 -12.5s56.834 -20.333 75.501 -36
s31.834 -35.5 39.501 -59.5s11.5 -51.333 11.5 -82v-96c0 -31.333 -4.33301 -60 -13 -86s-24 -48.333 -46 -67s-52.333 -33.167 -91 -43.5s-88 -15.5 -148 -15.5zM357.999 -15.002c57.333 0 104.666 4.83203 141.999 14.499s66.833 23.334 88.5 41.001
s36.667 38.834 45 63.501s12.5 52.334 12.5 83.001v96c0 59.333 -16.667 104.166 -50 134.499s-95 45.5 -185 45.5c-26.667 0 -50.5 -1.33301 -71.5 -4s-39.5 -6.33398 -55.5 -11.001v22c0 24.667 4.33301 40.834 13 48.501s25.334 11.5 50.001 11.5h187
c12.667 0 21.834 2.83301 27.501 8.5s8.5 14.834 8.5 27.501v118c0 12.667 -2.83301 21.834 -8.5 27.501s-14.834 8.5 -27.501 8.5h-230c-94 0 -158.5 -19 -193.5 -57s-52.5 -87.333 -52.5 -148v-328c0 -30.667 4.16699 -58.334 12.5 -83.001s23.5 -45.834 45.5 -63.501
s52.5 -31.334 91.5 -41.001s89.167 -14.5 150.5 -14.5zM360.999 70.9971c-26.667 0 -51.667 1.16504 -75 3.49805s-43.666 7.5 -60.999 15.5s-30.833 19.833 -40.5 35.5s-14.5 36.167 -14.5 61.5v328c0 44 11.833 74.167 35.5 90.5s56.5 24.5 98.5 24.5h176v-10h-176
c-38 0 -68.167 -7.16699 -90.5 -21.5s-33.5 -42.166 -33.5 -83.499v-188c12 26.667 34.667 42.667 68 48s72 8 116 8c24.667 0 47.5 -0.833008 68.5 -2.5s39.333 -6 55 -13s28 -17.833 37 -32.5s13.5 -34.667 13.5 -60v-88c0 -25.333 -4.5 -45.666 -13.5 -60.999
s-21.5 -27 -37.5 -35s-34.833 -13.333 -56.5 -16s-44.834 -4 -69.501 -4zM360.999 80.9951c22.667 0 44.168 1.00293 64.501 3.00293s38.166 6.66699 53.499 14s27.333 18.166 36 32.499s13 33.166 13 56.499v88c0 24 -4.5 42.667 -13.5 56s-20.833 23.166 -35.5 29.499
s-32 10 -52 11s-41 1.5 -63 1.5s-44 -0.333008 -66 -1s-41.667 -4 -59 -10s-31.5 -15.5 -42.5 -28.5s-16.5 -31.5 -16.5 -55.5v-91c0 -24 4.83301 -43.167 14.5 -57.5s22.667 -25 39 -32s35.5 -11.5 57.5 -13.5s45.333 -3 70 -3zM284 261.998c0 10 4 18.5 12 25.5
s26.333 10.5 55 10.5c30 0 49 -3.5 57 -10.5s12 -15.5 12 -25.5v-59c0 -10.667 -4 -19.5 -12 -26.5s-27 -10.5 -57 -10.5c-28.667 0 -47 3.5 -55 10.5s-12 15.833 -12 26.5v59zM351 287.998c-20.667 0 -35.334 -2.16699 -44.001 -6.5s-13 -10.833 -13 -19.5v-59
c0 -8.66699 4.33301 -15.334 13 -20.001s23.334 -7 44.001 -7c22 0 37.333 2.33301 46 7s13 11.334 13 20.001v59c0 8.66699 -4.5 15.167 -13.5 19.5s-24.167 6.5 -45.5 6.5z" />
    <glyph glyph-name="seven" unicode="7" horiz-adv-x="627" 
d="M147 -10c-16 0 -27.667 3.66699 -35 11s-11 19 -11 35v181c0 33.333 3.33301 61.333 10 84s16.5 41.667 29.5 57s29.833 28.166 50.5 38.499s45 19.833 73 28.5l74 20v72h-264c-16 0 -27.667 3.66699 -35 11s-11 19 -11 35v121c0 16 3.66699 27.667 11 35s19 11 35 11
h465c16 0 27.667 -3.66699 35 -11s11 -19 11 -35v-253c0 -33.333 -3.33301 -61.333 -10 -84s-16.5 -41.667 -29.5 -57s-29.833 -28.166 -50.5 -38.499s-45 -19.833 -73 -28.5l-67 -20v-167c0 -16 -3.66699 -27.667 -11 -35s-19 -11 -35 -11h-162zM539 720
l-465.001 0.000976562c-12.667 0 -21.834 -2.83301 -27.501 -8.5s-8.5 -14.834 -8.5 -27.501v-121c0 -12.667 2.83301 -21.834 8.5 -27.501s14.834 -8.5 27.501 -8.5h274v-90l-81 -22c-26.667 -8 -49.834 -16.833 -69.501 -26.5s-35.834 -21.834 -48.501 -36.501
s-22.167 -33 -28.5 -55s-9.5 -48.667 -9.5 -80v-181c0 -12.667 2.83301 -21.834 8.5 -27.501s14.834 -8.5 27.501 -8.5h162c12.667 0 21.834 2.83301 27.501 8.5s8.5 14.834 8.5 27.501v175l74 22c26.667 8 49.834 16.833 69.501 26.5s35.834 21.834 48.501 36.501
s22.167 33 28.5 55s9.5 48.667 9.5 80v253c0 12.667 -2.83301 21.834 -8.5 27.501s-14.834 8.5 -27.501 8.5zM222.999 90.001v149.999c0 15.333 3.16699 27.333 9.5 36s14.833 15.334 25.5 20.001l170 68c10 4 17.333 9.5 22 16.5s7 16.833 7 29.5v210h-329v10h339v-220
c0 -15.333 -2.83301 -27.333 -8.5 -36s-14.5 -15.334 -26.5 -20.001l-170 -68c-8.66699 -3.33301 -15.667 -8.66602 -21 -15.999s-8 -17.333 -8 -30v-150h-10z" />
    <glyph glyph-name="eight" unicode="8" horiz-adv-x="711" 
d="M356 -25c-63.333 0 -115.667 4.66699 -157 14s-74 22 -98 38s-40.667 35.333 -50 58s-14 47.334 -14 74.001v97c0 44 8.5 78.833 25.5 104.5s38.5 43.5 64.5 53.5c-15.333 10.667 -26.333 25.167 -33 43.5s-10 38.833 -10 61.5v58c0 25.333 4.16699 48.333 12.5 69
s22.833 38.334 43.5 53.001s48.667 26 84 34s79.666 12 132.999 12s97.5 -4 132.5 -12s62.667 -19.333 83 -34s34.5 -32.334 42.5 -53.001s12 -43.667 12 -69v-58c0 -22.667 -3.33301 -43.167 -10 -61.5s-17.667 -32.833 -33 -43.5c26 -10 47.5 -27.833 64.5 -53.5
s25.5 -60.5 25.5 -104.5v-97c0 -26.667 -4.66699 -51.334 -14 -74.001s-25.833 -42 -49.5 -58s-56.167 -28.667 -97.5 -38s-93.666 -14 -156.999 -14zM663.999 256c0 46.667 -10.166 82.667 -30.499 108s-45.5 41 -75.5 47c22 9.33301 37.333 23.333 46 42s13 40.667 13 66
v58c0 24.667 -4.16699 46.667 -12.5 66s-22.333 35.833 -42 49.5s-46.334 24.167 -80.001 31.5s-75.5 11 -125.5 11s-92 -3.66699 -126 -11s-61 -17.833 -81 -31.5s-34.333 -30.167 -43 -49.5s-13 -41.333 -13 -66v-58c0 -25.333 4.33301 -47.333 13 -66s24 -32.667 46 -42
c-30 -6 -55.167 -21.667 -75.5 -47s-30.5 -61.333 -30.5 -108v-97c0 -26 4.83301 -49.667 14.5 -71s26.167 -39.666 49.5 -54.999s55 -27.166 95 -35.499s90 -12.5 150 -12.5s109.833 4.16699 149.5 12.5s71.167 20.166 94.5 35.499s39.833 33.666 49.5 54.999
s14.5 45 14.5 71v97zM356 67c-40 0 -73.168 2.66602 -99.501 7.99902s-47.166 12.666 -62.499 21.999s-26 20.5 -32 33.5s-9 27.167 -9 42.5v92c0 25.333 9.16699 47.333 27.5 66s51.5 31.334 99.5 38.001c-32 5.33301 -55.167 15.166 -69.5 29.499
s-21.5 33.166 -21.5 56.499v103c0 30.667 13.333 54 40 70s69 24 127 24s100.167 -8.33301 126.5 -25s39.5 -42.334 39.5 -77.001v-95c0 -23.333 -7 -42.166 -21 -56.499s-37 -24.166 -69 -29.499c48 -6.66699 81 -19.167 99 -37.5s27 -40.166 27 -65.499v-93
c0 -15.333 -3 -29.5 -9 -42.5s-16.5 -24.167 -31.5 -33.5s-35.667 -16.666 -62 -21.999s-59.5 -8 -99.5 -8zM198.999 557.999l-0.000976562 -102.999c0 -28.667 13 -49.334 39 -62.001s65.333 -19 118 -19s91.834 6.33301 117.501 19s38.5 33.334 38.5 62.001v95
c0 32.667 -13 56.167 -39 70.5s-65 21.5 -117 21.5s-91.167 -6.83301 -117.5 -20.5s-39.5 -34.834 -39.5 -63.501zM292.998 480v44c0 10 3.5 18.5 10.5 25.5s24.5 10.5 52.5 10.5c28.667 0 46.167 -3.5 52.5 -10.5s9.5 -15.5 9.5 -25.5v-44
c0 -10.667 -3.16699 -19.5 -9.5 -26.5s-23.833 -10.5 -52.5 -10.5c-28 0 -45.5 3.5 -52.5 10.5s-10.5 15.833 -10.5 26.5zM302.998 524v-44c0 -8.66699 3.66699 -15.334 11 -20.001s21.333 -7 42 -7s34.5 2.33301 41.5 7s10.5 11.334 10.5 20.001v44
c0 8.66699 -3.5 15.167 -10.5 19.5s-20.833 6.5 -41.5 6.5c-20 0 -33.833 -2.16699 -41.5 -6.5s-11.5 -10.833 -11.5 -19.5zM162.998 265l-0.000976562 -91.999c0 -28.667 14.167 -51.834 42.5 -69.501s78.5 -26.5 150.5 -26.5s122 8.83301 150 26.5s42 40.834 42 69.501v93
c0 28.667 -14.167 52.167 -42.5 70.5s-78.166 27.5 -149.499 27.5s-121.333 -9.33301 -150 -28s-43 -42.334 -43 -71.001zM267.997 197.001v53c0 10 5.66699 18.5 17 25.5s35 10.5 71 10.5s59.5 -3.5 70.5 -10.5s16.5 -15.5 16.5 -25.5v-53
c0 -10.667 -5.5 -19.5 -16.5 -26.5s-34.5 -10.5 -70.5 -10.5s-59.667 3.5 -71 10.5s-17 15.833 -17 26.5zM277.997 250.001l-0.000976562 -53c0 -9.33301 6.33301 -16.166 19 -20.499s32.334 -6.5 59.001 -6.5s46.167 2.16699 58.5 6.5s18.5 11.166 18.5 20.499v53
c0 8.66699 -6.16699 15.167 -18.5 19.5s-31.833 6.5 -58.5 6.5c-26 0 -45.5 -2.16699 -58.5 -6.5s-19.5 -10.833 -19.5 -19.5z" />
    <glyph glyph-name="nine" unicode="9" horiz-adv-x="693" 
d="M159 -10c-16.667 0 -28.499 3.66895 -35.499 11.002s-10.5 19 -10.5 35v118c0 16 3.66699 27.667 11 35s19 11 35 11h187c20.667 0 34.667 3.16699 42 9.5s11 19.833 11 40.5v8c-15.333 -3.33301 -32.833 -6 -52.5 -8s-41.167 -3 -64.5 -3
c-47.333 0 -86.833 4.16699 -118.5 12.5s-56.834 20.333 -75.501 36s-31.834 35.5 -39.501 59.5s-11.5 51.333 -11.5 82v96c0 31.333 4.33301 60 13 86s24 48.333 46 67s52.333 33.167 91 43.5s88 15.5 148 15.5c64 0 116.333 -5.16699 157 -15.5
s72.334 -24.833 95.001 -43.5s38 -41 46 -67s12 -54.667 12 -86v-328c0 -31.333 -4 -60.333 -12 -87s-21.833 -49.334 -41.5 -68.001s-46 -33.334 -79 -44.001s-74.167 -16 -123.5 -16h-230zM389.001 0.00195312c94 0 158.5 19.001 193.5 57.001s52.5 87.333 52.5 148v328
c0 30.667 -4.16699 58.334 -12.5 83.001s-23.5 45.834 -45.5 63.501s-52.5 31.334 -91.5 41.001s-89.167 14.5 -150.5 14.5c-57.333 0 -104.666 -4.83301 -141.999 -14.5s-66.833 -23.334 -88.5 -41.001s-36.667 -38.834 -45 -63.501s-12.5 -52.334 -12.5 -83.001v-96
c0 -59.333 16.667 -104.166 50 -134.499s95 -45.5 185 -45.5c26.667 0 50.5 1.33301 71.5 4s39.5 6.33398 55.5 11.001v-22c0 -24.667 -4.33301 -40.834 -13 -48.501s-25.334 -11.5 -50.001 -11.5h-187c-12.667 0 -21.834 -2.83301 -27.501 -8.5s-8.5 -14.834 -8.5 -27.501
v-118c0 -12.667 2.83301 -21.834 8.5 -27.501s14.834 -8.5 27.501 -8.5h230zM213.001 90.0029v10.002h176c38 0 68.167 7.16699 90.5 21.5s33.5 42.166 33.5 83.499v188c-12 -26.667 -34.667 -42.667 -68 -48s-72 -8 -116 -8c-24.667 0 -47.5 0.833008 -68.5 2.5
s-39.333 6 -55 13s-28 17.833 -37 32.5s-13.5 34.667 -13.5 60v88c0 25.333 4.5 45.666 13.5 60.999s21.5 27 37.5 35s34.833 13.333 56.5 16s44.834 4 69.501 4c26.667 0 51.667 -1.16699 75 -3.5s43.666 -7.5 60.999 -15.5s30.833 -19.833 40.5 -35.5
s14.5 -36.167 14.5 -61.5v-328c0 -44 -11.833 -74.167 -35.5 -90.5s-56.5 -24.5 -98.5 -24.5h-176zM329.001 347.005c22 0 43.999 0.330078 65.999 0.99707s41.667 4 59 10s31.5 15.5 42.5 28.5s16.5 31.5 16.5 55.5v91c0 24 -4.83301 43.167 -14.5 57.5s-22.667 25 -39 32
s-35.5 11.5 -57.5 13.5s-45.333 3 -70 3c-22.667 0 -44.167 -1 -64.5 -3s-38.166 -6.66699 -53.499 -14s-27.333 -18.166 -36 -32.499s-13 -33.166 -13 -56.499v-88c0 -24 4.5 -42.667 13.5 -56s20.833 -23.166 35.5 -29.499s32 -10 52 -11s41 -1.5 63 -1.5zM409 458.002
c0 -10 -4 -18.5 -12 -25.5s-26.333 -10.5 -55 -10.5c-30 0 -49 3.5 -57 10.5s-12 15.5 -12 25.5v59c0 10.667 4 19.5 12 26.5s27 10.5 57 10.5c28.667 0 47 -3.5 55 -10.5s12 -15.833 12 -26.5v-59zM342 432.002c20.667 0 35.334 2.16699 44.001 6.5s13 10.833 13 19.5v59
c0 8.66699 -4.33301 15.334 -13 20.001s-23.334 7 -44.001 7c-22 0 -37.333 -2.33301 -46 -7s-13 -11.334 -13 -20.001v-59c0 -8.66699 4.5 -15.167 13.5 -19.5s24.167 -6.5 45.5 -6.5z" />
    <glyph glyph-name="colon" unicode=":" horiz-adv-x="384" 
d="M339 36c0 -16 -3.66699 -27.667 -11 -35s-19 -11 -35 -11h-202c-16 0 -27.667 3.66699 -35 11s-11 19 -11 35v203c0 16.667 3.66699 28.5 11 35.5s19 10.5 35 10.5h202c16 0 27.667 -3.5 35 -10.5s11 -18.833 11 -35.5v-203zM293 0c12.667 0 21.834 2.83301 27.501 8.5
s8.5 14.834 8.5 27.501v203c0 12.667 -2.83301 21.834 -8.5 27.501s-14.834 8.5 -27.501 8.5h-202c-12.667 0 -21.834 -2.83301 -27.501 -8.5s-8.5 -14.834 -8.5 -27.501v-203c0 -12.667 2.83301 -21.834 8.5 -27.501s14.834 -8.5 27.501 -8.5h202zM187 90v95h10v-95h-10z
M339 391c0 -16 -3.66699 -27.667 -11 -35s-19 -11 -35 -11h-202c-16 0 -27.667 3.66699 -35 11s-11 19 -11 35v203c0 16.667 3.66699 28.5 11 35.5s19 10.5 35 10.5h202c16 0 27.667 -3.5 35 -10.5s11 -18.833 11 -35.5v-203zM293 355c12.667 0 21.834 2.83301 27.501 8.5
s8.5 14.834 8.5 27.501v203c0 12.667 -2.83301 21.834 -8.5 27.501s-14.834 8.5 -27.501 8.5h-202c-12.667 0 -21.834 -2.83301 -27.501 -8.5s-8.5 -14.834 -8.5 -27.501v-203c0 -12.667 2.83301 -21.834 8.5 -27.501s14.834 -8.5 27.501 -8.5h202zM187 445v95h10v-95h-10z
" />
    <glyph glyph-name="semicolon" unicode=";" horiz-adv-x="384" 
d="M104 -110c-16 0 -27.667 3.50098 -35 10.501s-11 18.833 -11 35.5v40c0 16 3.66699 27.667 11 35s19 11 35 11h69c6 0 10.333 1.66699 13 5s4 7.66602 4 12.999v5h-99c-16 0 -27.667 3.66699 -35 11s-11 19 -11 35v148c0 16 3.66699 27.667 11 35s19 11 35 11h202
c16 0 27.667 -3.66699 35 -11s11 -19 11 -35v-188c0 -54 -14.333 -94.333 -43 -121s-67 -40 -115 -40h-77zM181 -99.999c44.667 0 80.502 12.5029 107.502 37.5029s40.5 62.833 40.5 113.5v188c0 12.667 -2.83301 21.834 -8.5 27.501s-14.834 8.5 -27.501 8.5h-202
c-12.667 0 -21.834 -2.83301 -27.501 -8.5s-8.5 -14.834 -8.5 -27.501v-148c0 -12.667 2.83301 -21.834 8.5 -27.501s14.834 -8.5 27.501 -8.5h109v-15c0 -8.66699 -2.33301 -15.5 -7 -20.5s-11.334 -7.5 -20.001 -7.5h-69c-12.667 0 -21.834 -2.83301 -27.501 -8.5
s-8.5 -14.834 -8.5 -27.501v-40c0 -12.667 2.83301 -21.834 8.5 -27.501s14.834 -8.5 27.501 -8.5h77zM259.002 170.004v-119.001c0 -30.667 -8 -53.5 -24 -68.5s-37.333 -22.5 -64 -22.5h-46v10h46c24 0 43 6.83301 57 20.5s21 33.834 21 60.501v109h-124v10h134z
M339.002 391.003c0 -16 -3.66699 -27.667 -11 -35s-19 -11 -35 -11h-202c-16 0 -27.667 3.66699 -35 11s-11 19 -11 35v203c0 16.667 3.66699 28.5 11 35.5s19 10.5 35 10.5h202c16 0 27.667 -3.5 35 -10.5s11 -18.833 11 -35.5v-203zM293.002 355.003
c12.667 0 21.834 2.83301 27.501 8.5s8.5 14.834 8.5 27.501v203c0 12.667 -2.83301 21.834 -8.5 27.501s-14.834 8.5 -27.501 8.5h-202c-12.667 0 -21.834 -2.83301 -27.501 -8.5s-8.5 -14.834 -8.5 -27.501v-203c0 -12.667 2.83301 -21.834 8.5 -27.501
s14.834 -8.5 27.501 -8.5h202zM187.002 445.003v95h10v-95h-10z" />
    <glyph glyph-name="less" unicode="&#x3c;" horiz-adv-x="714" 
d="M634 90c0 -17.333 -3.83398 -29.1699 -11.501 -35.5029s-19.834 -8.16602 -36.501 -5.49902h-1l-381 109c-44 12.667 -77.333 30.334 -100 53.001s-34 60 -34 112v72c0 52 11.333 89.333 34 112s56 40.334 100 53.001l382 109
c16.667 2.66699 28.834 0.833984 36.501 -5.49902s11.5 -18.166 11.5 -35.499v-132c0 -16 -3.5 -27.833 -10.5 -35.5s-18.167 -12.834 -33.5 -15.501h1l-288 -77c-3.33301 -0.666992 -5.66602 -1.66699 -6.99902 -3s-2 -3.33301 -2 -6s0.666992 -4.66699 2 -6
s4 -2.33301 8 -3l287 -77h-1c15.333 -2.66699 26.5 -7.83398 33.5 -15.501s10.5 -19.5 10.5 -35.5v-132zM587.999 58.9961c12.667 -2.66699 21.834 -1.33203 27.501 4.00098s8.5 14.333 8.5 27v132c0 12.667 -2.83301 22.167 -8.5 28.5s-14.834 10.5 -27.501 12.5l-287 77
c-6.66699 1.33301 -11.167 3.33301 -13.5 6s-3.5 7 -3.5 13s1.16699 10.333 3.5 13s6.83301 4.66699 13.5 6l287 77c12.667 2 21.834 6.16699 27.501 12.5s8.5 15.833 8.5 28.5v132c0 12.667 -2.83301 21.667 -8.5 27s-14.834 6.66602 -27.501 3.99902l-381 -109
c-41.333 -12 -72.833 -28.5 -94.5 -49.5s-32.5 -56.167 -32.5 -105.5v-72c0 -49.333 10.833 -84.5 32.5 -105.5s53.167 -37.5 94.5 -49.5zM533.999 175.998v-10l-300 86c-16.667 4.66699 -30.5 12.167 -41.5 22.5s-16.5 26.5 -16.5 48.5v72c0 22 5.5 37.667 16.5 47
s24.833 16.333 41.5 21l300 86v-10l-298 -86c-14 -4 -25.833 -10 -35.5 -18s-14.5 -21.333 -14.5 -40v-72c0 -18.667 4.83301 -32.5 14.5 -41.5s21.5 -15.5 35.5 -19.5z" />
    <glyph glyph-name="equal" unicode="=" horiz-adv-x="734" 
d="M628 407h-522c-16 0 -27.667 3.5 -35 10.5s-11 18.833 -11 35.5v114c0 16 3.66699 27.667 11 35s19 11 35 11h522c16 0 27.667 -3.5 35 -10.5s11 -18.833 11 -35.5v-114c0 -16.667 -3.66699 -28.5 -11 -35.5s-19 -10.5 -35 -10.5zM106 417h522
c12.667 0 21.834 2.83301 27.501 8.5s8.5 14.834 8.5 27.501v114c0 12.667 -2.83301 21.834 -8.5 27.501s-14.834 8.5 -27.501 8.5h-522c-12.667 0 -21.834 -2.83301 -27.501 -8.5s-8.5 -14.834 -8.5 -27.501v-114c0 -12.667 2.83301 -21.834 8.5 -27.501
s14.834 -8.5 27.501 -8.5zM160 505v10h414v-10h-414zM628 107h-522c-16 0 -27.667 3.5 -35 10.5s-11 18.833 -11 35.5v114c0 16 3.66699 27.667 11 35s19 11 35 11h522c16 0 27.667 -3.5 35 -10.5s11 -18.833 11 -35.5v-114c0 -16.667 -3.66699 -28.5 -11 -35.5
s-19 -10.5 -35 -10.5zM106 117h522c12.667 0 21.834 2.83301 27.501 8.5s8.5 14.834 8.5 27.501v114c0 12.667 -2.83301 21.834 -8.5 27.501s-14.834 8.5 -27.501 8.5h-522c-12.667 0 -21.834 -2.83301 -27.501 -8.5s-8.5 -14.834 -8.5 -27.501v-114
c0 -12.667 2.83301 -21.834 8.5 -27.501s14.834 -8.5 27.501 -8.5zM160 205v10h414v-10h-414z" />
    <glyph glyph-name="greater" unicode="&#x3e;" horiz-adv-x="714" 
d="M128 49c-16.667 -2.66699 -28.832 -0.830078 -36.499 5.50293s-11.5 18.166 -11.5 35.499v132c0 16 3.5 27.833 10.5 35.5s18.167 12.834 33.5 15.501h-1l288 77c3.33301 0.666992 5.66602 1.66699 6.99902 3s2 3.33301 2 6s-0.666992 4.66699 -2 6s-4 2.33301 -8 3
l-287 77h1c-15.333 2.66699 -26.5 7.83398 -33.5 15.501s-10.5 19.5 -10.5 35.5v132c0 17.333 4 29.166 12 35.499s20.333 8.16602 37 5.49902l381 -109c44 -12.667 77.333 -30.334 100 -53.001s34 -60 34 -112v-72c0 -52 -11.333 -89.333 -34 -112
s-56 -40.334 -100 -53.001zM507.002 168.004c41.333 12 72.833 28.498 94.5 49.498s32.5 56.167 32.5 105.5v72c0 49.333 -10.833 84.5 -32.5 105.5s-53.167 37.5 -94.5 49.5l-381 109c-12.667 2.66699 -21.834 1.33398 -27.501 -3.99902s-8.5 -14.333 -8.5 -27v-132
c0 -12.667 2.83301 -22.167 8.5 -28.5s14.834 -10.5 27.501 -12.5l287 -77c6.66699 -1.33301 11.167 -3.33301 13.5 -6s3.5 -7 3.5 -13s-1.16699 -10.333 -3.5 -13s-6.83301 -4.66699 -13.5 -6l-287 -77c-12.667 -2 -21.834 -6.16699 -27.501 -12.5s-8.5 -15.833 -8.5 -28.5
v-132c0 -12.667 2.83301 -21.667 8.5 -27s14.834 -6.66602 27.501 -3.99902zM480.002 252.002l-300 -86v10l298 86c14 4 25.833 10.5 35.5 19.5s14.5 22.833 14.5 41.5v72c0 18.667 -4.83301 32 -14.5 40s-21.5 14 -35.5 18l-298 86v10l300 -86
c16.667 -4.66699 30.5 -11.667 41.5 -21s16.5 -25 16.5 -47v-72c0 -22 -5.5 -38.167 -16.5 -48.5s-24.833 -17.833 -41.5 -22.5z" />
    <glyph glyph-name="question" unicode="?" horiz-adv-x="656" 
d="M186 226c-16 -2 -27.667 0 -35 6s-12.333 17 -15 33l-21 132c-2.66699 16.667 -0.333984 29.167 6.99902 37.5s19 13.5 35 15.5l199 28c6.66699 0.666992 11.334 2.66699 14.001 6s4 8.33301 4 15c0 6 -1.5 10.5 -4.5 13.5s-7.16699 4.5 -12.5 4.5h-276
c-16 0 -27.667 3.5 -35 10.5s-11 18.833 -11 35.5v121c0 16 3.66699 27.667 11 35s19 11 35 11h323c68 0 121.167 -16 159.5 -48s57.5 -78 57.5 -138v-105c0 -58.667 -14.833 -101 -44.5 -127s-69.5 -42.333 -119.5 -49zM456 273c47.333 6.66699 85 22.0049 113 46.0049
s42 64 42 120v105c0 56.667 -18.333 100.167 -55 130.5s-87.334 45.5 -152.001 45.5h-323c-12.667 0 -21.834 -2.83301 -27.501 -8.5s-8.5 -14.834 -8.5 -27.501v-121c0 -12.667 2.83301 -21.834 8.5 -27.501s14.834 -8.5 27.501 -8.5h276
c8.66699 0 15.334 -2.33301 20.001 -7s7 -11.667 7 -21c0 -10 -2 -17.333 -6 -22s-11 -7.66699 -21 -9l-199 -28c-12.667 -1.33301 -21.834 -5.33301 -27.501 -12s-7.5 -16.334 -5.5 -29.001l21 -132c2 -12.667 5.83301 -21.334 11.5 -26.001
s14.834 -6.33398 27.501 -5.00098zM225 340.005l-2 11l216 29c12.667 2 24 5.5 34 10.5s15 16.167 15 33.5v113c0 32.667 -8.83301 54.334 -26.5 65.001s-36.834 16 -57.501 16h-269v10h269c22.667 0 44 -6.16699 64 -18.5s30 -36.5 30 -72.5v-113
c0 -20.667 -5.66699 -34.334 -17 -41.001s-24.666 -11 -39.999 -13zM390 36.0049c0 -16 -3.66699 -27.667 -11 -35s-19 -11 -35 -11h-183c-16.667 0 -28.5 3.66699 -35.5 11s-10.5 19 -10.5 35v131c0 16.667 3.5 28.5 10.5 35.5s18.833 10.5 35.5 10.5h183
c16 0 27.667 -3.5 35 -10.5s11 -18.833 11 -35.5v-131zM344 0.00488281c12.667 0 21.834 2.83301 27.501 8.5s8.5 14.834 8.5 27.501v131c0 12.667 -2.83301 21.834 -8.5 27.501s-14.834 8.5 -27.501 8.5h-183c-12.667 0 -21.834 -2.83301 -27.501 -8.5
s-8.5 -14.834 -8.5 -27.501v-131c0 -12.667 2.83301 -21.834 8.5 -27.501s14.834 -8.5 27.501 -8.5h183zM248 80.0049v43h10v-43h-10z" />
    <glyph glyph-name="at" unicode="@" horiz-adv-x="867" 
d="M434 -101c-77.333 0 -141.001 6.33887 -191.001 19.0059s-89.333 30.167 -118 52.5s-48.334 49.166 -59.001 80.499s-16 65.666 -16 102.999v410c0 37.333 5.33301 71.833 16 103.5s30.334 58.834 59.001 81.501s68 40.334 118 53.001s113.667 19 191 19
c78 0 142 -6.33301 192 -19s89 -30.334 117 -53.001s47.333 -49.834 58 -81.501s16 -66.167 16 -103.5v-260c0 -31.333 -3 -60.333 -9 -87s-17.333 -49.334 -34 -68.001s-40.334 -33.167 -71.001 -43.5s-70.667 -15.5 -120 -15.5h-189c-72 0 -121 14.5 -147 43.5
s-39 66.5 -39 112.5v193c0 46 13 83.667 39 113s75 44 147 44h225c12.667 0 21.834 -2.83301 27.501 -8.5s8.5 -14.834 8.5 -27.501v-338c18.667 2.66699 30.334 11.5 35.001 26.5s7 32.833 7 53.5v266c0 20.667 -4.16699 39.5 -12.5 56.5s-22.5 31.5 -42.5 43.5
s-47 21.167 -81 27.5s-76.333 9.5 -127 9.5s-93.167 -3.16699 -127.5 -9.5s-61.5 -15.5 -81.5 -27.5s-34.167 -26.5 -42.5 -43.5s-12.5 -35.833 -12.5 -56.5v-418c0 -20.667 4.16699 -39.334 12.5 -56.001s22.5 -30.834 42.5 -42.501s47.167 -20.667 81.5 -27
s76.833 -9.5 127.5 -9.5h190c16 0 27.333 -3.33301 34 -10s10 -18 10 -34v-28c0 -16 -3.33301 -27.333 -10 -34s-18 -10 -34 -10h-190zM623.999 -90.9941c12.667 0 21.5029 2.49902 26.5029 7.49902s7.5 13.833 7.5 26.5v28c0 12.667 -2.5 21.5 -7.5 26.5
s-13.833 7.5 -26.5 7.5h-190c-54.667 0 -99.834 3.5 -135.501 10.5s-63.667 16.833 -84 29.5s-34.5 28 -42.5 46s-12 37.667 -12 59v418c0 21.333 4 41.166 12 59.499s22.167 33.833 42.5 46.5s48.333 22.667 84 30s80.834 11 135.501 11s99.834 -3.66699 135.501 -11
s63.5 -17.333 83.5 -30s34 -28.167 42 -46.5s12 -38.166 12 -59.499v-266c0 -26.667 -3.83301 -48.5 -11.5 -65.5s-24.5 -25.5 -50.5 -25.5v349c0 8.66699 -2.16699 15.167 -6.5 19.5s-10.833 6.5 -19.5 6.5h-225c-67.333 0 -113.5 -13.5 -138.5 -40.5
s-37.5 -62.5 -37.5 -106.5v-193c0 -43.333 12.5 -78.5 37.5 -105.5s71.167 -40.5 138.5 -40.5h189c46.667 0 84.667 5 114 15s52.166 23.833 68.499 41.5s27.333 39 33 64s8.5 52.833 8.5 83.5v260c0 36.667 -5.33301 70.167 -16 100.5s-29.834 56.333 -57.501 78
s-65.834 38.5 -114.501 50.5s-110.334 18 -185.001 18s-136.334 -6 -185.001 -18s-86.834 -28.833 -114.501 -50.5s-47 -47.667 -58 -78s-16.5 -63.833 -16.5 -100.5v-410c0 -36 5.5 -69.167 16.5 -99.5s30.333 -56.166 58 -77.499s65.834 -38 114.501 -50
s110.334 -18 185.001 -18h190zM434.002 -49.9951c-72.667 0 -130.834 5.49902 -174.501 16.499s-76.834 25.833 -99.501 44.5s-37.5 40 -44.5 64s-10.5 49 -10.5 75v418c0 26 3.5 51.167 10.5 75.5s21.833 45.666 44.5 63.999s55.834 33 99.501 44
s101.834 16.5 174.501 16.5s130.834 -5.5 174.501 -16.5s76.667 -25.667 99 -44s37 -39.666 44 -63.999s10.5 -49.5 10.5 -75.5v-266c0 -50 -9 -86.167 -27 -108.5s-48 -33.5 -90 -33.5h-262c-32.667 0 -55.667 7.83301 -69 23.5s-20 41.5 -20 77.5v161
c0 13.333 0.666992 26.333 2 39s6.16602 23.834 14.499 33.501s21.333 17.5 39 23.5s42.834 9 75.501 9h144v-357h76c38.667 0 66.167 10.5 82.5 31.5s24.5 54.5 24.5 100.5v266c0 25.333 -3.5 49.5 -10.5 72.5s-21.667 43.167 -44 60.5s-54.5 31.166 -96.5 41.499
s-97.667 15.5 -167 15.5s-125 -5.16699 -167 -15.5s-74.167 -24.166 -96.5 -41.499s-37.166 -37.5 -44.499 -60.5s-11 -47.167 -11 -72.5v-418c0 -24.667 3.5 -48.5 10.5 -71.5s21.667 -43.333 44 -61s54.666 -31.667 96.999 -42s98.166 -15.5 167.499 -15.5h174v-10h-174z
M383.002 170.004l176 0.000976562v347h-134c-29.333 0 -52.166 -2.66699 -68.499 -8s-28.333 -12.333 -36 -21s-12.334 -18.834 -14.001 -30.501s-2.5 -23.5 -2.5 -35.5v-161c0 -32 5.83301 -55.167 17.5 -69.5s32.167 -21.5 61.5 -21.5zM415.002 237.005
c-13.333 0 -22.333 3.16602 -27 9.49902s-7 14.5 -7 24.5v151c0 8.66699 2.66699 16.834 8 24.501s17.333 11.5 36 11.5h57v-221h-67zM415.002 247.004l57.001 0.000976562v201h-47c-13.333 0 -22.333 -2.66699 -27 -8s-7 -11.333 -7 -18v-151
c0 -6.66699 1.66699 -12.334 5 -17.001s9.66602 -7 18.999 -7z" />
    <glyph glyph-name="A" unicode="A" horiz-adv-x="730" 
d="M170 303v-30.999h390v31c0 18 -1.5 34.667 -4.5 50s-6.83301 29.666 -11.5 42.999l-69 163c-7.33301 17.333 -15 31.833 -23 43.5s-21.333 17.5 -40 17.5h-98c-20 0 -34 -5.83301 -42 -17.5s-15.333 -25.834 -22 -42.501l-64 -164
c-4.66699 -13.333 -8.5 -27.666 -11.5 -42.999s-4.5 -32 -4.5 -50zM330 510.001c2.66699 6 5.5 10.333 8.5 13s6.5 4 10.5 4h25c4 0 7.5 -1.33301 10.5 -4s5.83301 -7 8.5 -13l47 -152h-157zM383 507.001l0.998047 -1c-1.33301 2.66699 -2.66602 5.16699 -3.99902 7.5
s-3.33301 3.5 -6 3.5h-25c-2.66699 0 -4.66699 -1.16699 -6 -3.5s-2.66602 -4.83301 -3.99902 -7.5l1 1l-43 -139h129zM559.998 90.001l0.000976562 171.999h-390v-172h-10v213c0 18.667 1.5 35.834 4.5 51.501s7.16699 30.834 12.5 45.501l64 164
c7.33301 18.667 15.666 34.334 24.999 47.001s25.333 19 48 19h98c22 0 37.5 -6.33301 46.5 -19s17.5 -28.667 25.5 -48l69 -163c5.33301 -14.667 9.5 -29.834 12.5 -45.501s4.5 -32.834 4.5 -51.501v-213h-10zM272.999 36l-0.00488281 140h177v-140
c0 -12.667 3.16699 -21.834 9.5 -27.501s16.166 -8.5 29.499 -8.5h151c12.667 0 21.834 2.83301 27.501 8.5s8.5 14.834 8.5 27.501v264c0 20 -3.16699 43 -9.5 69s-16.166 56.333 -29.499 91l-87 227c-4 11.333 -10.167 19.666 -18.5 24.999s-18.833 8 -31.5 8h-269
c-13.333 0 -24.166 -2.66699 -32.499 -8s-14.5 -13.666 -18.5 -24.999l-87 -227c-13.333 -34.667 -23.166 -65 -29.499 -91s-9.5 -49 -9.5 -69v-264c0 -12.667 2.83301 -21.834 8.5 -27.501s14.834 -8.5 27.501 -8.5h147c12.667 0 21.834 2.83301 27.501 8.5
s8.5 14.834 8.5 27.501zM89.9941 -10c-16 0 -27.6689 3.66602 -35.002 10.999s-11 19 -11 35v264c0 20.667 3.16699 44.167 9.5 70.5s16.5 57.5 30.5 93.5l87 226c4.66699 14 11.834 24.167 21.501 30.5s22.5 9.5 38.5 9.5h269c15.333 0 27.833 -3.16699 37.5 -9.5
s16.834 -16.166 21.501 -29.499l87 -227c14 -36 24.167 -67.167 30.5 -93.5s9.5 -49.833 9.5 -70.5v-264c0 -16 -3.66699 -27.667 -11 -35s-19 -11 -35 -11h-151c-16.667 0 -29 3.83301 -37 11.5s-12 19.167 -12 34.5v130h-157v-130c0 -16 -3.66699 -27.667 -11 -35
s-19 -11 -35 -11h-147z" />
    <glyph glyph-name="B" unicode="B" horiz-adv-x="725" 
d="M105 -10c-16 0 -27.667 3.66895 -35 11.002s-11 19 -11 35v648c0 16 3.66699 27.667 11 35s19 11 35 11h319c69.333 0 120.333 -13.5 153 -40.5s49 -67.833 49 -122.5v-48c0 -24 -3.33301 -44.333 -10 -61s-16.667 -30.334 -30 -41.001c36 -8.66699 62.833 -26 80.5 -52
s26.5 -62.333 26.5 -109v-92c0 -58.667 -16.5 -102.334 -49.5 -131.001s-84.5 -43 -154.5 -43h-384zM489 0.00195312c66 0 114.833 13.334 146.5 40.001s47.5 68 47.5 124v92c0 48.667 -10.333 85.667 -31 111s-52.334 40 -95.001 44c20 8.66699 34.833 21.834 44.5 39.501
s14.5 40.5 14.5 68.5v48c0 52 -15.667 90.5 -47 115.5s-79.666 37.5 -144.999 37.5h-319c-12.667 0 -21.834 -2.83301 -27.501 -8.5s-8.5 -14.834 -8.5 -27.501v-648c0 -12.667 2.83301 -21.834 8.5 -27.501s14.834 -8.5 27.501 -8.5h384zM449 90.0029l-268.995 0.00292969
v540h203c27.333 0 49.666 -2.83301 66.999 -8.5s30.666 -13.334 39.999 -23.001s15.666 -20.834 18.999 -33.501s5 -26.334 5 -41.001v-64c0 -20 -3.5 -38.333 -10.5 -55s-24.833 -28.667 -53.5 -36c27.333 0 49.666 -2.83301 66.999 -8.5s30.666 -13.667 39.999 -24
s15.5 -22.5 18.5 -36.5s4.5 -29.333 4.5 -46v-64c0 -14.667 -1.66699 -28.167 -5 -40.5s-9.5 -22.833 -18.5 -31.5s-22.167 -15.5 -39.5 -20.5s-40 -7.5 -68 -7.5zM383.005 620.006l-192.999 -0.000976562v-251h193c27.333 0 49 2.5 65 7.5s28.167 11.667 36.5 20
s13.666 18 15.999 29s3.5 22.5 3.5 34.5v64c0 26.667 -7.66699 49.334 -23 68.001s-48 28 -98 28zM294.006 550.005h85c12.667 0 22.167 -3.33301 28.5 -10s9.5 -16.667 9.5 -30v-28c0 -13.333 -3.16699 -23.333 -9.5 -30s-15.833 -10 -28.5 -10h-85v108zM379.006 540.005
h-75v-88h75c10 0 17.167 2.5 21.5 7.5s6.5 12.5 6.5 22.5v28c0 10 -2.16699 17.5 -6.5 22.5s-11.5 7.5 -21.5 7.5zM450.006 359.005l-260 0.000976562v-259h259c50 0 82.667 8.16699 98 24.5s23 38.166 23 65.499v64c0 30 -7.5 55 -22.5 75s-47.5 30 -97.5 30z
M294.006 288.006l130 -0.000976562c12.667 0 22.167 -3.16699 28.5 -9.5s9.5 -16.166 9.5 -29.499v-39c0 -13.333 -3.16699 -23.333 -9.5 -30s-15.833 -10 -28.5 -10h-130v118zM424.006 278.005h-120v-98h120c10 0 17.167 2.5 21.5 7.5s6.5 12.5 6.5 22.5v39
c0 10 -2.33301 17.333 -7 22s-11.667 7 -21 7z" />
    <glyph glyph-name="C" unicode="C" horiz-adv-x="628" 
d="M594 36c0 -16 -3.66699 -27.667 -11 -35s-19 -11 -35 -11h-244c-87.333 0 -151.833 17.667 -193.5 53s-62.5 89 -62.5 161v311c0 72.667 20.833 126.667 62.5 162s106.167 53 193.5 53h244c16 0 27.667 -3.66699 35 -11s11 -19 11 -35v-121
c0 -16 -3.66699 -27.667 -11 -35s-19 -11 -35 -11h-201c-16.667 0 -29.334 -3.16699 -38.001 -9.5s-13 -16.5 -13 -30.5v-238c0 -14 4.33301 -23.833 13 -29.5s21.334 -8.5 38.001 -8.5h201c16 0 27.667 -3.66699 35 -11s11 -19 11 -35v-119zM548 0
c12.667 0 21.834 2.82715 27.501 8.49414s8.5 14.834 8.5 27.501v119c0 12.667 -2.83301 21.834 -8.5 27.501s-14.834 8.5 -27.501 8.5h-201c-20.667 0 -36 3.83301 -46 11.5s-15 19.834 -15 36.501v238c0 16.667 5 29.167 15 37.5s25.333 12.5 46 12.5h201
c12.667 0 21.834 2.83301 27.501 8.5s8.5 14.834 8.5 27.501v121c0 12.667 -2.83301 21.834 -8.5 27.501s-14.834 8.5 -27.501 8.5h-244c-83.333 0 -145.166 -16.833 -185.499 -50.5s-60.5 -85.167 -60.5 -154.5v-311c0 -69.333 20.167 -120.666 60.5 -153.999
s102.166 -50 185.499 -50h244zM493 99.9941l0.000976562 -10h-167c-64.667 0 -107.5 10 -128.5 30s-31.5 53 -31.5 99v280c0 47.333 10.667 81 32 101s64 30 128 30h167v-10h-167c-58.667 0 -98.334 -9.16699 -119.001 -27.5s-31 -49.5 -31 -93.5v-280
c0 -43.333 10 -74 30 -92s60 -27 120 -27h167z" />
    <glyph glyph-name="D" unicode="D" horiz-adv-x="746" 
d="M698 204c0 -72 -20.833 -125.667 -62.5 -161s-106.167 -53 -193.5 -53h-337c-16 0 -27.667 3.66699 -35 11s-11 19 -11 35v648c0 16 3.66699 27.667 11 35s19 11 35 11h337c87.333 0 151.833 -17.667 193.5 -53s62.5 -89 62.5 -161v-312zM442 0
c83.333 0 145.166 16.6709 185.499 50.0039s60.5 84.666 60.5 153.999v312c0 69.333 -20.167 120.666 -60.5 153.999s-102.166 50 -185.499 50h-337c-12.667 0 -21.834 -2.83301 -27.501 -8.5s-8.5 -14.834 -8.5 -27.501v-648c0 -12.667 2.83301 -21.834 8.5 -27.501
s14.834 -8.5 27.501 -8.5h337zM178 90.0039l-0.000976562 539.999h242c34 0 61.5 -3.66699 82.5 -11s37.167 -17.166 48.5 -29.499s19 -27 23 -44s6 -35.167 6 -54.5v-265c0 -19.333 -1.83301 -37.333 -5.5 -54s-11.167 -31 -22.5 -43s-27.666 -21.5 -48.999 -28.5
s-49 -10.5 -83 -10.5h-242zM419.999 620.003h-232.001v-520h232c32 0 57.833 3.16699 77.5 9.5s34.834 15 45.501 26s17.834 24.333 21.501 40s5.5 32.5 5.5 50.5v265c0 18 -2 35 -6 51s-11.333 29.667 -22 41s-25.834 20.333 -45.501 27s-45.167 10 -76.5 10z
M295.998 529.003l119 0.000976562c16 0 27.833 -3.83301 35.5 -11.5s11.5 -19.834 11.5 -36.501v-243c0 -16.667 -3.83301 -29 -11.5 -37s-19.5 -12 -35.5 -12h-119v340zM414.998 519.004l-109 0.000976562v-320h109c12.667 0 22 3.16699 28 9.5s9 16.166 9 29.499v243
c0 12.667 -3 22.167 -9 28.5s-15.333 9.5 -28 9.5z" />
    <glyph glyph-name="E" unicode="E" horiz-adv-x="654" 
d="M105 -10c-16 0 -27.667 3.66699 -35 11s-11 19 -11 35v648c0 16 3.66699 27.667 11 35s19 11 35 11h464c16 0 27.667 -3.66699 35 -11s11 -19 11 -35v-117c0 -16 -3.66699 -27.667 -11 -35s-19 -11 -35 -11h-266v-57h185c16 0 27.667 -3.66699 35 -11s11 -19 11 -35v-107
c0 -16 -3.66699 -27.667 -11 -35s-19 -11 -35 -11h-185v-66h266c16 0 27.667 -3.66699 35 -11s11 -19 11 -35v-117c0 -16 -3.66699 -27.667 -11 -35s-19 -11 -35 -11h-464zM569 0c12.667 0 21.834 2.8291 27.501 8.49609s8.5 14.834 8.5 27.501v117
c0 12.667 -2.83301 21.834 -8.5 27.501s-14.834 8.5 -27.501 8.5h-276v86h195c12.667 0 21.834 2.83301 27.501 8.5s8.5 14.834 8.5 27.501v107c0 12.667 -2.83301 21.834 -8.5 27.501s-14.834 8.5 -27.501 8.5h-195v77h276c12.667 0 21.834 2.83301 27.501 8.5
s8.5 14.834 8.5 27.501v117c0 12.667 -2.83301 21.834 -8.5 27.501s-14.834 8.5 -27.501 8.5h-464c-12.667 0 -21.834 -2.83301 -27.501 -8.5s-8.5 -14.834 -8.5 -27.501v-648c0 -12.667 2.83301 -21.834 8.5 -27.501s14.834 -8.5 27.501 -8.5h464zM515 99.9961v-10h-337
v540h337v-10h-327v-251h246v-10h-246v-259h327z" />
    <glyph glyph-name="F" unicode="F" horiz-adv-x="618" 
d="M105 -10c-16 0 -27.667 3.66699 -35 11s-11 19 -11 35v648c0 16 3.66699 27.667 11 35s19 11 35 11h446c16 0 27.667 -3.66699 35 -11s11 -19 11 -35v-119c0 -16 -3.66699 -27.667 -11 -35s-19 -11 -35 -11h-245v-84h164c16 0 27.667 -3.66699 35 -11s11 -19 11 -35v-120
c0 -16 -3.66699 -27.667 -11 -35s-19 -11 -35 -11h-164v-187c0 -16 -3.66699 -27.667 -11 -35s-19 -11 -35 -11h-155zM260 0c12.667 0 21.833 2.83008 27.5 8.49707s8.5 14.834 8.5 27.501v197h174c12.667 0 21.834 2.83301 27.501 8.5s8.5 14.834 8.5 27.501v120
c0 12.667 -2.83301 21.834 -8.5 27.501s-14.834 8.5 -27.501 8.5h-174v104h255c12.667 0 21.834 2.83301 27.501 8.5s8.5 14.834 8.5 27.501v119c0 12.667 -2.83301 21.834 -8.5 27.501s-14.834 8.5 -27.501 8.5h-446c-12.667 0 -21.834 -2.83301 -27.501 -8.5
s-8.5 -14.834 -8.5 -27.501v-648c0 -12.667 2.83301 -21.834 8.5 -27.501s14.834 -8.5 27.501 -8.5h155zM177.999 89.9971v540h319v-10h-309v-286h228v-10h-228v-234h-10z" />
    <glyph glyph-name="G" unicode="G" horiz-adv-x="708" 
d="M304 -10c-87.333 0 -151.833 17.666 -193.5 52.999s-62.5 89 -62.5 161v312c0 72 20.833 125.667 62.5 161s106.167 53 193.5 53h250c16 0 27.667 -3.66699 35 -11s11 -19 11 -35v-121c0 -16 -3.66699 -27.667 -11 -35s-19 -11 -35 -11h-208
c-16.667 0 -29.334 -3.16699 -38.001 -9.5s-13 -16.5 -13 -30.5v-239c0 -13.333 2.83301 -23.166 8.5 -29.499s14.834 -9.5 27.501 -9.5h87v146c0 16 3.66699 27.667 11 35s19 11 35 11h155c16 0 27.667 -3.66699 35 -11s11 -19 11 -35v-309c0 -16 -3.66699 -27.667 -11 -35
s-19 -11 -35 -11h-315zM619 -0.000976562c12.667 0 21.835 2.82812 27.502 8.49512s8.5 14.834 8.5 27.501v309c0 12.667 -2.83301 21.834 -8.5 27.501s-14.834 8.5 -27.501 8.5h-155c-12.667 0 -21.834 -2.83301 -27.501 -8.5s-8.5 -14.834 -8.5 -27.501v-156h-97
c-15.333 0 -26.833 4 -34.5 12s-11.5 20.333 -11.5 37v239c0 16.667 5 29.167 15 37.5s25.333 12.5 46 12.5h208c12.667 0 21.834 2.83301 27.501 8.5s8.5 14.834 8.5 27.501v121c0 12.667 -2.83301 21.834 -8.5 27.501s-14.834 8.5 -27.501 8.5h-250
c-83.333 0 -145.166 -16.667 -185.499 -50s-60.5 -84.666 -60.5 -153.999v-312c0 -69.333 20.167 -120.666 60.5 -153.999s102.166 -50 185.499 -50h315zM347.001 89.9941c-36.667 0 -66.667 2.33496 -90 7.00195s-41.666 12.167 -54.999 22.5s-22.5 23.666 -27.5 39.999
s-7.5 36.166 -7.5 59.499v280c0 47.333 10.667 81 32 101s64 30 128 30h173v-10h-173c-58.667 0 -98.334 -9.16699 -119.001 -27.5s-31 -49.5 -31 -93.5v-280c0 -43.333 11.5 -74 34.5 -92s68.167 -27 135.5 -27h189v191h10v-201h-199z" />
    <glyph glyph-name="H" unicode="H" horiz-adv-x="759" 
d="M177 90v540h10v-265h384v265h10v-540h-10v265h-384v-265h-10zM260 0c12.667 0 21.834 2.83301 27.501 8.5s8.5 14.834 8.5 27.501v222h167v-222c0 -12.667 2.83301 -21.834 8.5 -27.501s14.834 -8.5 27.501 -8.5h155c12.667 -0 21.834 2.83301 27.501 8.5
s8.5 14.834 8.5 27.501v648c0 12.667 -2.83301 21.834 -8.5 27.501s-14.834 8.5 -27.501 8.5h-155c-12.667 0 -21.834 -2.83301 -27.501 -8.5s-8.5 -14.834 -8.5 -27.501v-217h-167v217c0 12.667 -2.83301 21.834 -8.5 27.501s-14.834 8.5 -27.501 8.5h-155
c-12.667 0 -21.834 -2.83301 -27.501 -8.5s-8.5 -14.834 -8.5 -27.501v-648c0 -12.667 2.83301 -21.834 8.5 -27.501s14.834 -8.5 27.501 -8.5h155zM105 -10c-16 0 -27.667 3.66699 -35 11s-11 19 -11 35v648c0 16 3.66699 27.667 11 35s19 11 35 11h155
c16 0 27.667 -3.66699 35 -11s11 -19 11 -35v-207h147v207c0 16 3.66699 27.667 11 35s19 11 35 11h155c16 0 27.667 -3.66699 35 -11s11 -19 11 -35v-648c0 -16 -3.66699 -27.667 -11 -35s-19 -11 -35 -11h-155c-16 0 -27.667 3.66699 -35 11s-11 19 -11 35v212h-147v-212
c0 -16 -3.66699 -27.667 -11 -35s-19 -11 -35 -11h-155z" />
    <glyph glyph-name="I" unicode="I" horiz-adv-x="605" 
d="M89 -10c-16 0 -27.667 3.66699 -35 11s-11 19 -11 35v119c0 16 3.66699 27.667 11 35s19 11 35 11h89v316h-89c-16 0 -27.667 3.66699 -35 11s-11 19 -11 35v121c0 16 3.66699 27.667 11 35s19 11 35 11h426c16 0 27.667 -3.66699 35 -11s11 -19 11 -35v-121
c0 -16 -3.66699 -27.667 -11 -35s-19 -11 -35 -11h-87v-316h87c16 0 27.667 -3.66699 35 -11s11 -19 11 -35v-119c0 -16 -3.66699 -27.667 -11 -35s-19 -11 -35 -11h-426zM89 0h426c12.667 -0 21.834 2.83301 27.501 8.5s8.5 14.834 8.5 27.501v119
c0 12.667 -2.83301 21.834 -8.5 27.501s-14.834 8.5 -27.501 8.5h-97v336h97c12.667 0 21.834 2.83301 27.501 8.5s8.5 14.834 8.5 27.501v121c0 12.667 -2.83301 21.834 -8.5 27.501s-14.834 8.5 -27.501 8.5h-426c-12.667 0 -21.834 -2.83301 -27.501 -8.5
s-8.5 -14.834 -8.5 -27.501v-121c0 -12.667 2.83301 -21.834 8.5 -27.501s14.834 -8.5 27.501 -8.5h99v-336h-99c-12.667 0 -21.834 -2.83301 -27.501 -8.5s-8.5 -14.834 -8.5 -27.501v-119c0 -12.667 2.83301 -21.834 8.5 -27.501s14.834 -8.5 27.501 -8.5zM461 90h-318v10
h155v520h-155v10h318v-10h-153v-520h153v-10z" />
    <glyph glyph-name="J" unicode="J" horiz-adv-x="688" 
d="M634 684l-0.00195312 -495c0 -31.333 -4.16699 -60.166 -12.5 -86.499s-23.666 -48.833 -45.999 -67.5s-53.333 -33.334 -93 -44.001s-90.167 -16 -151.5 -16c-60.667 0 -110.5 5.33301 -149.5 16s-69.667 25.334 -92 44.001s-37.666 41.167 -45.999 67.5
s-12.5 55.166 -12.5 86.499v162c0 16.667 3.66699 28.5 11 35.5s19 10.5 35 10.5h145c16 0 27.667 -3.5 35 -10.5s11 -18.833 11 -35.5v-122c0 -11.333 4 -20.333 12 -27s24.333 -10 49 -10c22.667 0 37.667 3.33301 45 10s11 15.667 11 27v455c0 16 3.66699 27.667 11 35
s19 11 35 11h157c16 0 27.667 -3.66699 35 -11s11 -19 11 -35zM623.998 189l0.00292969 495c0 12.667 -2.83301 21.834 -8.5 27.501s-14.834 8.5 -27.501 8.5h-157c-12.667 0 -21.834 -2.83301 -27.501 -8.5s-8.5 -14.834 -8.5 -27.501v-455
c0 -13.333 -3.83301 -24.5 -11.5 -33.5s-25.834 -13.5 -54.501 -13.5c-30.667 0 -50.167 4.5 -58.5 13.5s-12.5 20.167 -12.5 33.5v122c0 12.667 -2.83301 21.834 -8.5 27.501s-14.834 8.5 -27.501 8.5h-145c-12.667 0 -21.834 -2.83301 -27.501 -8.5
s-8.5 -14.834 -8.5 -27.501v-162c0 -30.667 4.16699 -58.5 12.5 -83.5s23.333 -46.333 45 -64s51.334 -31.5 89.001 -41.5s85.5 -15 143.5 -15c58.667 0 107 5 145 15s67.833 23.833 89.5 41.5s36.834 39 45.501 64s13 52.833 13 83.5zM504.001 630l9.99902 -0.00292969
v-417c0 -39.333 -12.5 -71.666 -37.5 -96.999s-72.833 -38 -143.5 -38c-37.333 0 -68.166 3.33301 -92.499 10s-43.5 15.834 -57.5 27.501s-23.833 25.834 -29.5 42.501s-8.5 35 -8.5 55v79h10v-79c0 -38 12.5 -68.333 37.5 -91s71.833 -34 140.5 -34
c66 0 111 11.5 135 34.5s36 53.167 36 90.5v417z" />
    <glyph glyph-name="K" unicode="K" horiz-adv-x="746" 
d="M188 90h-9.99902v540h10v-266h217l115 266h11l-115 -266h41c40.667 0 71 -7.66699 91 -23s30 -40.333 30 -75v-176h-10v176c0 32 -9.33301 54.667 -28 68s-46.334 20 -83.001 20h-269v-264zM260.001 0c12.667 0 21.8311 2.83203 27.498 8.49902s8.5 14.834 8.5 27.501
v229h132c10.667 0 18.667 -3 24 -9s8 -14.333 8 -25v-195c0 -12.667 2.83301 -21.834 8.5 -27.501s14.834 -8.5 27.501 -8.5h154c12.667 0 21.834 2.83301 27.501 8.5s8.5 14.834 8.5 27.501v282c0 40 -11.167 72.167 -33.5 96.5s-52.166 37.5 -89.499 39.5l102 233
c4.66699 10.667 5 18.834 1 24.501s-11.667 8.5 -23 8.5h-154c-12.667 0 -23 -2.5 -31 -7.5s-14.333 -13.5 -19 -25.5l-103 -233h-40v230c0 12.667 -2.83301 21.834 -8.5 27.501s-14.834 8.5 -27.501 8.5h-155c-12.667 0 -21.834 -2.83301 -27.501 -8.5
s-8.5 -14.834 -8.5 -27.501v-648c0 -12.667 2.83301 -21.834 8.5 -27.501s14.834 -8.5 27.501 -8.5h155zM259.998 -10.001l-154.999 0.000976562c-16 0 -27.667 3.66699 -35 11s-11 19 -11 35v648c0 16 3.66699 27.667 11 35s19 11 35 11h155c16 0 27.667 -3.66699 35 -11
s11 -19 11 -35v-220h24l100 227c6 14 13.5 24 22.5 30s21.167 9 36.5 9h154c16.667 0 27.667 -4.16699 33 -12.5s4.66602 -19.833 -2.00098 -34.5l-96 -220c36 -4.66699 64.667 -20 86 -46s32 -59 32 -99v-282c0 -16 -3.66699 -27.667 -11 -35s-19 -11 -35 -11h-154
c-16 0 -27.667 3.66699 -35 11s-11 19 -11 35v195c0 7.33301 -1.83301 13.166 -5.5 17.499s-9.16699 6.5 -16.5 6.5h-122v-219c0 -16 -3.66699 -27.667 -11 -35s-19 -11 -35 -11z" />
    <glyph glyph-name="L" unicode="L" horiz-adv-x="695" 
d="M105 -10c-16 0 -27.667 3.66699 -35 11s-11 19 -11 35v648c0 16 3.66699 27.667 11 35s19 11 35 11h155c16 0 27.667 -3.66699 35 -11s11 -19 11 -35v-485h117v152c0 16 3.66699 27.667 11 35s19 11 35 11h145c16 0 27.667 -3.66699 35 -11s11 -19 11 -35v-315
c0 -16 -3.66699 -27.667 -11 -35s-19 -11 -35 -11h-509zM614 0c12.667 0 21.8359 2.83301 27.5029 8.5s8.5 14.834 8.5 27.501v315c0 12.667 -2.83301 21.834 -8.5 27.501s-14.834 8.5 -27.501 8.5h-145c-12.667 0 -21.834 -2.83301 -27.501 -8.5s-8.5 -14.834 -8.5 -27.501
v-162h-137v495c0 12.667 -2.83301 21.834 -8.5 27.501s-14.834 8.5 -27.501 8.5h-155c-12.667 0 -21.834 -2.83301 -27.501 -8.5s-8.5 -14.834 -8.5 -27.501v-648c0 -12.667 2.83301 -21.834 8.5 -27.501s14.834 -8.5 27.501 -8.5h509zM178.002 90v540h10v-530h348v197h10
v-207h-368z" />
    <glyph glyph-name="M" unicode="M" horiz-adv-x="849" 
d="M421 385c12 0 20.6719 2.66699 26.0049 8s13.666 16.666 24.999 33.999l122 186c4 6.66699 8.5 11.167 13.5 13.5s10.167 3.5 15.5 3.5h17c9.33301 0 16.166 -2.5 20.499 -7.5s6.5 -12.833 6.5 -23.5v-509h-10v509c0 5.33301 -1.16699 10.166 -3.5 14.499
s-6.83301 6.5 -13.5 6.5h-15c-4.66699 0 -8.66699 -0.666992 -12 -2s-7 -5.33301 -11 -12l-122 -184c-12 -18 -21.167 -30.333 -27.5 -37s-16.833 -10 -31.5 -10s-25.167 3.33301 -31.5 10s-15.5 19 -27.5 37l-122 184c-4 6.66699 -7.83301 10.667 -11.5 12
s-7.83398 2 -12.501 2h-15c-6.66699 0 -11 -2.16699 -13 -6.5s-3 -9.16602 -3 -14.499v-509h-10v509c0 10.667 2.16699 18.5 6.5 23.5s10.833 7.5 19.5 7.5h17c5.33301 0 10.666 -1.16699 15.999 -3.5s10 -6.83301 14 -13.5l122 -186
c11.333 -17.333 19.666 -28.666 24.999 -33.999s14 -8 26 -8zM254.005 0c12.667 0 21.8301 2.83301 27.4971 8.5s8.5 14.834 8.5 27.501v352l59 -109c6 -11.333 13.167 -19.5 21.5 -24.5s18.833 -7.5 31.5 -7.5h40c12.667 0 23.167 2.5 31.5 7.5s15.5 13.167 21.5 24.5
l59 109v-352c0 -12.667 2.83301 -21.834 8.5 -27.501s14.834 -8.5 27.501 -8.5h154c12.667 -0 21.834 2.83301 27.501 8.5s8.5 14.834 8.5 27.501v648c0 12.667 -2.83301 21.834 -8.5 27.501s-14.834 8.5 -27.501 8.5h-162c-10.667 0 -19.5 -2.33301 -26.5 -7
s-13.5 -12.334 -19.5 -23.001l-89 -163c-3.33301 -6 -6.16602 -10.333 -8.49902 -13s-5.5 -4 -9.5 -4h-9c-4 0 -7.16699 1.33301 -9.5 4s-5.16602 7 -8.49902 13l-90 163c-6 10.667 -12.5 18.334 -19.5 23.001s-15.833 7 -26.5 7h-161
c-12.667 0 -21.834 -2.83301 -27.501 -8.5s-8.5 -14.834 -8.5 -27.501v-648c0 -12.667 2.83301 -21.834 8.5 -27.501s14.834 -8.5 27.501 -8.5h149zM254.001 -10h-148.998c-16 0 -27.667 3.66699 -35 11s-11 19 -11 35v648c0 16 3.66699 27.667 11 35s19 11 35 11h161
c12.667 0 23.167 -2.66699 31.5 -8s16.166 -14.333 23.499 -27l90 -163c1.33301 -2.66699 2.5 -5.33398 3.5 -8.00098s2.83301 -4 5.5 -4h9c2.66699 0 4.5 1.33301 5.5 4s2.16699 5.33398 3.5 8.00098l89 163c7.33301 12.667 15.166 21.667 23.499 27s18.833 8 31.5 8h162
c16 0 27.667 -3.66699 35 -11s11 -19 11 -35v-648c0 -16 -3.66699 -27.667 -11 -35s-19 -11 -35 -11h-154c-16.667 0 -28.5 3.66699 -35.5 11s-10.5 19 -10.5 35v312l-40 -74c-6.66699 -12.667 -15 -22 -25 -28s-22.333 -9 -37 -9h-40c-14.667 0 -27 3 -37 9
s-18.333 15.333 -25 28l-40 74v-312c0 -16 -3.66699 -27.667 -11 -35s-19 -11 -35 -11z" />
    <glyph glyph-name="N" unicode="N" horiz-adv-x="753" 
d="M201 622l367.999 -414.001v422h10v-540h-10v103l-378 424c-0.666992 0.666992 -1.5 1.33398 -2.5 2.00098s-1.83301 1 -2.5 1s-1.16699 -0.333008 -1.5 -1s-0.5 -1.33398 -0.5 -2.00098v-527h-10v529c0 4 1.33301 7 4 9s5.33398 3 8.00098 3s5 -0.666992 7 -2
s4.66699 -3.66602 8 -6.99902zM254.999 -0.000976562c12.667 0 21.833 2.83398 27.5 8.50098s8.5 14.834 8.5 27.501v330l171 -207v-123c0 -12.667 2.83301 -21.834 8.5 -27.501s14.834 -8.5 27.501 -8.5h150c12.667 -0 21.834 2.83301 27.501 8.5s8.5 14.834 8.5 27.501
v648c0 12.667 -2.83301 21.834 -8.5 27.501s-14.834 8.5 -27.501 8.5h-150c-12.667 0 -21.834 -2.83301 -27.501 -8.5s-8.5 -14.834 -8.5 -27.501v-213l-194 222c-8.66699 10 -17.5 17 -26.5 21s-19.833 6 -32.5 6h-104c-12.667 0 -21.834 -2.83301 -27.501 -8.5
s-8.5 -14.834 -8.5 -27.501v-648c0 -12.667 2.83301 -21.834 8.5 -27.501s14.834 -8.5 27.501 -8.5h150zM254.998 -10l-150 0.000976562c-16 0 -27.667 3.66699 -35 11s-11 19 -11 35v648c0 16 3.66699 27.667 11 35s19 11 35 11h104c14.667 0 27 -2.33301 37 -7
s20 -12.334 30 -23.001l176 -201v185c0 16 3.66699 27.667 11 35s19 11 35 11h150c16 0 27.667 -3.66699 35 -11s11 -19 11 -35v-648c0 -16 -3.66699 -27.667 -11 -35s-19 -11 -35 -11h-150c-16 0 -27.667 3.66699 -35 11s-11 19 -11 35v119l-151 183v-302
c0 -16 -3.66699 -27.667 -11 -35s-19 -11 -35 -11z" />
    <glyph glyph-name="O" unicode="O" horiz-adv-x="737" 
d="M689 530v-341c0 -31.333 -4.33301 -60.166 -13 -86.499s-24.834 -48.833 -48.501 -67.5s-56.334 -33.334 -98.001 -44.001s-95.167 -16 -160.5 -16s-118.833 5.33301 -160.5 16s-74.334 25.334 -98.001 44.001s-40 41.167 -49 67.5s-13.5 55.166 -13.5 86.499v341
c0 31.333 4.5 60.166 13.5 86.499s25.333 49 49 68s56.334 33.833 98.001 44.5s95.167 16 160.5 16s118.833 -5.33301 160.5 -16s74.334 -25.5 98.001 -44.5s39.834 -41.667 48.501 -68s13 -55.166 13 -86.499zM679 189v341c0 30.667 -4.5 58.5 -13.5 83.5
s-25 46.5 -48 64.5s-54.667 32 -95 42s-91.5 15 -153.5 15s-113.333 -5 -154 -15s-72.5 -24 -95.5 -42s-39 -39.5 -48 -64.5s-13.5 -52.833 -13.5 -83.5v-341c0 -30.667 4.5 -58.5 13.5 -83.5s25 -46.333 48 -64s54.833 -31.5 95.5 -41.5s92 -15 154 -15s113.167 5 153.5 15
s72 23.833 95 41.5s39 39 48 64s13.5 52.833 13.5 83.5zM570 212c0 -40 -14.333 -72.5 -43 -97.5s-82 -37.5 -160 -37.5s-131 12.5 -159 37.5s-42 57.5 -42 97.5v295c0 40 14 72.5 42 97.5s81 37.5 159 37.5s131.333 -12.5 160 -37.5s43 -57.5 43 -97.5v-295zM176 212
c0 -37.333 13.333 -67.5 40 -90.5s77 -34.5 151 -34.5s124.667 11.5 152 34.5s41 53.167 41 90.5v295c0 37.333 -13.667 67.5 -41 90.5s-78 34.5 -152 34.5s-124.333 -11.5 -151 -34.5s-40 -53.167 -40 -90.5v-295zM285 225v269c0 12.667 5 23.5 15 32.5s33 13.5 69 13.5
s59 -4.5 69 -13.5s15 -19.833 15 -32.5v-269c0 -13.333 -5 -24.5 -15 -33.5s-33 -13.5 -69 -13.5s-59 4.5 -69 13.5s-15 20.167 -15 33.5zM295 494v-269c0 -12 5.16699 -21.167 15.5 -27.5s29.833 -9.5 58.5 -9.5s48.167 3.16699 58.5 9.5s15.5 15.5 15.5 27.5v269
c0 11.333 -5.16699 20.166 -15.5 26.499s-29.833 9.5 -58.5 9.5c-28 0 -47.333 -3.16699 -58 -9.5s-16 -15.166 -16 -26.499z" />
    <glyph glyph-name="P" unicode="P" horiz-adv-x="682" 
d="M105 -10c-16 0 -27.667 3.66699 -35 11s-11 19 -11 35v648c0 16 3.66699 27.667 11 35s19 11 35 11h306c47.333 0 87 -5 119 -15s57.333 -24 76 -42s31.834 -39.667 39.501 -65s11.5 -53 11.5 -83v-128c0 -30 -3.83301 -57.667 -11.5 -83s-20.834 -47 -39.501 -65
s-44 -32 -76 -42s-71.667 -15 -119 -15h-105v-156c0 -16 -3.66699 -27.667 -11 -35s-19 -11 -35 -11h-155zM260 0c12.667 0 21.833 2.83398 27.5 8.50098s8.5 14.834 8.5 27.501v166h115c90.667 0 152.667 18 186 54s50 83 50 141v128c0 58 -16.667 105 -50 141
s-95.333 54 -186 54h-306c-12.667 0 -21.834 -2.83301 -27.501 -8.5s-8.5 -14.834 -8.5 -27.501v-648c0 -12.667 2.83301 -21.834 8.5 -27.501s14.834 -8.5 27.501 -8.5h155zM396.999 287.001h-206v-197h-10v540h216c31.333 0 56.833 -3.5 76.5 -10.5
s34.834 -16.5 45.501 -28.5s18 -26.333 22 -43s6 -34.667 6 -54v-74c0 -19.333 -2 -37.166 -6 -53.499s-11.333 -30.333 -22 -42s-25.834 -20.834 -45.501 -27.501s-45.167 -10 -76.5 -10zM190.999 297.001l206 0.00195312c29.333 0 53.166 3 71.499 9s32.5 14.5 42.5 25.5
s16.833 24 20.5 39s5.5 31.5 5.5 49.5v74c0 18 -1.83301 34.667 -5.5 50s-10.5 28.666 -20.5 39.999s-24.167 20.166 -42.5 26.499s-42.166 9.5 -71.499 9.5h-206v-323zM293.999 533.003h90c19.333 0 32 -5 38 -15s9 -21.333 9 -34v-53c0 -12.667 -3 -24 -9 -34
s-18.667 -15 -38 -15h-90v151zM383.999 523.003h-80v-131h80c15.333 0 25.333 4 30 12s7 17 7 27v53c0 10 -2.33301 19 -7 27s-14.667 12 -30 12z" />
    <glyph glyph-name="Q" unicode="Q" horiz-adv-x="737" 
d="M291 -100c-16 0 -27.667 3.66797 -35 11.001s-11 19 -11 35v46c-38.667 6.66699 -70.834 16.334 -96.501 29.001s-45.834 27.834 -60.501 45.501s-25 37.667 -31 60s-9 46.166 -9 71.499v332c0 31.333 4.5 60.166 13.5 86.499s25.333 49 49 68s56.334 33.833 98.001 44.5
s95.167 16 160.5 16s118.833 -5.33301 160.5 -16s74.334 -25.5 98.001 -44.5s39.834 -41.667 48.501 -68s13 -55.166 13 -86.499v-332c0 -25.333 -3 -49.333 -9 -72s-16.333 -42.834 -31 -60.501s-34.834 -32.834 -60.501 -45.501s-58.167 -22 -97.5 -28v-46
c0 -16 -3.66699 -27.667 -11 -35s-19 -11 -35 -11h-154zM445 -89.999c12.667 0 21.8311 2.83203 27.498 8.49902s8.5 14.834 8.5 27.501v55c39.333 5.33301 71.833 14 97.5 26s45.834 26.333 60.501 43s25 35.834 31 57.501s9 45.167 9 70.5v332
c0 30.667 -4.5 58.5 -13.5 83.5s-25 46.5 -48 64.5s-54.667 32 -95 42s-91.5 15 -153.5 15s-113.333 -5 -154 -15s-72.5 -24 -95.5 -42s-39 -39.5 -48 -64.5s-13.5 -52.833 -13.5 -83.5v-332c0 -50 13.5 -92.5 40.5 -127.5s79.167 -58.167 156.5 -69.5v-55
c0 -12.667 2.83301 -21.834 8.5 -27.501s14.834 -8.5 27.501 -8.5h154zM361.997 0v77c-76 0.666992 -127.667 13.334 -155 38.001s-41 57 -41 97v295c0 40 14 72.5 42 97.5s81 37.5 159 37.5s131.333 -12.5 160 -37.5s43 -57.5 43 -97.5v-295c0 -40 -14 -72.333 -42 -97
s-80 -37.334 -156 -38.001v-77h-10zM175.997 212c0 -37.333 13.333 -67.5 40 -90.5s77 -34.5 151 -34.5s124.667 11.5 152 34.5s41 53.167 41 90.5v295c0 37.333 -13.667 67.5 -41 90.5s-78 34.5 -152 34.5s-124.333 -11.5 -151 -34.5s-40 -53.167 -40 -90.5v-295z
M284.997 220v273c0 12.667 5 23.5 15 32.5s33 13.5 69 13.5s59 -4.5 69 -13.5s15 -19.833 15 -32.5v-273c0 -13.333 -5 -24.5 -15 -33.5s-33 -13.5 -69 -13.5s-59 4.5 -69 13.5s-15 20.167 -15 33.5zM294.997 493v-273c0 -12 5.16699 -21.167 15.5 -27.5
s29.833 -9.5 58.5 -9.5s48.167 3.16699 58.5 9.5s15.5 15.5 15.5 27.5v273c0 11.333 -5.16699 20.166 -15.5 26.499s-29.833 9.5 -58.5 9.5c-28 0 -47.333 -3.16699 -58 -9.5s-16 -15.166 -16 -26.499z" />
    <glyph glyph-name="R" unicode="R" horiz-adv-x="743" 
d="M405 620h-218v-289h218c41.333 0 69 10 83 30s21 48.333 21 85v70c0 30.667 -8.5 55.667 -25.5 75s-43.167 29 -78.5 29zM295 540h75c17.333 0 29 -4.5 35 -13.5s9 -20.167 9 -33.5v-34c0 -13.333 -3 -24.5 -9 -33.5s-17.667 -13.5 -35 -13.5h-75v128zM370 530h-65v-108
h65c14 0 23.167 3.5 27.5 10.5s6.5 15.833 6.5 26.5v34c0 10.667 -2.16699 19.5 -6.5 26.5s-13.5 10.5 -27.5 10.5zM187 90l-10.001 0.00195312v540h228c38.667 0 67.334 -10.833 86.001 -32.5s28 -48.834 28 -81.501v-69c0 -30.667 -4 -55.834 -12 -75.501
s-24 -33.167 -48 -40.5h11c40.667 0 71 -9.16699 91 -27.5s30 -44.833 30 -79.5v-134h-10v134c0 32.667 -9 57.167 -27 73.5s-46 24.5 -84 24.5h-283v-232zM258.999 0.00195312c12.667 0 21.8311 2.83301 27.498 8.5s8.5 14.834 8.5 27.501v196h140
c14 0 23.833 -3.5 29.5 -10.5s8.5 -17.833 8.5 -32.5v-153c0 -12.667 2.83301 -21.834 8.5 -27.501s14.834 -8.5 27.501 -8.5h155c12.667 0 21.834 2.83301 27.501 8.5s8.5 14.834 8.5 27.501v212c0 42 -11.167 75.667 -33.5 101s-51.5 40 -87.5 44
c20.667 8.66699 35.167 22.834 43.5 42.501s12.5 43.5 12.5 71.5v46c0 49.333 -14.167 89.5 -42.5 120.5s-79.833 46.5 -154.5 46.5h-333c-12.667 0 -21.834 -2.83301 -27.501 -8.5s-8.5 -14.834 -8.5 -27.501v-648c0 -12.667 2.83301 -21.834 8.5 -27.501
s14.834 -8.5 27.501 -8.5h154zM258.996 -9.99805l-153.999 -0.00195312c-16 0 -27.667 3.66699 -35 11s-11 19 -11 35v648c0 16 3.66699 27.667 11 35s19 11 35 11h333c79.333 0 133.666 -16.5 162.999 -49.5s44 -75.5 44 -127.5v-46c0 -24.667 -3 -46.167 -9 -64.5
s-16 -33.166 -30 -44.499c31.333 -8.66699 56.5 -26 75.5 -52s28.5 -58.667 28.5 -98v-212c0 -16 -3.66699 -27.667 -11 -35s-19 -11 -35 -11h-155c-16 0 -27.667 3.66699 -35 11s-11 19 -11 35v153c0 10.667 -2 18.834 -6 24.501s-11.333 8.5 -22 8.5h-130v-186
c0 -16 -3.66699 -27.667 -11 -35s-19 -11 -35 -11z" />
    <glyph glyph-name="S" unicode="S" horiz-adv-x="650" 
d="M620 176c0 -60 -19.333 -106 -58 -138s-91.667 -48 -159 -48h-316c-16 0 -27.667 3.66699 -35 11s-11 19 -11 35v117c0 16 3.66699 27.667 11 35s19 11 35 11h269c5.33301 0 9.33301 2 12 6s4 8.33301 4 13c0 7.33301 -1.33301 13 -4 17s-7 6.33301 -13 7l-150 21
c-50 7.33301 -89.833 23.833 -119.5 49.5s-44.5 67.834 -44.5 126.501v105c0 60 19.167 106 57.5 138s91.5 48 159.5 48h280c16 0 27.667 -3.66699 35 -11s11 -19 11 -35v-119c0 -16 -3.66699 -27.667 -11 -35s-19 -11 -35 -11h-233c-5.33301 0 -9.5 -2 -12.5 -6
s-4.5 -8.66699 -4.5 -14c0 -6 1.5 -11 4.5 -15s7.5 -6.33301 13.5 -7l149 -20c50 -7.33301 90 -23.833 120 -49.5s45 -67.834 45 -126.501v-105zM403 0c64 0 114.502 15.165 151.502 45.498s55.5 73.833 55.5 130.5v105c0 56 -14.333 96 -43 120s-66.334 39.333 -113.001 46
l-149 20c-8.66699 0.666992 -15.334 4 -20.001 10s-7 13.333 -7 22s2.33301 15.834 7 21.501s11.334 8.5 20.001 8.5h233c12.667 0 21.834 2.83301 27.501 8.5s8.5 14.834 8.5 27.501v119c0 12.667 -2.83301 21.834 -8.5 27.501s-14.834 8.5 -27.501 8.5h-280
c-64.667 0 -115.334 -15.167 -152.001 -45.5s-55 -73.833 -55 -130.5v-105c0 -56 14.167 -96 42.5 -120s65.833 -39.333 112.5 -46l150 -21c8.66699 -0.666992 15.167 -3.66699 19.5 -9s6.5 -13.666 6.5 -24.999c0 -8 -2.16699 -14.833 -6.5 -20.5s-10.833 -8.5 -19.5 -8.5
h-269c-12.667 0 -21.834 -2.83301 -27.501 -8.5s-8.5 -14.834 -8.5 -27.501v-117c0 -12.667 2.83301 -21.834 8.5 -27.501s14.834 -8.5 27.501 -8.5h316zM484.002 629.998v-10h-222c-28 0 -50.333 -7.66699 -67 -23s-25 -34.666 -25 -57.999v-82
c0 -23.333 4.66699 -39.666 14 -48.999s21.666 -15.333 36.999 -18l211 -43c20 -4 36.5 -12.667 49.5 -26s19.5 -37.333 19.5 -72v-58c0 -29.333 -10 -53.5 -30 -72.5s-47 -28.5 -81 -28.5h-249v10h249c30.667 0 55.167 8.5 73.5 25.5s27.5 38.833 27.5 65.5v58
c0 31.333 -5.5 52.833 -16.5 64.5s-25.833 19.5 -44.5 23.5l-211 43c-17.333 3.33301 -31.5 10.166 -42.5 20.499s-16.5 29.166 -16.5 56.499v82c0 26.667 9.33301 48.5 28 65.5s43.334 25.5 74.001 25.5h222z" />
    <glyph glyph-name="T" unicode="T" horiz-adv-x="656" 
d="M247 -10c-16 0 -27.667 3.66699 -35 11s-11 19 -11 35v481h-137c-16 0 -27.667 3.66699 -35 11s-11 19 -11 35v121c0 16 3.66699 27.667 11 35s19 11 35 11h528c16 0 27.667 -3.66699 35 -11s11 -19 11 -35v-121c0 -16 -3.66699 -27.667 -11 -35s-19 -11 -35 -11h-137
v-481c0 -16 -3.66699 -27.667 -11 -35s-19 -11 -35 -11h-162zM409 0c12.667 0 21.832 2.83301 27.499 8.5s8.5 14.834 8.5 27.501v491h147c12.667 0 21.834 2.83301 27.501 8.5s8.5 14.834 8.5 27.501v121c0 12.667 -2.83301 21.834 -8.5 27.501s-14.834 8.5 -27.501 8.5
h-528c-12.667 0 -21.834 -2.83301 -27.501 -8.5s-8.5 -14.834 -8.5 -27.501v-121c0 -12.667 2.83301 -21.834 8.5 -27.501s14.834 -8.5 27.501 -8.5h147v-491c0 -12.667 2.83301 -21.834 8.5 -27.501s14.834 -8.5 27.501 -8.5h162zM322.998 90v530h-205v10h420v-10h-205
v-530h-10z" />
    <glyph glyph-name="U" unicode="U" horiz-adv-x="746" 
d="M692 684l0.00292969 -495c0 -31.333 -4.5 -60.166 -13.5 -86.499s-25.167 -48.833 -48.5 -67.5s-55.833 -33.334 -97.5 -44.001s-94.834 -16 -159.501 -16s-117.834 5.33301 -159.501 16s-74.167 25.334 -97.5 44.001s-39.5 41.167 -48.5 67.5s-13.5 55.166 -13.5 86.499
v495c0 16 3.66699 27.667 11 35s19 11 35 11h157c16 0 27.667 -3.66699 35 -11s11 -19 11 -35v-456c0 -12 5.16699 -21.167 15.5 -27.5s29.166 -9.5 56.499 -9.5c28 0 47.167 3.16699 57.5 9.5s15.5 15.5 15.5 27.5v456c0 16 3.5 27.667 10.5 35s18.833 11 35.5 11h152
c16 0 27.667 -3.66699 35 -11s11 -19 11 -35zM682.003 189l0.00390625 495c0 12.667 -2.83301 21.834 -8.5 27.501s-14.834 8.5 -27.501 8.5h-152c-12.667 0 -21.834 -2.83301 -27.501 -8.5s-8.5 -14.834 -8.5 -27.501v-456c0 -13.333 -5 -24.5 -15 -33.5
s-32.667 -13.5 -68 -13.5c-34.667 0 -57 4.5 -67 13.5s-15 20.167 -15 33.5v456c0 12.667 -2.83301 21.834 -8.5 27.501s-14.834 8.5 -27.501 8.5h-157c-12.667 0 -21.834 -2.83301 -27.501 -8.5s-8.5 -14.834 -8.5 -27.501v-495c0 -30.667 4.5 -58.5 13.5 -83.5
s25 -46.333 48 -64s54.5 -31.5 94.5 -41.5s91 -15 153 -15s113 5 153 15s71.5 23.833 94.5 41.5s39 39 48 64s13.5 52.833 13.5 83.5zM174.007 630h10v-417c0 -37.333 13.167 -67.5 39.5 -90.5s76.5 -34.5 150.5 -34.5s124.333 11.5 151 34.5s40 53.167 40 90.5v417h10v-417
c0 -40 -14 -72.5 -42 -97.5s-81 -37.5 -159 -37.5s-130.833 12.5 -158.5 37.5s-41.5 57.5 -41.5 97.5v417z" />
    <glyph glyph-name="V" unicode="V" horiz-adv-x="730" 
d="M555 29c-6 -14.667 -13.668 -24.834 -23.001 -30.501s-21.666 -8.5 -36.999 -8.5h-260c-15.333 0 -27.666 2.83301 -36.999 8.5s-17 15.834 -23 30.501l-98 245l-15.5 39.5c-4.33301 11 -7.83301 21.667 -10.5 32s-4.5 21.333 -5.5 33s-1.5 25.5 -1.5 41.5v264
c0 16 3.66699 27.667 11 35s19 11 35 11h159c16 0 28.167 -3.83301 36.5 -11.5s12.5 -19.167 12.5 -34.5v-276c0 -6.66699 0.666992 -13 2 -19s3 -12.333 5 -19l48 -140c0.666992 -3.33301 1.66699 -5.83301 3 -7.5s3.33301 -2.5 6 -2.5h11
c2.66699 0 4.66699 0.833008 6 2.5s2.66602 4.16699 3.99902 7.5l47 141c2 6.66699 3.66699 13 5 19s2 12.333 2 19v275c0 16 3.66699 27.667 11 35s19 11 35 11h157c16.667 0 28.5 -3.66699 35.5 -11s10.5 -19 10.5 -35v-264c0 -16 -0.5 -29.833 -1.5 -41.5
s-2.83301 -22.667 -5.5 -33s-6.16699 -21 -10.5 -32l-15.5 -39.5zM494.999 0c12.667 0 23.1709 2.33301 31.5039 7s14.833 13.334 19.5 26.001l98 245c6 14.667 11 27.5 15 38.5s7.33301 21.5 10 31.5s4.5 20.5 5.5 31.5s1.5 24.5 1.5 40.5v264
c0 12.667 -2.83301 21.834 -8.5 27.501s-14.834 8.5 -27.501 8.5h-157c-12.667 0 -21.834 -2.83301 -27.501 -8.5s-8.5 -14.834 -8.5 -27.501v-275c0 -6.66699 -0.666992 -13.334 -2 -20.001s-3.33301 -13.667 -6 -21l-47 -141c-2 -6.66699 -4.33301 -11.167 -7 -13.5
s-6.66699 -3.5 -12 -3.5h-11c-5.33301 0 -9.33301 1.16699 -12 3.5s-5 6.83301 -7 13.5l-47 140c-2.66699 7.33301 -4.66699 14.333 -6 21s-2 13.334 -2 20.001v276c0 12.667 -3.33301 21.834 -10 27.501s-16.334 8.5 -29.001 8.5h-159
c-12.667 0 -21.834 -2.83301 -27.501 -8.5s-8.5 -14.834 -8.5 -27.501v-264c0 -16 0.5 -29.5 1.5 -40.5s2.83301 -21.5 5.5 -31.5s6 -20.5 10 -31.5s9 -23.833 15 -38.5l98 -245c4.66699 -12.667 11.167 -21.334 19.5 -26.001s18.833 -7 31.5 -7h260zM167.003 630h10v-216
c0 -17.333 1.33301 -33.833 4 -49.5s6.66699 -30.167 12 -43.5l66 -160c6.66699 -17.333 14.167 -31.833 22.5 -43.5s21.833 -17.5 40.5 -17.5h88c18.667 0 32.167 5.83301 40.5 17.5s15.833 26.167 22.5 43.5l66 160c5.33301 13.333 9.33301 27.833 12 43.5
s4 32.167 4 49.5v216h10v-216c0 -18.667 -1.16699 -35.834 -3.5 -51.501s-6.5 -30.834 -12.5 -45.501l-66 -160c-8 -19.333 -17 -35.333 -27 -48s-25.333 -19 -46 -19h-88c-20.667 0 -36 6.33301 -46 19s-19 28.667 -27 48l-66 160c-6 14.667 -10.167 29.834 -12.5 45.501
s-3.5 32.834 -3.5 51.501v216z" />
    <glyph glyph-name="W" unicode="W" horiz-adv-x="831" 
d="M439 345c10.667 0 19.332 -3.16699 25.999 -9.5s14.334 -18.833 23.001 -37.5l82 -184c2.66699 -6.66699 6.66699 -10.667 12 -12s10.333 -2 15 -2h5c5.33301 0 10.333 2.16699 15 6.5s7.33398 9.16602 8.00098 14.499l25 114c2.66699 12.667 4.16699 29 4.5 49
s0.5 37.333 0.5 52v294h10v-295c0 -14.667 -0.166992 -32 -0.5 -52s-1.83301 -36.333 -4.5 -49l-25 -113c-2.66699 -10.667 -6.83398 -18.5 -12.501 -23.5s-12.5 -7.5 -20.5 -7.5h-7c-6 0 -12.333 1.16699 -19 3.5s-11.334 6.83301 -14.001 13.5l-82 186
c-8 18 -14.833 29.5 -20.5 34.5s-12.5 7.5 -20.5 7.5h-45c-8 0 -14.833 -2.5 -20.5 -7.5s-12.5 -16.5 -20.5 -34.5l-82 -186c-2.66699 -6.66699 -7.33398 -11.167 -14.001 -13.5s-13 -3.5 -19 -3.5h-7c-8 0 -14.833 2.5 -20.5 7.5s-9.83398 12.833 -12.501 23.5l-25 113
c-2.66699 12.667 -4.16699 29 -4.5 49s-0.5 37.333 -0.5 52v295h10v-294c0 -14.667 0.166992 -32 0.5 -52s1.83301 -36.333 4.5 -49l25 -114c0.666992 -5.33301 3.33398 -10.166 8.00098 -14.499s9.66699 -6.5 15 -6.5h5c4.66699 0 9.66699 0.666992 15 2
s9.33301 5.33301 12 12l82 184c8.66699 18.667 16.334 31.167 23.001 37.5s15.334 9.5 26.001 9.5h45zM585.998 720c-12.667 0 -21.832 -2.83105 -27.499 -8.49805s-8.5 -14.834 -8.5 -27.501v-368l-58 126c-5.33301 11.333 -12.333 19.333 -21 24s-19.334 7 -32.001 7h-42
c-12.667 0 -23.334 -2.33301 -32.001 -7s-15.667 -12.667 -21 -24l-58 -126v368c0 12.667 -2.83301 21.834 -8.5 27.501s-14.834 8.5 -27.501 8.5h-154c-12.667 0 -21.834 -2.83301 -27.501 -8.5s-8.5 -14.834 -8.5 -27.501v-386c0 -21.333 0.833008 -41.166 2.5 -59.499
s6.83398 -39.833 15.501 -64.5l50 -138c3.33301 -10.667 8.83301 -19.334 16.5 -26.001s16.834 -10 27.501 -10h132c10.667 0 19.667 2.5 27 7.5s12.333 12.5 15 22.5l47 163c2 6.66699 4.5 11.167 7.5 13.5s6.5 3.5 10.5 3.5h9c4 0 7.5 -1.16699 10.5 -3.5
s5.5 -6.83301 7.5 -13.5l46 -163c2.66699 -10.667 8.33398 -18.334 17.001 -23.001s18.334 -7 29.001 -7h133c10.667 0 19.167 3.5 25.5 10.5s11.166 15.5 14.499 25.5l50 136c8.66699 24.667 13.834 46.167 15.501 64.5s2.5 38.166 2.5 59.499v388
c0 12.667 -2.83301 21.834 -8.5 27.501s-14.834 8.5 -27.501 8.5h-149zM304 -9.99805h-132.002c-12.667 0 -23.667 4 -33 12s-16 18.333 -20 31l-50 138c-9.33301 24.667 -14.833 46.5 -16.5 65.5s-2.5 39.5 -2.5 61.5v386c0 16 3.66699 27.667 11 35s19 11 35 11h154
c16 0 27.667 -3.66699 35 -11s11 -19 11 -35v-323l39 85c6.66699 13.333 14.834 22.833 24.501 28.5s22.167 8.5 37.5 8.5h42c15.333 0 27.833 -2.83301 37.5 -8.5s17.834 -15.167 24.501 -28.5l39 -85v323c0 16 3.5 27.667 10.5 35s18.833 11 35.5 11h149
c16 0 27.667 -3.66699 35 -11s11 -19 11 -35v-388c0 -22 -0.833008 -42.5 -2.5 -61.5s-7.16699 -40.833 -16.5 -65.5l-50 -136c-4 -12.667 -10 -23 -18 -31s-18.333 -12 -31 -12h-133c-13.333 0 -25 3 -35 9s-17 15.333 -21 28l-46 163c-0.666992 2.66699 -1.66699 5 -3 7
s-3 3 -5 3h-9c-2 0 -3.66699 -1 -5 -3s-2.33301 -4.33301 -3 -7l-47 -163c-4 -12 -10.5 -21.167 -19.5 -27.5s-19.833 -9.5 -32.5 -9.5z" />
    <glyph glyph-name="X" unicode="X" horiz-adv-x="737" 
d="M177 135l-0.000976562 -45h-10v45c0 14.667 0.5 28.5 1.5 41.5s5.5 24.833 13.5 35.5l120 164l-120 162c-7.33301 10.667 -11.666 22.5 -12.999 35.5s-2 26.833 -2 41.5v15h10v-15c0 -14 0.666992 -27.333 2 -40s5.33301 -23.667 12 -33l120 -162h119l116 162
c6.66699 9.33301 10.667 20.333 12 33s2 26 2 40v15h10v-15c0 -14.667 -0.666992 -28.5 -2 -41.5s-5.66602 -24.833 -12.999 -35.5l-118 -164l118 -162c7.33301 -10.667 11.666 -22.5 12.999 -35.5s2 -26.833 2 -41.5v-45h-10v45c0 14 -0.666992 27.333 -2 40
s-5.33301 23.667 -12 33l-117 162h-120l-118 -162c-6.66699 -8.66699 -10.667 -19.5 -12 -32.5s-2 -26.5 -2 -40.5zM283.999 36l0.000976562 99c0 6.66699 0.333008 13.667 1 21s3.33398 14.333 8.00098 21l45 63c4 6 7.66699 10.333 11 13s7.66602 4 12.999 4h14
c5.33301 0 9.66602 -1.33301 12.999 -4s7 -7 11 -13l44 -63c4.66699 -6.66699 7.33398 -13.667 8.00098 -21s1 -14.333 1 -21v-99c0 -12.667 2.83301 -21.834 8.5 -27.501s14.834 -8.5 27.501 -8.5h152c12.667 0 21.834 2.83301 27.501 8.5s8.5 14.834 8.5 27.501v107
c0 30.667 -2.5 53.667 -7.5 69s-15.167 33.333 -30.5 54l-81 108l81 110c14.667 20.667 24.667 38.667 30 54s8 38.333 8 69v77c0 12.667 -2.83301 21.834 -8.5 27.501s-14.834 8.5 -27.501 8.5h-152c-12.667 0 -21.834 -2.83301 -27.501 -8.5s-8.5 -14.834 -8.5 -27.501
v-69c0 -6.66699 -0.333008 -13.667 -1 -21s-3.33398 -14.333 -8.00098 -21l-45 -63c-4 -5.33301 -7.66699 -9.5 -11 -12.5s-7.66602 -4.5 -12.999 -4.5h-12c-5.33301 0 -9.83301 1.5 -13.5 4.5s-7.16699 7.16699 -10.5 12.5l-44 63
c-4.66699 6.66699 -7.33398 13.667 -8.00098 21s-1 14.333 -1 21v69c0 12.667 -2.83301 21.834 -8.5 27.501s-14.834 8.5 -27.501 8.5h-154c-12.667 0 -21.834 -2.83301 -27.501 -8.5s-8.5 -14.834 -8.5 -27.501v-77c0 -30.667 2.5 -53.667 7.5 -69s15.167 -33.333 30.5 -54
l81 -109l-81 -109c-14.667 -20.667 -24.667 -38.667 -30 -54s-8 -38.333 -8 -69v-107c0 -12.667 2.83301 -21.834 8.5 -27.501s14.834 -8.5 27.501 -8.5h152c12.667 0 21.834 2.83301 27.501 8.5s8.5 14.834 8.5 27.501zM248 -10h-152c-16 0 -27.667 3.66699 -35 11
s-11 19 -11 35v107c0 32.667 2.66699 57 8 73s16 34.667 32 56l77 103l-77 103c-16 21.333 -26.667 40 -32 56s-8 40.333 -8 73v77c0 16 3.66699 27.667 11 35s19 11 35 11h154c16 0 27.667 -3.66699 35 -11s11 -19 11 -35v-69c0 -6 0.166992 -12.167 0.5 -18.5
s2.5 -12.166 6.5 -17.499l44 -64l7 -8.5c2 -2.33301 5 -3.5 9 -3.5h12c4 0 7 1.33301 9 4l7 9l45 63c4 5.33301 6.16699 11.166 6.5 17.499s0.5 12.5 0.5 18.5v69c0 16 3.66699 27.667 11 35s19 11 35 11h152c16 0 27.667 -3.66699 35 -11s11 -19 11 -35v-77
c0 -32.667 -2.66699 -57 -8 -73s-16 -34.667 -32 -56l-77 -104l77 -102c16 -21.333 26.667 -40 32 -56s8 -40.333 8 -73v-107c0 -16 -3.66699 -27.667 -11 -35s-19 -11 -35 -11h-152c-16 0 -27.667 3.66699 -35 11s-11 19 -11 35v99c0 6 -0.166992 12 -0.5 18
s-2.5 12 -6.5 18l-44 63c-2.66699 4 -5 7.16699 -7 9.5s-5 3.5 -9 3.5h-14c-4 0 -7 -1.16699 -9 -3.5s-4.33301 -5.5 -7 -9.5l-45 -63c-4 -6 -6.16699 -12 -6.5 -18s-0.5 -12 -0.5 -18v-99c0 -16 -3.66699 -27.667 -11 -35s-19 -11 -35 -11z" />
    <glyph glyph-name="Y" unicode="Y" horiz-adv-x="705" 
d="M272 -10c-16.667 0 -28.498 3.66699 -35.498 11s-10.5 19 -10.5 35v125l-151 202c-16 21.333 -26.667 40 -32 56s-8 40.333 -8 73v192c0 16 3.66699 27.667 11 35s19 11 35 11h154c16 0 27.667 -3.66699 35 -11s11 -19 11 -35v-164c0 -6 0.333008 -12 1 -18
s2.66699 -12.333 6 -19l47 -72c2 -4 4.16699 -7 6.5 -9s5.16602 -3 8.49902 -3h10c3.33301 0 6.16602 1 8.49902 3s4.83301 5 7.5 9l46 72c3.33301 6.66699 5.33301 13 6 19s1 12 1 18v164c0 16 3.66699 27.667 11 35s19 11 35 11h149c16 0 27.667 -3.66699 35 -11
s11 -19 11 -35v-192c0 -32.667 -2.66699 -57 -8 -73s-16 -34.667 -32 -56l-150 -203v-124c0 -16 -3.66699 -27.667 -11 -35s-19 -11 -35 -11h-162zM434.002 0c12.667 0 21.8379 2.83301 27.5049 8.5s8.5 14.834 8.5 27.501v127l152 206c14.667 20.667 24.667 38.667 30 54
s8 38.333 8 69v192c0 12.667 -2.83301 21.834 -8.5 27.501s-14.834 8.5 -27.501 8.5h-149c-12.667 0 -21.834 -2.83301 -27.501 -8.5s-8.5 -14.834 -8.5 -27.501v-164c0 -6.66699 -0.333008 -13.667 -1 -21s-3.33398 -14.333 -8.00098 -21l-46 -72
c-3.33301 -6 -6.83301 -10.333 -10.5 -13s-8.16699 -4 -13.5 -4h-10c-5.33301 0 -9.83301 1.33301 -13.5 4s-7.16699 7 -10.5 13l-46 72c-4.66699 6.66699 -7.33398 13.667 -8.00098 21s-1 14.333 -1 21v164c0 12.667 -2.83301 21.834 -8.5 27.501s-14.834 8.5 -27.501 8.5
h-154c-12.667 0 -21.834 -2.83301 -27.501 -8.5s-8.5 -14.834 -8.5 -27.501v-192c0 -30.667 2.5 -53.667 7.5 -69s15.167 -33.333 30.5 -54l153 -205v-128c0 -12.667 2.83301 -21.834 8.5 -27.501s14.834 -8.5 27.501 -8.5h162zM365.006 261l-6.99707 -0.00195312v-171h-10
v171h-10c-14.667 0 -27.834 3.33301 -39.501 10s-22.834 17.334 -33.501 32.001l-97 135c-7.33301 10 -11.666 21.667 -12.999 35s-2 27.333 -2 42v115h10v-115c0 -14 0.666992 -27.167 2 -39.5s5.33301 -23.5 12 -33.5l97 -135c8.66699 -13.333 18.667 -22.666 30 -27.999
s22.666 -8 33.999 -8h27c12.667 0 24.167 2.83301 34.5 8.5s20.5 14.834 30.5 27.501l100 135c6.66699 8.66699 10.667 19.5 12 32.5s2 26.5 2 40.5v115h10v-115c0 -14.667 -0.5 -28.5 -1.5 -41.5s-5.5 -24.833 -13.5 -35.5l-100 -135
c-10.667 -14.667 -21.834 -25.334 -33.501 -32.001s-25.167 -10 -40.5 -10z" />
    <glyph glyph-name="Z" unicode="Z" horiz-adv-x="660" 
d="M82 -10c-16 0 -27.667 3.66797 -35 11.001s-11 19 -11 35v134c0 14.667 2.16699 27.167 6.5 37.5s11.166 20.5 20.499 30.5l230 279h-193c-16 0 -27.667 3.66699 -35 11s-11 19 -11 35v121c0 16 3.66699 27.667 11 35s19 11 35 11h460c16 0 27.667 -3.66699 35 -11
s11 -19 11 -35v-149c0 -14.667 -2.16699 -27.334 -6.5 -38.001s-11.166 -21 -20.499 -31l-219 -265h218c16 0 27.667 -3.66699 35 -11s11 -19 11 -35v-119c0 -16 -3.66699 -27.667 -11 -35s-19 -11 -35 -11h-496zM578 0.000976562c12.667 0 21.834 2.83398 27.501 8.50098
s8.5 14.834 8.5 27.501v119c0 12.667 -2.83301 21.834 -8.5 27.501s-14.834 8.5 -27.501 8.5h-239l232 281c8.66699 9.33301 15 18.833 19 28.5s6 21.167 6 34.5v149c0 12.667 -2.83301 21.834 -8.5 27.501s-14.834 8.5 -27.501 8.5h-460
c-12.667 0 -21.834 -2.83301 -27.501 -8.5s-8.5 -14.834 -8.5 -27.501v-121c0 -12.667 2.83301 -21.834 8.5 -27.501s14.834 -8.5 27.501 -8.5h214l-243 -295c-8.66699 -9.33301 -15 -18.833 -19 -28.5s-6 -20.834 -6 -33.501v-134c0 -12.667 2.83301 -21.834 8.5 -27.501
s14.834 -8.5 27.501 -8.5h496zM473 544.002l-293 -376c-4.66699 -6 -8.16699 -11 -10.5 -15s-3.5 -9.33301 -3.5 -16v-14c0 -9.33301 2.16699 -15.5 6.5 -18.5s9.16602 -4.5 14.499 -4.5h337v-10h-337c-10.667 0 -18.5 2.66699 -23.5 8s-7.5 13.666 -7.5 24.999v16
c0 7.33301 1.66699 13.833 5 19.5s7.33301 11.5 12 17.5l293 376c4.66699 6 8.16699 11 10.5 15s3.5 9.33301 3.5 16v14c0 9.33301 -2.16699 15.5 -6.5 18.5s-9.16602 4.5 -14.499 4.5h-305v10h305c10.667 0 18.5 -2.66699 23.5 -8s7.5 -13.666 7.5 -24.999v-16
c0 -7.33301 -1.66699 -13.833 -5 -19.5s-7.33301 -11.5 -12 -17.5z" />
    <glyph glyph-name="bracketleft" unicode="[" horiz-adv-x="429" 
d="M84 -90c-16 0 -27.667 3.66699 -35 11s-11 19 -11 35v808c0 16 3.66699 27.667 11 35s19 11 35 11h264c16 0 27.667 -3.66699 35 -11s11 -19 11 -35v-121c0 -16 -3.66699 -27.667 -11 -35s-19 -11 -35 -11h-62v-476h62c16 0 27.667 -3.66699 35 -11s11 -19 11 -35v-119
c0 -16 -3.66699 -27.667 -11 -35s-19 -11 -35 -11h-264zM276 607l72 -0.00195312c12.667 0 21.834 2.83301 27.501 8.5s8.5 14.834 8.5 27.501v121c0 12.667 -2.83301 21.834 -8.5 27.501s-14.834 8.5 -27.501 8.5h-264c-12.667 0 -21.834 -2.83301 -27.501 -8.5
s-8.5 -14.834 -8.5 -27.501v-808c0 -12.667 2.83301 -21.834 8.5 -27.501s14.834 -8.5 27.501 -8.5h264c12.667 0 21.834 2.83301 27.501 8.5s8.5 14.834 8.5 27.501v119c0 12.667 -2.83301 21.834 -8.5 27.501s-14.834 8.5 -27.501 8.5h-72v496zM157 707.998h137v-10h-127
v-677h127v-10h-137v697z" />
    <glyph glyph-name="backslash" unicode="\" horiz-adv-x="347" 
d="M163 -100c-15.333 0 -26.333 3.5 -33 10.5s-11 18.5 -13 34.5l-120 828c-2 16 1 27.833 9 35.5s20.333 11.5 37 11.5h145c15.333 0 26.333 -3.5 33 -10.5s11 -18.5 13 -34.5l120 -828c2 -16 -1 -27.833 -9 -35.5s-20.333 -11.5 -37 -11.5h-145zM224 774
c-1.33301 12.667 -4.5 21.834 -9.5 27.501s-13.833 8.5 -26.5 8.5h-145c-12.667 0 -22.167 -2.83301 -28.5 -8.5s-8.83301 -14.834 -7.5 -27.501l120 -828c1.33301 -12.667 4.5 -21.834 9.5 -27.501s13.833 -8.5 26.5 -8.5h145c12.667 0 22.167 2.83301 28.5 8.5
s8.83301 14.834 7.5 27.501zM129 720l104 -720h-10l-104 720h10z" />
    <glyph glyph-name="bracketright" unicode="]" horiz-adv-x="429" 
d="M81 -90c-16 0 -27.667 3.66699 -35 11s-11 19 -11 35v119c0 16 3.66699 27.667 11 35s19 11 35 11h62v476h-62c-16 0 -27.667 3.66699 -35 11s-11 19 -11 35v121c0 16 3.66699 27.667 11 35s19 11 35 11h264c16 0 27.667 -3.66699 35 -11s11 -19 11 -35v-808
c0 -16 -3.66699 -27.667 -11 -35s-19 -11 -35 -11h-264zM153 111l-72 0.00195312c-12.667 0 -21.834 -2.83301 -27.501 -8.5s-8.5 -14.834 -8.5 -27.501v-119c0 -12.667 2.83301 -21.834 8.5 -27.501s14.834 -8.5 27.501 -8.5h264c12.667 0 21.834 2.83301 27.501 8.5
s8.5 14.834 8.5 27.501v808c0 12.667 -2.83301 21.834 -8.5 27.501s-14.834 8.5 -27.501 8.5h-264c-12.667 0 -21.834 -2.83301 -27.501 -8.5s-8.5 -14.834 -8.5 -27.501v-121c0 -12.667 2.83301 -21.834 8.5 -27.501s14.834 -8.5 27.501 -8.5h72v-496zM272 708.002v-697
h-137v10h127v677h-127v10h137z" />
    <glyph glyph-name="asciicircum" unicode="^" horiz-adv-x="714" 
d="M256 205c-2 -15.333 -6.99902 -26.666 -14.999 -33.999s-20 -10.666 -36 -9.99902l-132 1c-16.667 0 -28.167 3.83301 -34.5 11.5s-8.16602 19.834 -5.49902 36.501v1l108 381c12.667 44 30.334 77.5 53.001 100.5s60 34.5 112 34.5h73c52 0 89.167 -11.5 111.5 -34.5
s40.166 -56.5 53.499 -100.5l108 -382c2.66699 -16.667 0.833984 -28.834 -5.49902 -36.501s-17.833 -11.5 -34.5 -11.5l-132 -1c-16 -0.666992 -28 2.66602 -36 9.99902s-13 18.666 -15 33.999v-2l-78 290c-0.666992 2.66699 -1.33398 5 -2.00098 7
s-2.33398 2.66699 -5.00098 2h-2c-3.33301 0.666992 -5.33301 0 -6 -2s-1.33398 -4.66699 -2.00098 -8l-78 -289v2zM533.001 261l-10.9971 -0.00195312l-86 301c-4 14.667 -9.33301 27.334 -16 38.001s-20.334 16 -41.001 16h-73c-20.667 0 -34.167 -5.33301 -40.5 -16
s-11.833 -23.667 -16.5 -39l-85 -300h-11l86 302c4.66699 18.667 11.167 33.834 19.5 45.501s24.166 17.5 47.499 17.5h73c23.333 0 39.166 -6 47.499 -18s14.833 -26.667 19.5 -44zM43.0039 207.998c-2.66699 -12.667 -1.49902 -21.834 3.50098 -27.501
s13.833 -8.5 26.5 -8.5l132 -1c12.667 -0.666992 22.334 1.83301 29.001 7.5s10.667 14.834 12 27.501l78 289c1.33301 6.66699 3.16602 11.334 5.49902 14.001s6.83301 3.66699 13.5 3c6 0.666992 10.167 -0.333008 12.5 -3s4.16602 -7.33398 5.49902 -14.001l78 -289
c1.33301 -12.667 5.33301 -21.834 12 -27.501s16.334 -8.16699 29.001 -7.5l132 1c12.667 0 21.5 2.83301 26.5 8.5s6.16699 14.834 3.5 27.501l-108 381c-12.667 41.333 -29.334 73 -50.001 95s-55.667 33 -105 33h-73c-49.333 0 -84.5 -11 -105.5 -33
s-37.5 -53.667 -49.5 -95z" />
    <glyph glyph-name="underscore" unicode="_" horiz-adv-x="734" 
d="M628 -113h-522c-16 0 -27.667 3.5 -35 10.5s-11 18.833 -11 35.5v134c0 16 3.66699 27.667 11 35s19 11 35 11h522c16 0 27.667 -3.5 35 -10.5s11 -18.833 11 -35.5v-134c0 -16.667 -3.66699 -28.5 -11 -35.5s-19 -10.5 -35 -10.5zM106 -103h522
c12.667 0 21.834 2.83301 27.501 8.5s8.5 14.834 8.5 27.501v134c0 12.667 -2.83301 21.834 -8.5 27.501s-14.834 8.5 -27.501 8.5h-522c-12.667 0 -21.834 -2.83301 -27.501 -8.5s-8.5 -14.834 -8.5 -27.501v-134c0 -12.667 2.83301 -21.834 8.5 -27.501
s14.834 -8.5 27.501 -8.5zM574 5v-10h-414v10h414z" />
    <glyph glyph-name="grave" unicode="`" horiz-adv-x="500" 
d="M469 786c0 -15.333 -3.83301 -26.833 -11.5 -34.5s-18.834 -10.5 -33.501 -8.5l-349 43c-16 2 -27.5 6.33301 -34.5 13s-10.5 17.667 -10.5 33v96c0 15.333 3.83301 26.833 11.5 34.5s18.834 10.5 33.501 8.5l349 -43c16 -2 27.5 -6.33301 34.5 -13
s10.5 -17.667 10.5 -33v-96zM425 753c11.333 -1.33301 19.833 1 25.5 7s8.5 14.667 8.5 26v96c0 12.667 -2.83301 21.5 -8.5 26.5s-14.834 8.16699 -27.501 9.5l-349 43c-11.333 1.33301 -19.833 -1 -25.5 -7s-8.5 -14.667 -8.5 -26v-96c0 -12.667 2.83301 -21.5 8.5 -26.5
s14.834 -8.16699 27.501 -9.5zM130 867v10l239 -30v-10z" />
    <glyph glyph-name="a" unicode="a" horiz-adv-x="730" 
d="M170 303v-30.999h390v31c0 18 -1.5 34.667 -4.5 50s-6.83301 29.666 -11.5 42.999l-69 163c-7.33301 17.333 -15 31.833 -23 43.5s-21.333 17.5 -40 17.5h-98c-20 0 -34 -5.83301 -42 -17.5s-15.333 -25.834 -22 -42.501l-64 -164
c-4.66699 -13.333 -8.5 -27.666 -11.5 -42.999s-4.5 -32 -4.5 -50zM330 510.001c2.66699 6 5.5 10.333 8.5 13s6.5 4 10.5 4h25c4 0 7.5 -1.33301 10.5 -4s5.83301 -7 8.5 -13l47 -152h-157zM383 507.001l0.998047 -1c-1.33301 2.66699 -2.66602 5.16699 -3.99902 7.5
s-3.33301 3.5 -6 3.5h-25c-2.66699 0 -4.66699 -1.16699 -6 -3.5s-2.66602 -4.83301 -3.99902 -7.5l1 1l-43 -139h129zM559.998 90.001l0.000976562 171.999h-390v-172h-10v213c0 18.667 1.5 35.834 4.5 51.501s7.16699 30.834 12.5 45.501l64 164
c7.33301 18.667 15.666 34.334 24.999 47.001s25.333 19 48 19h98c22 0 37.5 -6.33301 46.5 -19s17.5 -28.667 25.5 -48l69 -163c5.33301 -14.667 9.5 -29.834 12.5 -45.501s4.5 -32.834 4.5 -51.501v-213h-10zM272.999 36l-0.00488281 140h177v-140
c0 -12.667 3.16699 -21.834 9.5 -27.501s16.166 -8.5 29.499 -8.5h151c12.667 0 21.834 2.83301 27.501 8.5s8.5 14.834 8.5 27.501v264c0 20 -3.16699 43 -9.5 69s-16.166 56.333 -29.499 91l-87 227c-4 11.333 -10.167 19.666 -18.5 24.999s-18.833 8 -31.5 8h-269
c-13.333 0 -24.166 -2.66699 -32.499 -8s-14.5 -13.666 -18.5 -24.999l-87 -227c-13.333 -34.667 -23.166 -65 -29.499 -91s-9.5 -49 -9.5 -69v-264c0 -12.667 2.83301 -21.834 8.5 -27.501s14.834 -8.5 27.501 -8.5h147c12.667 0 21.834 2.83301 27.501 8.5
s8.5 14.834 8.5 27.501zM89.9941 -10c-16 0 -27.6689 3.66602 -35.002 10.999s-11 19 -11 35v264c0 20.667 3.16699 44.167 9.5 70.5s16.5 57.5 30.5 93.5l87 226c4.66699 14 11.834 24.167 21.501 30.5s22.5 9.5 38.5 9.5h269c15.333 0 27.833 -3.16699 37.5 -9.5
s16.834 -16.166 21.501 -29.499l87 -227c14 -36 24.167 -67.167 30.5 -93.5s9.5 -49.833 9.5 -70.5v-264c0 -16 -3.66699 -27.667 -11 -35s-19 -11 -35 -11h-151c-16.667 0 -29 3.83301 -37 11.5s-12 19.167 -12 34.5v130h-157v-130c0 -16 -3.66699 -27.667 -11 -35
s-19 -11 -35 -11h-147z" />
    <glyph glyph-name="b" unicode="b" horiz-adv-x="725" 
d="M105 -10c-16 0 -27.667 3.66895 -35 11.002s-11 19 -11 35v648c0 16 3.66699 27.667 11 35s19 11 35 11h319c69.333 0 120.333 -13.5 153 -40.5s49 -67.833 49 -122.5v-48c0 -24 -3.33301 -44.333 -10 -61s-16.667 -30.334 -30 -41.001c36 -8.66699 62.833 -26 80.5 -52
s26.5 -62.333 26.5 -109v-92c0 -58.667 -16.5 -102.334 -49.5 -131.001s-84.5 -43 -154.5 -43h-384zM489 0.00195312c66 0 114.833 13.334 146.5 40.001s47.5 68 47.5 124v92c0 48.667 -10.333 85.667 -31 111s-52.334 40 -95.001 44c20 8.66699 34.833 21.834 44.5 39.501
s14.5 40.5 14.5 68.5v48c0 52 -15.667 90.5 -47 115.5s-79.666 37.5 -144.999 37.5h-319c-12.667 0 -21.834 -2.83301 -27.501 -8.5s-8.5 -14.834 -8.5 -27.501v-648c0 -12.667 2.83301 -21.834 8.5 -27.501s14.834 -8.5 27.501 -8.5h384zM449 90.0029l-268.995 0.00292969
v540h203c27.333 0 49.666 -2.83301 66.999 -8.5s30.666 -13.334 39.999 -23.001s15.666 -20.834 18.999 -33.501s5 -26.334 5 -41.001v-64c0 -20 -3.5 -38.333 -10.5 -55s-24.833 -28.667 -53.5 -36c27.333 0 49.666 -2.83301 66.999 -8.5s30.666 -13.667 39.999 -24
s15.5 -22.5 18.5 -36.5s4.5 -29.333 4.5 -46v-64c0 -14.667 -1.66699 -28.167 -5 -40.5s-9.5 -22.833 -18.5 -31.5s-22.167 -15.5 -39.5 -20.5s-40 -7.5 -68 -7.5zM383.005 620.006l-192.999 -0.000976562v-251h193c27.333 0 49 2.5 65 7.5s28.167 11.667 36.5 20
s13.666 18 15.999 29s3.5 22.5 3.5 34.5v64c0 26.667 -7.66699 49.334 -23 68.001s-48 28 -98 28zM294.006 550.005h85c12.667 0 22.167 -3.33301 28.5 -10s9.5 -16.667 9.5 -30v-28c0 -13.333 -3.16699 -23.333 -9.5 -30s-15.833 -10 -28.5 -10h-85v108zM379.006 540.005
h-75v-88h75c10 0 17.167 2.5 21.5 7.5s6.5 12.5 6.5 22.5v28c0 10 -2.16699 17.5 -6.5 22.5s-11.5 7.5 -21.5 7.5zM450.006 359.005l-260 0.000976562v-259h259c50 0 82.667 8.16699 98 24.5s23 38.166 23 65.499v64c0 30 -7.5 55 -22.5 75s-47.5 30 -97.5 30z
M294.006 288.006l130 -0.000976562c12.667 0 22.167 -3.16699 28.5 -9.5s9.5 -16.166 9.5 -29.499v-39c0 -13.333 -3.16699 -23.333 -9.5 -30s-15.833 -10 -28.5 -10h-130v118zM424.006 278.005h-120v-98h120c10 0 17.167 2.5 21.5 7.5s6.5 12.5 6.5 22.5v39
c0 10 -2.33301 17.333 -7 22s-11.667 7 -21 7z" />
    <glyph glyph-name="c" unicode="c" horiz-adv-x="628" 
d="M594 36c0 -16 -3.66699 -27.667 -11 -35s-19 -11 -35 -11h-244c-87.333 0 -151.833 17.667 -193.5 53s-62.5 89 -62.5 161v311c0 72.667 20.833 126.667 62.5 162s106.167 53 193.5 53h244c16 0 27.667 -3.66699 35 -11s11 -19 11 -35v-121
c0 -16 -3.66699 -27.667 -11 -35s-19 -11 -35 -11h-201c-16.667 0 -29.334 -3.16699 -38.001 -9.5s-13 -16.5 -13 -30.5v-238c0 -14 4.33301 -23.833 13 -29.5s21.334 -8.5 38.001 -8.5h201c16 0 27.667 -3.66699 35 -11s11 -19 11 -35v-119zM548 0
c12.667 0 21.834 2.82715 27.501 8.49414s8.5 14.834 8.5 27.501v119c0 12.667 -2.83301 21.834 -8.5 27.501s-14.834 8.5 -27.501 8.5h-201c-20.667 0 -36 3.83301 -46 11.5s-15 19.834 -15 36.501v238c0 16.667 5 29.167 15 37.5s25.333 12.5 46 12.5h201
c12.667 0 21.834 2.83301 27.501 8.5s8.5 14.834 8.5 27.501v121c0 12.667 -2.83301 21.834 -8.5 27.501s-14.834 8.5 -27.501 8.5h-244c-83.333 0 -145.166 -16.833 -185.499 -50.5s-60.5 -85.167 -60.5 -154.5v-311c0 -69.333 20.167 -120.666 60.5 -153.999
s102.166 -50 185.499 -50h244zM493 99.9941l0.000976562 -10h-167c-64.667 0 -107.5 10 -128.5 30s-31.5 53 -31.5 99v280c0 47.333 10.667 81 32 101s64 30 128 30h167v-10h-167c-58.667 0 -98.334 -9.16699 -119.001 -27.5s-31 -49.5 -31 -93.5v-280
c0 -43.333 10 -74 30 -92s60 -27 120 -27h167z" />
    <glyph glyph-name="d" unicode="d" horiz-adv-x="746" 
d="M698 204c0 -72 -20.833 -125.667 -62.5 -161s-106.167 -53 -193.5 -53h-337c-16 0 -27.667 3.66699 -35 11s-11 19 -11 35v648c0 16 3.66699 27.667 11 35s19 11 35 11h337c87.333 0 151.833 -17.667 193.5 -53s62.5 -89 62.5 -161v-312zM442 0
c83.333 0 145.166 16.6709 185.499 50.0039s60.5 84.666 60.5 153.999v312c0 69.333 -20.167 120.666 -60.5 153.999s-102.166 50 -185.499 50h-337c-12.667 0 -21.834 -2.83301 -27.501 -8.5s-8.5 -14.834 -8.5 -27.501v-648c0 -12.667 2.83301 -21.834 8.5 -27.501
s14.834 -8.5 27.501 -8.5h337zM178 90.0039l-0.000976562 539.999h242c34 0 61.5 -3.66699 82.5 -11s37.167 -17.166 48.5 -29.499s19 -27 23 -44s6 -35.167 6 -54.5v-265c0 -19.333 -1.83301 -37.333 -5.5 -54s-11.167 -31 -22.5 -43s-27.666 -21.5 -48.999 -28.5
s-49 -10.5 -83 -10.5h-242zM419.999 620.003h-232.001v-520h232c32 0 57.833 3.16699 77.5 9.5s34.834 15 45.501 26s17.834 24.333 21.501 40s5.5 32.5 5.5 50.5v265c0 18 -2 35 -6 51s-11.333 29.667 -22 41s-25.834 20.333 -45.501 27s-45.167 10 -76.5 10z
M295.998 529.003l119 0.000976562c16 0 27.833 -3.83301 35.5 -11.5s11.5 -19.834 11.5 -36.501v-243c0 -16.667 -3.83301 -29 -11.5 -37s-19.5 -12 -35.5 -12h-119v340zM414.998 519.004l-109 0.000976562v-320h109c12.667 0 22 3.16699 28 9.5s9 16.166 9 29.499v243
c0 12.667 -3 22.167 -9 28.5s-15.333 9.5 -28 9.5z" />
    <glyph glyph-name="e" unicode="e" horiz-adv-x="654" 
d="M105 -10c-16 0 -27.667 3.66699 -35 11s-11 19 -11 35v648c0 16 3.66699 27.667 11 35s19 11 35 11h464c16 0 27.667 -3.66699 35 -11s11 -19 11 -35v-117c0 -16 -3.66699 -27.667 -11 -35s-19 -11 -35 -11h-266v-57h185c16 0 27.667 -3.66699 35 -11s11 -19 11 -35v-107
c0 -16 -3.66699 -27.667 -11 -35s-19 -11 -35 -11h-185v-66h266c16 0 27.667 -3.66699 35 -11s11 -19 11 -35v-117c0 -16 -3.66699 -27.667 -11 -35s-19 -11 -35 -11h-464zM569 0c12.667 0 21.834 2.8291 27.501 8.49609s8.5 14.834 8.5 27.501v117
c0 12.667 -2.83301 21.834 -8.5 27.501s-14.834 8.5 -27.501 8.5h-276v86h195c12.667 0 21.834 2.83301 27.501 8.5s8.5 14.834 8.5 27.501v107c0 12.667 -2.83301 21.834 -8.5 27.501s-14.834 8.5 -27.501 8.5h-195v77h276c12.667 0 21.834 2.83301 27.501 8.5
s8.5 14.834 8.5 27.501v117c0 12.667 -2.83301 21.834 -8.5 27.501s-14.834 8.5 -27.501 8.5h-464c-12.667 0 -21.834 -2.83301 -27.501 -8.5s-8.5 -14.834 -8.5 -27.501v-648c0 -12.667 2.83301 -21.834 8.5 -27.501s14.834 -8.5 27.501 -8.5h464zM515 99.9961v-10h-337
v540h337v-10h-327v-251h246v-10h-246v-259h327z" />
    <glyph glyph-name="f" unicode="f" horiz-adv-x="618" 
d="M105 -10c-16 0 -27.667 3.66699 -35 11s-11 19 -11 35v648c0 16 3.66699 27.667 11 35s19 11 35 11h446c16 0 27.667 -3.66699 35 -11s11 -19 11 -35v-119c0 -16 -3.66699 -27.667 -11 -35s-19 -11 -35 -11h-245v-84h164c16 0 27.667 -3.66699 35 -11s11 -19 11 -35v-120
c0 -16 -3.66699 -27.667 -11 -35s-19 -11 -35 -11h-164v-187c0 -16 -3.66699 -27.667 -11 -35s-19 -11 -35 -11h-155zM260 0c12.667 0 21.833 2.83008 27.5 8.49707s8.5 14.834 8.5 27.501v197h174c12.667 0 21.834 2.83301 27.501 8.5s8.5 14.834 8.5 27.501v120
c0 12.667 -2.83301 21.834 -8.5 27.501s-14.834 8.5 -27.501 8.5h-174v104h255c12.667 0 21.834 2.83301 27.501 8.5s8.5 14.834 8.5 27.501v119c0 12.667 -2.83301 21.834 -8.5 27.501s-14.834 8.5 -27.501 8.5h-446c-12.667 0 -21.834 -2.83301 -27.501 -8.5
s-8.5 -14.834 -8.5 -27.501v-648c0 -12.667 2.83301 -21.834 8.5 -27.501s14.834 -8.5 27.501 -8.5h155zM177.999 89.9971v540h319v-10h-309v-286h228v-10h-228v-234h-10z" />
    <glyph glyph-name="g" unicode="g" horiz-adv-x="708" 
d="M304 -10c-87.333 0 -151.833 17.666 -193.5 52.999s-62.5 89 -62.5 161v312c0 72 20.833 125.667 62.5 161s106.167 53 193.5 53h250c16 0 27.667 -3.66699 35 -11s11 -19 11 -35v-121c0 -16 -3.66699 -27.667 -11 -35s-19 -11 -35 -11h-208
c-16.667 0 -29.334 -3.16699 -38.001 -9.5s-13 -16.5 -13 -30.5v-239c0 -13.333 2.83301 -23.166 8.5 -29.499s14.834 -9.5 27.501 -9.5h87v146c0 16 3.66699 27.667 11 35s19 11 35 11h155c16 0 27.667 -3.66699 35 -11s11 -19 11 -35v-309c0 -16 -3.66699 -27.667 -11 -35
s-19 -11 -35 -11h-315zM619 -0.000976562c12.667 0 21.835 2.82812 27.502 8.49512s8.5 14.834 8.5 27.501v309c0 12.667 -2.83301 21.834 -8.5 27.501s-14.834 8.5 -27.501 8.5h-155c-12.667 0 -21.834 -2.83301 -27.501 -8.5s-8.5 -14.834 -8.5 -27.501v-156h-97
c-15.333 0 -26.833 4 -34.5 12s-11.5 20.333 -11.5 37v239c0 16.667 5 29.167 15 37.5s25.333 12.5 46 12.5h208c12.667 0 21.834 2.83301 27.501 8.5s8.5 14.834 8.5 27.501v121c0 12.667 -2.83301 21.834 -8.5 27.501s-14.834 8.5 -27.501 8.5h-250
c-83.333 0 -145.166 -16.667 -185.499 -50s-60.5 -84.666 -60.5 -153.999v-312c0 -69.333 20.167 -120.666 60.5 -153.999s102.166 -50 185.499 -50h315zM347.001 89.9941c-36.667 0 -66.667 2.33496 -90 7.00195s-41.666 12.167 -54.999 22.5s-22.5 23.666 -27.5 39.999
s-7.5 36.166 -7.5 59.499v280c0 47.333 10.667 81 32 101s64 30 128 30h173v-10h-173c-58.667 0 -98.334 -9.16699 -119.001 -27.5s-31 -49.5 -31 -93.5v-280c0 -43.333 11.5 -74 34.5 -92s68.167 -27 135.5 -27h189v191h10v-201h-199z" />
    <glyph glyph-name="h" unicode="h" horiz-adv-x="759" 
d="M177 90v540h10v-265h384v265h10v-540h-10v265h-384v-265h-10zM260 0c12.667 0 21.834 2.83301 27.501 8.5s8.5 14.834 8.5 27.501v222h167v-222c0 -12.667 2.83301 -21.834 8.5 -27.501s14.834 -8.5 27.501 -8.5h155c12.667 -0 21.834 2.83301 27.501 8.5
s8.5 14.834 8.5 27.501v648c0 12.667 -2.83301 21.834 -8.5 27.501s-14.834 8.5 -27.501 8.5h-155c-12.667 0 -21.834 -2.83301 -27.501 -8.5s-8.5 -14.834 -8.5 -27.501v-217h-167v217c0 12.667 -2.83301 21.834 -8.5 27.501s-14.834 8.5 -27.501 8.5h-155
c-12.667 0 -21.834 -2.83301 -27.501 -8.5s-8.5 -14.834 -8.5 -27.501v-648c0 -12.667 2.83301 -21.834 8.5 -27.501s14.834 -8.5 27.501 -8.5h155zM105 -10c-16 0 -27.667 3.66699 -35 11s-11 19 -11 35v648c0 16 3.66699 27.667 11 35s19 11 35 11h155
c16 0 27.667 -3.66699 35 -11s11 -19 11 -35v-207h147v207c0 16 3.66699 27.667 11 35s19 11 35 11h155c16 0 27.667 -3.66699 35 -11s11 -19 11 -35v-648c0 -16 -3.66699 -27.667 -11 -35s-19 -11 -35 -11h-155c-16 0 -27.667 3.66699 -35 11s-11 19 -11 35v212h-147v-212
c0 -16 -3.66699 -27.667 -11 -35s-19 -11 -35 -11h-155z" />
    <glyph glyph-name="i" unicode="i" horiz-adv-x="605" 
d="M89 -10c-16 0 -27.667 3.66699 -35 11s-11 19 -11 35v119c0 16 3.66699 27.667 11 35s19 11 35 11h89v316h-89c-16 0 -27.667 3.66699 -35 11s-11 19 -11 35v121c0 16 3.66699 27.667 11 35s19 11 35 11h426c16 0 27.667 -3.66699 35 -11s11 -19 11 -35v-121
c0 -16 -3.66699 -27.667 -11 -35s-19 -11 -35 -11h-87v-316h87c16 0 27.667 -3.66699 35 -11s11 -19 11 -35v-119c0 -16 -3.66699 -27.667 -11 -35s-19 -11 -35 -11h-426zM89 0h426c12.667 -0 21.834 2.83301 27.501 8.5s8.5 14.834 8.5 27.501v119
c0 12.667 -2.83301 21.834 -8.5 27.501s-14.834 8.5 -27.501 8.5h-97v336h97c12.667 0 21.834 2.83301 27.501 8.5s8.5 14.834 8.5 27.501v121c0 12.667 -2.83301 21.834 -8.5 27.501s-14.834 8.5 -27.501 8.5h-426c-12.667 0 -21.834 -2.83301 -27.501 -8.5
s-8.5 -14.834 -8.5 -27.501v-121c0 -12.667 2.83301 -21.834 8.5 -27.501s14.834 -8.5 27.501 -8.5h99v-336h-99c-12.667 0 -21.834 -2.83301 -27.501 -8.5s-8.5 -14.834 -8.5 -27.501v-119c0 -12.667 2.83301 -21.834 8.5 -27.501s14.834 -8.5 27.501 -8.5zM461 90h-318v10
h155v520h-155v10h318v-10h-153v-520h153v-10z" />
    <glyph glyph-name="j" unicode="j" horiz-adv-x="688" 
d="M634 684l-0.00195312 -495c0 -31.333 -4.16699 -60.166 -12.5 -86.499s-23.666 -48.833 -45.999 -67.5s-53.333 -33.334 -93 -44.001s-90.167 -16 -151.5 -16c-60.667 0 -110.5 5.33301 -149.5 16s-69.667 25.334 -92 44.001s-37.666 41.167 -45.999 67.5
s-12.5 55.166 -12.5 86.499v162c0 16.667 3.66699 28.5 11 35.5s19 10.5 35 10.5h145c16 0 27.667 -3.5 35 -10.5s11 -18.833 11 -35.5v-122c0 -11.333 4 -20.333 12 -27s24.333 -10 49 -10c22.667 0 37.667 3.33301 45 10s11 15.667 11 27v455c0 16 3.66699 27.667 11 35
s19 11 35 11h157c16 0 27.667 -3.66699 35 -11s11 -19 11 -35zM623.998 189l0.00292969 495c0 12.667 -2.83301 21.834 -8.5 27.501s-14.834 8.5 -27.501 8.5h-157c-12.667 0 -21.834 -2.83301 -27.501 -8.5s-8.5 -14.834 -8.5 -27.501v-455
c0 -13.333 -3.83301 -24.5 -11.5 -33.5s-25.834 -13.5 -54.501 -13.5c-30.667 0 -50.167 4.5 -58.5 13.5s-12.5 20.167 -12.5 33.5v122c0 12.667 -2.83301 21.834 -8.5 27.501s-14.834 8.5 -27.501 8.5h-145c-12.667 0 -21.834 -2.83301 -27.501 -8.5
s-8.5 -14.834 -8.5 -27.501v-162c0 -30.667 4.16699 -58.5 12.5 -83.5s23.333 -46.333 45 -64s51.334 -31.5 89.001 -41.5s85.5 -15 143.5 -15c58.667 0 107 5 145 15s67.833 23.833 89.5 41.5s36.834 39 45.501 64s13 52.833 13 83.5zM504.001 630l9.99902 -0.00292969
v-417c0 -39.333 -12.5 -71.666 -37.5 -96.999s-72.833 -38 -143.5 -38c-37.333 0 -68.166 3.33301 -92.499 10s-43.5 15.834 -57.5 27.501s-23.833 25.834 -29.5 42.501s-8.5 35 -8.5 55v79h10v-79c0 -38 12.5 -68.333 37.5 -91s71.833 -34 140.5 -34
c66 0 111 11.5 135 34.5s36 53.167 36 90.5v417z" />
    <glyph glyph-name="k" unicode="k" horiz-adv-x="746" 
d="M188 90h-9.99902v540h10v-266h217l115 266h11l-115 -266h41c40.667 0 71 -7.66699 91 -23s30 -40.333 30 -75v-176h-10v176c0 32 -9.33301 54.667 -28 68s-46.334 20 -83.001 20h-269v-264zM260.001 0c12.667 0 21.8311 2.83203 27.498 8.49902s8.5 14.834 8.5 27.501
v229h132c10.667 0 18.667 -3 24 -9s8 -14.333 8 -25v-195c0 -12.667 2.83301 -21.834 8.5 -27.501s14.834 -8.5 27.501 -8.5h154c12.667 0 21.834 2.83301 27.501 8.5s8.5 14.834 8.5 27.501v282c0 40 -11.167 72.167 -33.5 96.5s-52.166 37.5 -89.499 39.5l102 233
c4.66699 10.667 5 18.834 1 24.501s-11.667 8.5 -23 8.5h-154c-12.667 0 -23 -2.5 -31 -7.5s-14.333 -13.5 -19 -25.5l-103 -233h-40v230c0 12.667 -2.83301 21.834 -8.5 27.501s-14.834 8.5 -27.501 8.5h-155c-12.667 0 -21.834 -2.83301 -27.501 -8.5
s-8.5 -14.834 -8.5 -27.501v-648c0 -12.667 2.83301 -21.834 8.5 -27.501s14.834 -8.5 27.501 -8.5h155zM259.998 -10.001l-154.999 0.000976562c-16 0 -27.667 3.66699 -35 11s-11 19 -11 35v648c0 16 3.66699 27.667 11 35s19 11 35 11h155c16 0 27.667 -3.66699 35 -11
s11 -19 11 -35v-220h24l100 227c6 14 13.5 24 22.5 30s21.167 9 36.5 9h154c16.667 0 27.667 -4.16699 33 -12.5s4.66602 -19.833 -2.00098 -34.5l-96 -220c36 -4.66699 64.667 -20 86 -46s32 -59 32 -99v-282c0 -16 -3.66699 -27.667 -11 -35s-19 -11 -35 -11h-154
c-16 0 -27.667 3.66699 -35 11s-11 19 -11 35v195c0 7.33301 -1.83301 13.166 -5.5 17.499s-9.16699 6.5 -16.5 6.5h-122v-219c0 -16 -3.66699 -27.667 -11 -35s-19 -11 -35 -11z" />
    <glyph glyph-name="l" unicode="l" horiz-adv-x="695" 
d="M105 -10c-16 0 -27.667 3.66699 -35 11s-11 19 -11 35v648c0 16 3.66699 27.667 11 35s19 11 35 11h155c16 0 27.667 -3.66699 35 -11s11 -19 11 -35v-485h117v152c0 16 3.66699 27.667 11 35s19 11 35 11h145c16 0 27.667 -3.66699 35 -11s11 -19 11 -35v-315
c0 -16 -3.66699 -27.667 -11 -35s-19 -11 -35 -11h-509zM614 0c12.667 0 21.8359 2.83301 27.5029 8.5s8.5 14.834 8.5 27.501v315c0 12.667 -2.83301 21.834 -8.5 27.501s-14.834 8.5 -27.501 8.5h-145c-12.667 0 -21.834 -2.83301 -27.501 -8.5s-8.5 -14.834 -8.5 -27.501
v-162h-137v495c0 12.667 -2.83301 21.834 -8.5 27.501s-14.834 8.5 -27.501 8.5h-155c-12.667 0 -21.834 -2.83301 -27.501 -8.5s-8.5 -14.834 -8.5 -27.501v-648c0 -12.667 2.83301 -21.834 8.5 -27.501s14.834 -8.5 27.501 -8.5h509zM178.002 90v540h10v-530h348v197h10
v-207h-368z" />
    <glyph glyph-name="m" unicode="m" horiz-adv-x="849" 
d="M421 385c12 0 20.6719 2.66699 26.0049 8s13.666 16.666 24.999 33.999l122 186c4 6.66699 8.5 11.167 13.5 13.5s10.167 3.5 15.5 3.5h17c9.33301 0 16.166 -2.5 20.499 -7.5s6.5 -12.833 6.5 -23.5v-509h-10v509c0 5.33301 -1.16699 10.166 -3.5 14.499
s-6.83301 6.5 -13.5 6.5h-15c-4.66699 0 -8.66699 -0.666992 -12 -2s-7 -5.33301 -11 -12l-122 -184c-12 -18 -21.167 -30.333 -27.5 -37s-16.833 -10 -31.5 -10s-25.167 3.33301 -31.5 10s-15.5 19 -27.5 37l-122 184c-4 6.66699 -7.83301 10.667 -11.5 12
s-7.83398 2 -12.501 2h-15c-6.66699 0 -11 -2.16699 -13 -6.5s-3 -9.16602 -3 -14.499v-509h-10v509c0 10.667 2.16699 18.5 6.5 23.5s10.833 7.5 19.5 7.5h17c5.33301 0 10.666 -1.16699 15.999 -3.5s10 -6.83301 14 -13.5l122 -186
c11.333 -17.333 19.666 -28.666 24.999 -33.999s14 -8 26 -8zM254.005 0c12.667 0 21.8301 2.83301 27.4971 8.5s8.5 14.834 8.5 27.501v352l59 -109c6 -11.333 13.167 -19.5 21.5 -24.5s18.833 -7.5 31.5 -7.5h40c12.667 0 23.167 2.5 31.5 7.5s15.5 13.167 21.5 24.5
l59 109v-352c0 -12.667 2.83301 -21.834 8.5 -27.501s14.834 -8.5 27.501 -8.5h154c12.667 -0 21.834 2.83301 27.501 8.5s8.5 14.834 8.5 27.501v648c0 12.667 -2.83301 21.834 -8.5 27.501s-14.834 8.5 -27.501 8.5h-162c-10.667 0 -19.5 -2.33301 -26.5 -7
s-13.5 -12.334 -19.5 -23.001l-89 -163c-3.33301 -6 -6.16602 -10.333 -8.49902 -13s-5.5 -4 -9.5 -4h-9c-4 0 -7.16699 1.33301 -9.5 4s-5.16602 7 -8.49902 13l-90 163c-6 10.667 -12.5 18.334 -19.5 23.001s-15.833 7 -26.5 7h-161
c-12.667 0 -21.834 -2.83301 -27.501 -8.5s-8.5 -14.834 -8.5 -27.501v-648c0 -12.667 2.83301 -21.834 8.5 -27.501s14.834 -8.5 27.501 -8.5h149zM254.001 -10h-148.998c-16 0 -27.667 3.66699 -35 11s-11 19 -11 35v648c0 16 3.66699 27.667 11 35s19 11 35 11h161
c12.667 0 23.167 -2.66699 31.5 -8s16.166 -14.333 23.499 -27l90 -163c1.33301 -2.66699 2.5 -5.33398 3.5 -8.00098s2.83301 -4 5.5 -4h9c2.66699 0 4.5 1.33301 5.5 4s2.16699 5.33398 3.5 8.00098l89 163c7.33301 12.667 15.166 21.667 23.499 27s18.833 8 31.5 8h162
c16 0 27.667 -3.66699 35 -11s11 -19 11 -35v-648c0 -16 -3.66699 -27.667 -11 -35s-19 -11 -35 -11h-154c-16.667 0 -28.5 3.66699 -35.5 11s-10.5 19 -10.5 35v312l-40 -74c-6.66699 -12.667 -15 -22 -25 -28s-22.333 -9 -37 -9h-40c-14.667 0 -27 3 -37 9
s-18.333 15.333 -25 28l-40 74v-312c0 -16 -3.66699 -27.667 -11 -35s-19 -11 -35 -11z" />
    <glyph glyph-name="n" unicode="n" horiz-adv-x="753" 
d="M201 622l367.999 -414.001v422h10v-540h-10v103l-378 424c-0.666992 0.666992 -1.5 1.33398 -2.5 2.00098s-1.83301 1 -2.5 1s-1.16699 -0.333008 -1.5 -1s-0.5 -1.33398 -0.5 -2.00098v-527h-10v529c0 4 1.33301 7 4 9s5.33398 3 8.00098 3s5 -0.666992 7 -2
s4.66699 -3.66602 8 -6.99902zM254.999 -0.000976562c12.667 0 21.833 2.83398 27.5 8.50098s8.5 14.834 8.5 27.501v330l171 -207v-123c0 -12.667 2.83301 -21.834 8.5 -27.501s14.834 -8.5 27.501 -8.5h150c12.667 -0 21.834 2.83301 27.501 8.5s8.5 14.834 8.5 27.501
v648c0 12.667 -2.83301 21.834 -8.5 27.501s-14.834 8.5 -27.501 8.5h-150c-12.667 0 -21.834 -2.83301 -27.501 -8.5s-8.5 -14.834 -8.5 -27.501v-213l-194 222c-8.66699 10 -17.5 17 -26.5 21s-19.833 6 -32.5 6h-104c-12.667 0 -21.834 -2.83301 -27.501 -8.5
s-8.5 -14.834 -8.5 -27.501v-648c0 -12.667 2.83301 -21.834 8.5 -27.501s14.834 -8.5 27.501 -8.5h150zM254.998 -10l-150 0.000976562c-16 0 -27.667 3.66699 -35 11s-11 19 -11 35v648c0 16 3.66699 27.667 11 35s19 11 35 11h104c14.667 0 27 -2.33301 37 -7
s20 -12.334 30 -23.001l176 -201v185c0 16 3.66699 27.667 11 35s19 11 35 11h150c16 0 27.667 -3.66699 35 -11s11 -19 11 -35v-648c0 -16 -3.66699 -27.667 -11 -35s-19 -11 -35 -11h-150c-16 0 -27.667 3.66699 -35 11s-11 19 -11 35v119l-151 183v-302
c0 -16 -3.66699 -27.667 -11 -35s-19 -11 -35 -11z" />
    <glyph glyph-name="o" unicode="o" horiz-adv-x="737" 
d="M689 530v-341c0 -31.333 -4.33301 -60.166 -13 -86.499s-24.834 -48.833 -48.501 -67.5s-56.334 -33.334 -98.001 -44.001s-95.167 -16 -160.5 -16s-118.833 5.33301 -160.5 16s-74.334 25.334 -98.001 44.001s-40 41.167 -49 67.5s-13.5 55.166 -13.5 86.499v341
c0 31.333 4.5 60.166 13.5 86.499s25.333 49 49 68s56.334 33.833 98.001 44.5s95.167 16 160.5 16s118.833 -5.33301 160.5 -16s74.334 -25.5 98.001 -44.5s39.834 -41.667 48.501 -68s13 -55.166 13 -86.499zM679 189v341c0 30.667 -4.5 58.5 -13.5 83.5
s-25 46.5 -48 64.5s-54.667 32 -95 42s-91.5 15 -153.5 15s-113.333 -5 -154 -15s-72.5 -24 -95.5 -42s-39 -39.5 -48 -64.5s-13.5 -52.833 -13.5 -83.5v-341c0 -30.667 4.5 -58.5 13.5 -83.5s25 -46.333 48 -64s54.833 -31.5 95.5 -41.5s92 -15 154 -15s113.167 5 153.5 15
s72 23.833 95 41.5s39 39 48 64s13.5 52.833 13.5 83.5zM570 212c0 -40 -14.333 -72.5 -43 -97.5s-82 -37.5 -160 -37.5s-131 12.5 -159 37.5s-42 57.5 -42 97.5v295c0 40 14 72.5 42 97.5s81 37.5 159 37.5s131.333 -12.5 160 -37.5s43 -57.5 43 -97.5v-295zM176 212
c0 -37.333 13.333 -67.5 40 -90.5s77 -34.5 151 -34.5s124.667 11.5 152 34.5s41 53.167 41 90.5v295c0 37.333 -13.667 67.5 -41 90.5s-78 34.5 -152 34.5s-124.333 -11.5 -151 -34.5s-40 -53.167 -40 -90.5v-295zM285 225v269c0 12.667 5 23.5 15 32.5s33 13.5 69 13.5
s59 -4.5 69 -13.5s15 -19.833 15 -32.5v-269c0 -13.333 -5 -24.5 -15 -33.5s-33 -13.5 -69 -13.5s-59 4.5 -69 13.5s-15 20.167 -15 33.5zM295 494v-269c0 -12 5.16699 -21.167 15.5 -27.5s29.833 -9.5 58.5 -9.5s48.167 3.16699 58.5 9.5s15.5 15.5 15.5 27.5v269
c0 11.333 -5.16699 20.166 -15.5 26.499s-29.833 9.5 -58.5 9.5c-28 0 -47.333 -3.16699 -58 -9.5s-16 -15.166 -16 -26.499z" />
    <glyph glyph-name="p" unicode="p" horiz-adv-x="682" 
d="M105 -10c-16 0 -27.667 3.66699 -35 11s-11 19 -11 35v648c0 16 3.66699 27.667 11 35s19 11 35 11h306c47.333 0 87 -5 119 -15s57.333 -24 76 -42s31.834 -39.667 39.501 -65s11.5 -53 11.5 -83v-128c0 -30 -3.83301 -57.667 -11.5 -83s-20.834 -47 -39.501 -65
s-44 -32 -76 -42s-71.667 -15 -119 -15h-105v-156c0 -16 -3.66699 -27.667 -11 -35s-19 -11 -35 -11h-155zM260 0c12.667 0 21.833 2.83398 27.5 8.50098s8.5 14.834 8.5 27.501v166h115c90.667 0 152.667 18 186 54s50 83 50 141v128c0 58 -16.667 105 -50 141
s-95.333 54 -186 54h-306c-12.667 0 -21.834 -2.83301 -27.501 -8.5s-8.5 -14.834 -8.5 -27.501v-648c0 -12.667 2.83301 -21.834 8.5 -27.501s14.834 -8.5 27.501 -8.5h155zM396.999 287.001h-206v-197h-10v540h216c31.333 0 56.833 -3.5 76.5 -10.5
s34.834 -16.5 45.501 -28.5s18 -26.333 22 -43s6 -34.667 6 -54v-74c0 -19.333 -2 -37.166 -6 -53.499s-11.333 -30.333 -22 -42s-25.834 -20.834 -45.501 -27.501s-45.167 -10 -76.5 -10zM190.999 297.001l206 0.00195312c29.333 0 53.166 3 71.499 9s32.5 14.5 42.5 25.5
s16.833 24 20.5 39s5.5 31.5 5.5 49.5v74c0 18 -1.83301 34.667 -5.5 50s-10.5 28.666 -20.5 39.999s-24.167 20.166 -42.5 26.499s-42.166 9.5 -71.499 9.5h-206v-323zM293.999 533.003h90c19.333 0 32 -5 38 -15s9 -21.333 9 -34v-53c0 -12.667 -3 -24 -9 -34
s-18.667 -15 -38 -15h-90v151zM383.999 523.003h-80v-131h80c15.333 0 25.333 4 30 12s7 17 7 27v53c0 10 -2.33301 19 -7 27s-14.667 12 -30 12z" />
    <glyph glyph-name="q" unicode="q" horiz-adv-x="737" 
d="M291 -100c-16 0 -27.667 3.66797 -35 11.001s-11 19 -11 35v46c-38.667 6.66699 -70.834 16.334 -96.501 29.001s-45.834 27.834 -60.501 45.501s-25 37.667 -31 60s-9 46.166 -9 71.499v332c0 31.333 4.5 60.166 13.5 86.499s25.333 49 49 68s56.334 33.833 98.001 44.5
s95.167 16 160.5 16s118.833 -5.33301 160.5 -16s74.334 -25.5 98.001 -44.5s39.834 -41.667 48.501 -68s13 -55.166 13 -86.499v-332c0 -25.333 -3 -49.333 -9 -72s-16.333 -42.834 -31 -60.501s-34.834 -32.834 -60.501 -45.501s-58.167 -22 -97.5 -28v-46
c0 -16 -3.66699 -27.667 -11 -35s-19 -11 -35 -11h-154zM445 -89.999c12.667 0 21.8311 2.83203 27.498 8.49902s8.5 14.834 8.5 27.501v55c39.333 5.33301 71.833 14 97.5 26s45.834 26.333 60.501 43s25 35.834 31 57.501s9 45.167 9 70.5v332
c0 30.667 -4.5 58.5 -13.5 83.5s-25 46.5 -48 64.5s-54.667 32 -95 42s-91.5 15 -153.5 15s-113.333 -5 -154 -15s-72.5 -24 -95.5 -42s-39 -39.5 -48 -64.5s-13.5 -52.833 -13.5 -83.5v-332c0 -50 13.5 -92.5 40.5 -127.5s79.167 -58.167 156.5 -69.5v-55
c0 -12.667 2.83301 -21.834 8.5 -27.501s14.834 -8.5 27.501 -8.5h154zM361.997 0v77c-76 0.666992 -127.667 13.334 -155 38.001s-41 57 -41 97v295c0 40 14 72.5 42 97.5s81 37.5 159 37.5s131.333 -12.5 160 -37.5s43 -57.5 43 -97.5v-295c0 -40 -14 -72.333 -42 -97
s-80 -37.334 -156 -38.001v-77h-10zM175.997 212c0 -37.333 13.333 -67.5 40 -90.5s77 -34.5 151 -34.5s124.667 11.5 152 34.5s41 53.167 41 90.5v295c0 37.333 -13.667 67.5 -41 90.5s-78 34.5 -152 34.5s-124.333 -11.5 -151 -34.5s-40 -53.167 -40 -90.5v-295z
M284.997 220v273c0 12.667 5 23.5 15 32.5s33 13.5 69 13.5s59 -4.5 69 -13.5s15 -19.833 15 -32.5v-273c0 -13.333 -5 -24.5 -15 -33.5s-33 -13.5 -69 -13.5s-59 4.5 -69 13.5s-15 20.167 -15 33.5zM294.997 493v-273c0 -12 5.16699 -21.167 15.5 -27.5
s29.833 -9.5 58.5 -9.5s48.167 3.16699 58.5 9.5s15.5 15.5 15.5 27.5v273c0 11.333 -5.16699 20.166 -15.5 26.499s-29.833 9.5 -58.5 9.5c-28 0 -47.333 -3.16699 -58 -9.5s-16 -15.166 -16 -26.499z" />
    <glyph glyph-name="r" unicode="r" horiz-adv-x="743" 
d="M405 620h-218v-289h218c41.333 0 69 10 83 30s21 48.333 21 85v70c0 30.667 -8.5 55.667 -25.5 75s-43.167 29 -78.5 29zM295 540h75c17.333 0 29 -4.5 35 -13.5s9 -20.167 9 -33.5v-34c0 -13.333 -3 -24.5 -9 -33.5s-17.667 -13.5 -35 -13.5h-75v128zM370 530h-65v-108
h65c14 0 23.167 3.5 27.5 10.5s6.5 15.833 6.5 26.5v34c0 10.667 -2.16699 19.5 -6.5 26.5s-13.5 10.5 -27.5 10.5zM187 90l-10.001 0.00195312v540h228c38.667 0 67.334 -10.833 86.001 -32.5s28 -48.834 28 -81.501v-69c0 -30.667 -4 -55.834 -12 -75.501
s-24 -33.167 -48 -40.5h11c40.667 0 71 -9.16699 91 -27.5s30 -44.833 30 -79.5v-134h-10v134c0 32.667 -9 57.167 -27 73.5s-46 24.5 -84 24.5h-283v-232zM258.999 0.00195312c12.667 0 21.8311 2.83301 27.498 8.5s8.5 14.834 8.5 27.501v196h140
c14 0 23.833 -3.5 29.5 -10.5s8.5 -17.833 8.5 -32.5v-153c0 -12.667 2.83301 -21.834 8.5 -27.501s14.834 -8.5 27.501 -8.5h155c12.667 0 21.834 2.83301 27.501 8.5s8.5 14.834 8.5 27.501v212c0 42 -11.167 75.667 -33.5 101s-51.5 40 -87.5 44
c20.667 8.66699 35.167 22.834 43.5 42.501s12.5 43.5 12.5 71.5v46c0 49.333 -14.167 89.5 -42.5 120.5s-79.833 46.5 -154.5 46.5h-333c-12.667 0 -21.834 -2.83301 -27.501 -8.5s-8.5 -14.834 -8.5 -27.501v-648c0 -12.667 2.83301 -21.834 8.5 -27.501
s14.834 -8.5 27.501 -8.5h154zM258.996 -9.99805l-153.999 -0.00195312c-16 0 -27.667 3.66699 -35 11s-11 19 -11 35v648c0 16 3.66699 27.667 11 35s19 11 35 11h333c79.333 0 133.666 -16.5 162.999 -49.5s44 -75.5 44 -127.5v-46c0 -24.667 -3 -46.167 -9 -64.5
s-16 -33.166 -30 -44.499c31.333 -8.66699 56.5 -26 75.5 -52s28.5 -58.667 28.5 -98v-212c0 -16 -3.66699 -27.667 -11 -35s-19 -11 -35 -11h-155c-16 0 -27.667 3.66699 -35 11s-11 19 -11 35v153c0 10.667 -2 18.834 -6 24.501s-11.333 8.5 -22 8.5h-130v-186
c0 -16 -3.66699 -27.667 -11 -35s-19 -11 -35 -11z" />
    <glyph glyph-name="s" unicode="s" horiz-adv-x="650" 
d="M620 176c0 -60 -19.333 -106 -58 -138s-91.667 -48 -159 -48h-316c-16 0 -27.667 3.66699 -35 11s-11 19 -11 35v117c0 16 3.66699 27.667 11 35s19 11 35 11h269c5.33301 0 9.33301 2 12 6s4 8.33301 4 13c0 7.33301 -1.33301 13 -4 17s-7 6.33301 -13 7l-150 21
c-50 7.33301 -89.833 23.833 -119.5 49.5s-44.5 67.834 -44.5 126.501v105c0 60 19.167 106 57.5 138s91.5 48 159.5 48h280c16 0 27.667 -3.66699 35 -11s11 -19 11 -35v-119c0 -16 -3.66699 -27.667 -11 -35s-19 -11 -35 -11h-233c-5.33301 0 -9.5 -2 -12.5 -6
s-4.5 -8.66699 -4.5 -14c0 -6 1.5 -11 4.5 -15s7.5 -6.33301 13.5 -7l149 -20c50 -7.33301 90 -23.833 120 -49.5s45 -67.834 45 -126.501v-105zM403 0c64 0 114.502 15.165 151.502 45.498s55.5 73.833 55.5 130.5v105c0 56 -14.333 96 -43 120s-66.334 39.333 -113.001 46
l-149 20c-8.66699 0.666992 -15.334 4 -20.001 10s-7 13.333 -7 22s2.33301 15.834 7 21.501s11.334 8.5 20.001 8.5h233c12.667 0 21.834 2.83301 27.501 8.5s8.5 14.834 8.5 27.501v119c0 12.667 -2.83301 21.834 -8.5 27.501s-14.834 8.5 -27.501 8.5h-280
c-64.667 0 -115.334 -15.167 -152.001 -45.5s-55 -73.833 -55 -130.5v-105c0 -56 14.167 -96 42.5 -120s65.833 -39.333 112.5 -46l150 -21c8.66699 -0.666992 15.167 -3.66699 19.5 -9s6.5 -13.666 6.5 -24.999c0 -8 -2.16699 -14.833 -6.5 -20.5s-10.833 -8.5 -19.5 -8.5
h-269c-12.667 0 -21.834 -2.83301 -27.501 -8.5s-8.5 -14.834 -8.5 -27.501v-117c0 -12.667 2.83301 -21.834 8.5 -27.501s14.834 -8.5 27.501 -8.5h316zM484.002 629.998v-10h-222c-28 0 -50.333 -7.66699 -67 -23s-25 -34.666 -25 -57.999v-82
c0 -23.333 4.66699 -39.666 14 -48.999s21.666 -15.333 36.999 -18l211 -43c20 -4 36.5 -12.667 49.5 -26s19.5 -37.333 19.5 -72v-58c0 -29.333 -10 -53.5 -30 -72.5s-47 -28.5 -81 -28.5h-249v10h249c30.667 0 55.167 8.5 73.5 25.5s27.5 38.833 27.5 65.5v58
c0 31.333 -5.5 52.833 -16.5 64.5s-25.833 19.5 -44.5 23.5l-211 43c-17.333 3.33301 -31.5 10.166 -42.5 20.499s-16.5 29.166 -16.5 56.499v82c0 26.667 9.33301 48.5 28 65.5s43.334 25.5 74.001 25.5h222z" />
    <glyph glyph-name="t" unicode="t" horiz-adv-x="656" 
d="M247 -10c-16 0 -27.667 3.66699 -35 11s-11 19 -11 35v481h-137c-16 0 -27.667 3.66699 -35 11s-11 19 -11 35v121c0 16 3.66699 27.667 11 35s19 11 35 11h528c16 0 27.667 -3.66699 35 -11s11 -19 11 -35v-121c0 -16 -3.66699 -27.667 -11 -35s-19 -11 -35 -11h-137
v-481c0 -16 -3.66699 -27.667 -11 -35s-19 -11 -35 -11h-162zM409 0c12.667 0 21.832 2.83301 27.499 8.5s8.5 14.834 8.5 27.501v491h147c12.667 0 21.834 2.83301 27.501 8.5s8.5 14.834 8.5 27.501v121c0 12.667 -2.83301 21.834 -8.5 27.501s-14.834 8.5 -27.501 8.5
h-528c-12.667 0 -21.834 -2.83301 -27.501 -8.5s-8.5 -14.834 -8.5 -27.501v-121c0 -12.667 2.83301 -21.834 8.5 -27.501s14.834 -8.5 27.501 -8.5h147v-491c0 -12.667 2.83301 -21.834 8.5 -27.501s14.834 -8.5 27.501 -8.5h162zM322.998 90v530h-205v10h420v-10h-205
v-530h-10z" />
    <glyph glyph-name="u" unicode="u" horiz-adv-x="746" 
d="M692 684l0.00292969 -495c0 -31.333 -4.5 -60.166 -13.5 -86.499s-25.167 -48.833 -48.5 -67.5s-55.833 -33.334 -97.5 -44.001s-94.834 -16 -159.501 -16s-117.834 5.33301 -159.501 16s-74.167 25.334 -97.5 44.001s-39.5 41.167 -48.5 67.5s-13.5 55.166 -13.5 86.499
v495c0 16 3.66699 27.667 11 35s19 11 35 11h157c16 0 27.667 -3.66699 35 -11s11 -19 11 -35v-456c0 -12 5.16699 -21.167 15.5 -27.5s29.166 -9.5 56.499 -9.5c28 0 47.167 3.16699 57.5 9.5s15.5 15.5 15.5 27.5v456c0 16 3.5 27.667 10.5 35s18.833 11 35.5 11h152
c16 0 27.667 -3.66699 35 -11s11 -19 11 -35zM682.003 189l0.00390625 495c0 12.667 -2.83301 21.834 -8.5 27.501s-14.834 8.5 -27.501 8.5h-152c-12.667 0 -21.834 -2.83301 -27.501 -8.5s-8.5 -14.834 -8.5 -27.501v-456c0 -13.333 -5 -24.5 -15 -33.5
s-32.667 -13.5 -68 -13.5c-34.667 0 -57 4.5 -67 13.5s-15 20.167 -15 33.5v456c0 12.667 -2.83301 21.834 -8.5 27.501s-14.834 8.5 -27.501 8.5h-157c-12.667 0 -21.834 -2.83301 -27.501 -8.5s-8.5 -14.834 -8.5 -27.501v-495c0 -30.667 4.5 -58.5 13.5 -83.5
s25 -46.333 48 -64s54.5 -31.5 94.5 -41.5s91 -15 153 -15s113 5 153 15s71.5 23.833 94.5 41.5s39 39 48 64s13.5 52.833 13.5 83.5zM174.007 630h10v-417c0 -37.333 13.167 -67.5 39.5 -90.5s76.5 -34.5 150.5 -34.5s124.333 11.5 151 34.5s40 53.167 40 90.5v417h10v-417
c0 -40 -14 -72.5 -42 -97.5s-81 -37.5 -159 -37.5s-130.833 12.5 -158.5 37.5s-41.5 57.5 -41.5 97.5v417z" />
    <glyph glyph-name="v" unicode="v" horiz-adv-x="730" 
d="M555 29c-6 -14.667 -13.668 -24.834 -23.001 -30.501s-21.666 -8.5 -36.999 -8.5h-260c-15.333 0 -27.666 2.83301 -36.999 8.5s-17 15.834 -23 30.501l-98 245l-15.5 39.5c-4.33301 11 -7.83301 21.667 -10.5 32s-4.5 21.333 -5.5 33s-1.5 25.5 -1.5 41.5v264
c0 16 3.66699 27.667 11 35s19 11 35 11h159c16 0 28.167 -3.83301 36.5 -11.5s12.5 -19.167 12.5 -34.5v-276c0 -6.66699 0.666992 -13 2 -19s3 -12.333 5 -19l48 -140c0.666992 -3.33301 1.66699 -5.83301 3 -7.5s3.33301 -2.5 6 -2.5h11
c2.66699 0 4.66699 0.833008 6 2.5s2.66602 4.16699 3.99902 7.5l47 141c2 6.66699 3.66699 13 5 19s2 12.333 2 19v275c0 16 3.66699 27.667 11 35s19 11 35 11h157c16.667 0 28.5 -3.66699 35.5 -11s10.5 -19 10.5 -35v-264c0 -16 -0.5 -29.833 -1.5 -41.5
s-2.83301 -22.667 -5.5 -33s-6.16699 -21 -10.5 -32l-15.5 -39.5zM494.999 0c12.667 0 23.1709 2.33301 31.5039 7s14.833 13.334 19.5 26.001l98 245c6 14.667 11 27.5 15 38.5s7.33301 21.5 10 31.5s4.5 20.5 5.5 31.5s1.5 24.5 1.5 40.5v264
c0 12.667 -2.83301 21.834 -8.5 27.501s-14.834 8.5 -27.501 8.5h-157c-12.667 0 -21.834 -2.83301 -27.501 -8.5s-8.5 -14.834 -8.5 -27.501v-275c0 -6.66699 -0.666992 -13.334 -2 -20.001s-3.33301 -13.667 -6 -21l-47 -141c-2 -6.66699 -4.33301 -11.167 -7 -13.5
s-6.66699 -3.5 -12 -3.5h-11c-5.33301 0 -9.33301 1.16699 -12 3.5s-5 6.83301 -7 13.5l-47 140c-2.66699 7.33301 -4.66699 14.333 -6 21s-2 13.334 -2 20.001v276c0 12.667 -3.33301 21.834 -10 27.501s-16.334 8.5 -29.001 8.5h-159
c-12.667 0 -21.834 -2.83301 -27.501 -8.5s-8.5 -14.834 -8.5 -27.501v-264c0 -16 0.5 -29.5 1.5 -40.5s2.83301 -21.5 5.5 -31.5s6 -20.5 10 -31.5s9 -23.833 15 -38.5l98 -245c4.66699 -12.667 11.167 -21.334 19.5 -26.001s18.833 -7 31.5 -7h260zM167.003 630h10v-216
c0 -17.333 1.33301 -33.833 4 -49.5s6.66699 -30.167 12 -43.5l66 -160c6.66699 -17.333 14.167 -31.833 22.5 -43.5s21.833 -17.5 40.5 -17.5h88c18.667 0 32.167 5.83301 40.5 17.5s15.833 26.167 22.5 43.5l66 160c5.33301 13.333 9.33301 27.833 12 43.5
s4 32.167 4 49.5v216h10v-216c0 -18.667 -1.16699 -35.834 -3.5 -51.501s-6.5 -30.834 -12.5 -45.501l-66 -160c-8 -19.333 -17 -35.333 -27 -48s-25.333 -19 -46 -19h-88c-20.667 0 -36 6.33301 -46 19s-19 28.667 -27 48l-66 160c-6 14.667 -10.167 29.834 -12.5 45.501
s-3.5 32.834 -3.5 51.501v216z" />
    <glyph glyph-name="w" unicode="w" horiz-adv-x="831" 
d="M439 345c10.667 0 19.332 -3.16699 25.999 -9.5s14.334 -18.833 23.001 -37.5l82 -184c2.66699 -6.66699 6.66699 -10.667 12 -12s10.333 -2 15 -2h5c5.33301 0 10.333 2.16699 15 6.5s7.33398 9.16602 8.00098 14.499l25 114c2.66699 12.667 4.16699 29 4.5 49
s0.5 37.333 0.5 52v294h10v-295c0 -14.667 -0.166992 -32 -0.5 -52s-1.83301 -36.333 -4.5 -49l-25 -113c-2.66699 -10.667 -6.83398 -18.5 -12.501 -23.5s-12.5 -7.5 -20.5 -7.5h-7c-6 0 -12.333 1.16699 -19 3.5s-11.334 6.83301 -14.001 13.5l-82 186
c-8 18 -14.833 29.5 -20.5 34.5s-12.5 7.5 -20.5 7.5h-45c-8 0 -14.833 -2.5 -20.5 -7.5s-12.5 -16.5 -20.5 -34.5l-82 -186c-2.66699 -6.66699 -7.33398 -11.167 -14.001 -13.5s-13 -3.5 -19 -3.5h-7c-8 0 -14.833 2.5 -20.5 7.5s-9.83398 12.833 -12.501 23.5l-25 113
c-2.66699 12.667 -4.16699 29 -4.5 49s-0.5 37.333 -0.5 52v295h10v-294c0 -14.667 0.166992 -32 0.5 -52s1.83301 -36.333 4.5 -49l25 -114c0.666992 -5.33301 3.33398 -10.166 8.00098 -14.499s9.66699 -6.5 15 -6.5h5c4.66699 0 9.66699 0.666992 15 2
s9.33301 5.33301 12 12l82 184c8.66699 18.667 16.334 31.167 23.001 37.5s15.334 9.5 26.001 9.5h45zM585.998 720c-12.667 0 -21.832 -2.83105 -27.499 -8.49805s-8.5 -14.834 -8.5 -27.501v-368l-58 126c-5.33301 11.333 -12.333 19.333 -21 24s-19.334 7 -32.001 7h-42
c-12.667 0 -23.334 -2.33301 -32.001 -7s-15.667 -12.667 -21 -24l-58 -126v368c0 12.667 -2.83301 21.834 -8.5 27.501s-14.834 8.5 -27.501 8.5h-154c-12.667 0 -21.834 -2.83301 -27.501 -8.5s-8.5 -14.834 -8.5 -27.501v-386c0 -21.333 0.833008 -41.166 2.5 -59.499
s6.83398 -39.833 15.501 -64.5l50 -138c3.33301 -10.667 8.83301 -19.334 16.5 -26.001s16.834 -10 27.501 -10h132c10.667 0 19.667 2.5 27 7.5s12.333 12.5 15 22.5l47 163c2 6.66699 4.5 11.167 7.5 13.5s6.5 3.5 10.5 3.5h9c4 0 7.5 -1.16699 10.5 -3.5
s5.5 -6.83301 7.5 -13.5l46 -163c2.66699 -10.667 8.33398 -18.334 17.001 -23.001s18.334 -7 29.001 -7h133c10.667 0 19.167 3.5 25.5 10.5s11.166 15.5 14.499 25.5l50 136c8.66699 24.667 13.834 46.167 15.501 64.5s2.5 38.166 2.5 59.499v388
c0 12.667 -2.83301 21.834 -8.5 27.501s-14.834 8.5 -27.501 8.5h-149zM304 -9.99805h-132.002c-12.667 0 -23.667 4 -33 12s-16 18.333 -20 31l-50 138c-9.33301 24.667 -14.833 46.5 -16.5 65.5s-2.5 39.5 -2.5 61.5v386c0 16 3.66699 27.667 11 35s19 11 35 11h154
c16 0 27.667 -3.66699 35 -11s11 -19 11 -35v-323l39 85c6.66699 13.333 14.834 22.833 24.501 28.5s22.167 8.5 37.5 8.5h42c15.333 0 27.833 -2.83301 37.5 -8.5s17.834 -15.167 24.501 -28.5l39 -85v323c0 16 3.5 27.667 10.5 35s18.833 11 35.5 11h149
c16 0 27.667 -3.66699 35 -11s11 -19 11 -35v-388c0 -22 -0.833008 -42.5 -2.5 -61.5s-7.16699 -40.833 -16.5 -65.5l-50 -136c-4 -12.667 -10 -23 -18 -31s-18.333 -12 -31 -12h-133c-13.333 0 -25 3 -35 9s-17 15.333 -21 28l-46 163c-0.666992 2.66699 -1.66699 5 -3 7
s-3 3 -5 3h-9c-2 0 -3.66699 -1 -5 -3s-2.33301 -4.33301 -3 -7l-47 -163c-4 -12 -10.5 -21.167 -19.5 -27.5s-19.833 -9.5 -32.5 -9.5z" />
    <glyph glyph-name="x" unicode="x" horiz-adv-x="737" 
d="M177 135l-0.000976562 -45h-10v45c0 14.667 0.5 28.5 1.5 41.5s5.5 24.833 13.5 35.5l120 164l-120 162c-7.33301 10.667 -11.666 22.5 -12.999 35.5s-2 26.833 -2 41.5v15h10v-15c0 -14 0.666992 -27.333 2 -40s5.33301 -23.667 12 -33l120 -162h119l116 162
c6.66699 9.33301 10.667 20.333 12 33s2 26 2 40v15h10v-15c0 -14.667 -0.666992 -28.5 -2 -41.5s-5.66602 -24.833 -12.999 -35.5l-118 -164l118 -162c7.33301 -10.667 11.666 -22.5 12.999 -35.5s2 -26.833 2 -41.5v-45h-10v45c0 14 -0.666992 27.333 -2 40
s-5.33301 23.667 -12 33l-117 162h-120l-118 -162c-6.66699 -8.66699 -10.667 -19.5 -12 -32.5s-2 -26.5 -2 -40.5zM283.999 36l0.000976562 99c0 6.66699 0.333008 13.667 1 21s3.33398 14.333 8.00098 21l45 63c4 6 7.66699 10.333 11 13s7.66602 4 12.999 4h14
c5.33301 0 9.66602 -1.33301 12.999 -4s7 -7 11 -13l44 -63c4.66699 -6.66699 7.33398 -13.667 8.00098 -21s1 -14.333 1 -21v-99c0 -12.667 2.83301 -21.834 8.5 -27.501s14.834 -8.5 27.501 -8.5h152c12.667 0 21.834 2.83301 27.501 8.5s8.5 14.834 8.5 27.501v107
c0 30.667 -2.5 53.667 -7.5 69s-15.167 33.333 -30.5 54l-81 108l81 110c14.667 20.667 24.667 38.667 30 54s8 38.333 8 69v77c0 12.667 -2.83301 21.834 -8.5 27.501s-14.834 8.5 -27.501 8.5h-152c-12.667 0 -21.834 -2.83301 -27.501 -8.5s-8.5 -14.834 -8.5 -27.501
v-69c0 -6.66699 -0.333008 -13.667 -1 -21s-3.33398 -14.333 -8.00098 -21l-45 -63c-4 -5.33301 -7.66699 -9.5 -11 -12.5s-7.66602 -4.5 -12.999 -4.5h-12c-5.33301 0 -9.83301 1.5 -13.5 4.5s-7.16699 7.16699 -10.5 12.5l-44 63
c-4.66699 6.66699 -7.33398 13.667 -8.00098 21s-1 14.333 -1 21v69c0 12.667 -2.83301 21.834 -8.5 27.501s-14.834 8.5 -27.501 8.5h-154c-12.667 0 -21.834 -2.83301 -27.501 -8.5s-8.5 -14.834 -8.5 -27.501v-77c0 -30.667 2.5 -53.667 7.5 -69s15.167 -33.333 30.5 -54
l81 -109l-81 -109c-14.667 -20.667 -24.667 -38.667 -30 -54s-8 -38.333 -8 -69v-107c0 -12.667 2.83301 -21.834 8.5 -27.501s14.834 -8.5 27.501 -8.5h152c12.667 0 21.834 2.83301 27.501 8.5s8.5 14.834 8.5 27.501zM248 -10h-152c-16 0 -27.667 3.66699 -35 11
s-11 19 -11 35v107c0 32.667 2.66699 57 8 73s16 34.667 32 56l77 103l-77 103c-16 21.333 -26.667 40 -32 56s-8 40.333 -8 73v77c0 16 3.66699 27.667 11 35s19 11 35 11h154c16 0 27.667 -3.66699 35 -11s11 -19 11 -35v-69c0 -6 0.166992 -12.167 0.5 -18.5
s2.5 -12.166 6.5 -17.499l44 -64l7 -8.5c2 -2.33301 5 -3.5 9 -3.5h12c4 0 7 1.33301 9 4l7 9l45 63c4 5.33301 6.16699 11.166 6.5 17.499s0.5 12.5 0.5 18.5v69c0 16 3.66699 27.667 11 35s19 11 35 11h152c16 0 27.667 -3.66699 35 -11s11 -19 11 -35v-77
c0 -32.667 -2.66699 -57 -8 -73s-16 -34.667 -32 -56l-77 -104l77 -102c16 -21.333 26.667 -40 32 -56s8 -40.333 8 -73v-107c0 -16 -3.66699 -27.667 -11 -35s-19 -11 -35 -11h-152c-16 0 -27.667 3.66699 -35 11s-11 19 -11 35v99c0 6 -0.166992 12 -0.5 18
s-2.5 12 -6.5 18l-44 63c-2.66699 4 -5 7.16699 -7 9.5s-5 3.5 -9 3.5h-14c-4 0 -7 -1.16699 -9 -3.5s-4.33301 -5.5 -7 -9.5l-45 -63c-4 -6 -6.16699 -12 -6.5 -18s-0.5 -12 -0.5 -18v-99c0 -16 -3.66699 -27.667 -11 -35s-19 -11 -35 -11z" />
    <glyph glyph-name="y" unicode="y" horiz-adv-x="705" 
d="M272 -10c-16.667 0 -28.498 3.66699 -35.498 11s-10.5 19 -10.5 35v125l-151 202c-16 21.333 -26.667 40 -32 56s-8 40.333 -8 73v192c0 16 3.66699 27.667 11 35s19 11 35 11h154c16 0 27.667 -3.66699 35 -11s11 -19 11 -35v-164c0 -6 0.333008 -12 1 -18
s2.66699 -12.333 6 -19l47 -72c2 -4 4.16699 -7 6.5 -9s5.16602 -3 8.49902 -3h10c3.33301 0 6.16602 1 8.49902 3s4.83301 5 7.5 9l46 72c3.33301 6.66699 5.33301 13 6 19s1 12 1 18v164c0 16 3.66699 27.667 11 35s19 11 35 11h149c16 0 27.667 -3.66699 35 -11
s11 -19 11 -35v-192c0 -32.667 -2.66699 -57 -8 -73s-16 -34.667 -32 -56l-150 -203v-124c0 -16 -3.66699 -27.667 -11 -35s-19 -11 -35 -11h-162zM434.002 0c12.667 0 21.8379 2.83301 27.5049 8.5s8.5 14.834 8.5 27.501v127l152 206c14.667 20.667 24.667 38.667 30 54
s8 38.333 8 69v192c0 12.667 -2.83301 21.834 -8.5 27.501s-14.834 8.5 -27.501 8.5h-149c-12.667 0 -21.834 -2.83301 -27.501 -8.5s-8.5 -14.834 -8.5 -27.501v-164c0 -6.66699 -0.333008 -13.667 -1 -21s-3.33398 -14.333 -8.00098 -21l-46 -72
c-3.33301 -6 -6.83301 -10.333 -10.5 -13s-8.16699 -4 -13.5 -4h-10c-5.33301 0 -9.83301 1.33301 -13.5 4s-7.16699 7 -10.5 13l-46 72c-4.66699 6.66699 -7.33398 13.667 -8.00098 21s-1 14.333 -1 21v164c0 12.667 -2.83301 21.834 -8.5 27.501s-14.834 8.5 -27.501 8.5
h-154c-12.667 0 -21.834 -2.83301 -27.501 -8.5s-8.5 -14.834 -8.5 -27.501v-192c0 -30.667 2.5 -53.667 7.5 -69s15.167 -33.333 30.5 -54l153 -205v-128c0 -12.667 2.83301 -21.834 8.5 -27.501s14.834 -8.5 27.501 -8.5h162zM365.006 261l-6.99707 -0.00195312v-171h-10
v171h-10c-14.667 0 -27.834 3.33301 -39.501 10s-22.834 17.334 -33.501 32.001l-97 135c-7.33301 10 -11.666 21.667 -12.999 35s-2 27.333 -2 42v115h10v-115c0 -14 0.666992 -27.167 2 -39.5s5.33301 -23.5 12 -33.5l97 -135c8.66699 -13.333 18.667 -22.666 30 -27.999
s22.666 -8 33.999 -8h27c12.667 0 24.167 2.83301 34.5 8.5s20.5 14.834 30.5 27.501l100 135c6.66699 8.66699 10.667 19.5 12 32.5s2 26.5 2 40.5v115h10v-115c0 -14.667 -0.5 -28.5 -1.5 -41.5s-5.5 -24.833 -13.5 -35.5l-100 -135
c-10.667 -14.667 -21.834 -25.334 -33.501 -32.001s-25.167 -10 -40.5 -10z" />
    <glyph glyph-name="z" unicode="z" horiz-adv-x="660" 
d="M82 -10c-16 0 -27.667 3.66797 -35 11.001s-11 19 -11 35v134c0 14.667 2.16699 27.167 6.5 37.5s11.166 20.5 20.499 30.5l230 279h-193c-16 0 -27.667 3.66699 -35 11s-11 19 -11 35v121c0 16 3.66699 27.667 11 35s19 11 35 11h460c16 0 27.667 -3.66699 35 -11
s11 -19 11 -35v-149c0 -14.667 -2.16699 -27.334 -6.5 -38.001s-11.166 -21 -20.499 -31l-219 -265h218c16 0 27.667 -3.66699 35 -11s11 -19 11 -35v-119c0 -16 -3.66699 -27.667 -11 -35s-19 -11 -35 -11h-496zM578 0.000976562c12.667 0 21.834 2.83398 27.501 8.50098
s8.5 14.834 8.5 27.501v119c0 12.667 -2.83301 21.834 -8.5 27.501s-14.834 8.5 -27.501 8.5h-239l232 281c8.66699 9.33301 15 18.833 19 28.5s6 21.167 6 34.5v149c0 12.667 -2.83301 21.834 -8.5 27.501s-14.834 8.5 -27.501 8.5h-460
c-12.667 0 -21.834 -2.83301 -27.501 -8.5s-8.5 -14.834 -8.5 -27.501v-121c0 -12.667 2.83301 -21.834 8.5 -27.501s14.834 -8.5 27.501 -8.5h214l-243 -295c-8.66699 -9.33301 -15 -18.833 -19 -28.5s-6 -20.834 -6 -33.501v-134c0 -12.667 2.83301 -21.834 8.5 -27.501
s14.834 -8.5 27.501 -8.5h496zM473 544.002l-293 -376c-4.66699 -6 -8.16699 -11 -10.5 -15s-3.5 -9.33301 -3.5 -16v-14c0 -9.33301 2.16699 -15.5 6.5 -18.5s9.16602 -4.5 14.499 -4.5h337v-10h-337c-10.667 0 -18.5 2.66699 -23.5 8s-7.5 13.666 -7.5 24.999v16
c0 7.33301 1.66699 13.833 5 19.5s7.33301 11.5 12 17.5l293 376c4.66699 6 8.16699 11 10.5 15s3.5 9.33301 3.5 16v14c0 9.33301 -2.16699 15.5 -6.5 18.5s-9.16602 4.5 -14.499 4.5h-305v10h305c10.667 0 18.5 -2.66699 23.5 -8s7.5 -13.666 7.5 -24.999v-16
c0 -7.33301 -1.66699 -13.833 -5 -19.5s-7.33301 -11.5 -12 -17.5z" />
    <glyph glyph-name="braceleft" unicode="{" horiz-adv-x="455" 
d="M330 -90c-49.333 0 -90.5 5.33105 -123.5 15.998s-59.333 25.334 -79 44.001s-33.5 41.167 -41.5 67.5s-12 55.166 -12 86.499v122c-21.333 8 -37.333 19.667 -48 35s-16 35.333 -16 60v35c0 24.667 5.33301 44.5 16 59.5s26.667 26.5 48 34.5v125
c0 31.333 4 60.333 12 87s21.833 49.334 41.5 68.001s46 33.334 79 44.001s74.167 16 123.5 16h44c16 0 27.667 -3.66699 35 -11s11 -19 11 -35v-121c0 -16 -3.66699 -27.667 -11 -35s-19 -11 -35 -11h-21c-12.667 0 -21 -3.5 -25 -10.5s-6 -16.833 -6 -29.5v-117
c0 -23.333 -3.83301 -40.333 -11.5 -51s-21.5 -17.667 -41.5 -21l-34 -6c-1.33301 0 -2.33301 -0.333008 -3 -1s-1 -1.66699 -1 -3s0.5 -2.33301 1.5 -3s2.16699 -1 3.5 -1l33 -6c20 -3.33301 33.833 -10.333 41.5 -21s11.5 -27.667 11.5 -51v-115
c0 -12.667 2 -22.5 6 -29.5s12.333 -10.5 25 -10.5h21c16 0 27.667 -3.66699 35 -11s11 -19 11 -35v-119c0 -16 -3.66699 -27.667 -11 -35s-19 -11 -35 -11h-44zM312 160.998v114.997c0 20 -3.16699 34.667 -9.5 44s-18.166 15.333 -35.499 18l-33 6
c-4.66699 0.666992 -8 2 -10 4s-3 5.33301 -3 10s1 8 3 10s5.33301 3.33301 10 4l33 6c17.333 2.66699 29.166 8.66699 35.499 18s9.5 24 9.5 44v117c0 17.333 2.83301 30 8.5 38s16.5 12 32.5 12h21c12.667 0 21.834 2.83301 27.501 8.5s8.5 14.834 8.5 27.501v121
c0 12.667 -2.83301 21.834 -8.5 27.501s-14.834 8.5 -27.501 8.5h-44c-94 0 -158.5 -19 -193.5 -57s-52.5 -87.333 -52.5 -148v-133c-21.333 -6.66699 -37.333 -16.667 -48 -30s-16 -32 -16 -56v-35c0 -24 5.33301 -42.833 16 -56.5s26.667 -23.834 48 -30.501v-130
c0 -60 17.5 -109 52.5 -147s99.5 -57 193.5 -57h44c12.667 0 21.834 2.83301 27.501 8.5s8.5 14.834 8.5 27.501v119c0 12.667 -2.83301 21.834 -8.5 27.501s-14.834 8.5 -27.501 8.5h-21c-16 0 -26.833 4 -32.5 12s-8.5 20.667 -8.5 38zM320 10.9951
c-43.333 0 -75.332 9.33691 -95.999 28.0039s-31 47 -31 85v151c-20 2.66699 -35.667 9.66699 -47 21s-17 27.333 -17 48v28c0 21.333 5.66699 37.5 17 48.5s27 17.833 47 20.5v154c0 42 10.167 71.333 30.5 88s52.5 25 96.5 25v-10c-40 0 -69.5 -7.33301 -88.5 -22
s-28.5 -41.667 -28.5 -81v-162c-23.333 -2.66699 -39.833 -8.83398 -49.5 -18.501s-14.5 -23.834 -14.5 -42.501v-28c0 -18.667 5 -32.834 15 -42.501s26.333 -15.834 49 -18.501v-159c0 -34.667 9.66699 -60.5 29 -77.5s48.666 -25.5 87.999 -25.5v-10z" />
    <glyph glyph-name="bar" unicode="|" horiz-adv-x="347" 
d="M246 820c16 0 27.667 -3.66699 35 -11s11 -19 11 -35v-828c0 -16 -3.66699 -27.667 -11 -35s-19 -11 -35 -11h-145c-16 0 -27.667 3.66699 -35 11s-11 19 -11 35v828c0 16 3.66699 27.667 11 35s19 11 35 11h145zM282 774c0 12.667 -2.83301 21.834 -8.5 27.501
s-14.834 8.5 -27.501 8.5h-145c-12.667 0 -21.834 -2.83301 -27.501 -8.5s-8.5 -14.834 -8.5 -27.501v-828c0 -12.667 2.83301 -21.834 8.5 -27.501s14.834 -8.5 27.501 -8.5h145c12.667 0 21.834 2.83301 27.501 8.5s8.5 14.834 8.5 27.501v828zM169 720h10v-720h-10v720z
" />
    <glyph glyph-name="braceright" unicode="}" horiz-adv-x="455" 
d="M81 -90c-16 0 -27.667 3.66895 -35 11.002s-11 19 -11 35v119c0 16 3.66699 27.667 11 35s19 11 35 11h21c12.667 0 21 3.5 25 10.5s6 16.833 6 29.5v115c0 23.333 3.83301 40.333 11.5 51s21.5 17.667 41.5 21l33 6c1.33301 0 2.5 0.333008 3.5 1s1.5 1.66699 1.5 3
s-0.333008 2.33301 -1 3s-1.66699 1 -3 1h-1l-33 6c-20 3.33301 -33.833 10.333 -41.5 21s-11.5 27.667 -11.5 51v117c0 12.667 -2 22.5 -6 29.5s-12.333 10.5 -25 10.5h-21c-16 0 -27.667 3.66699 -35 11s-11 19 -11 35v121c0 16 3.66699 27.667 11 35s19 11 35 11h44
c49.333 0 90.5 -5.33301 123.5 -16s59.333 -25.334 79 -44.001s33.5 -41.334 41.5 -68.001s12 -55.667 12 -87v-125c21.333 -8 37.333 -19.5 48 -34.5s16 -34.833 16 -59.5v-35c0 -24.667 -5.33301 -44.667 -16 -60s-26.667 -27 -48 -35v-122
c0 -31.333 -4 -60.166 -12 -86.499s-21.833 -48.833 -41.5 -67.5s-46 -33.334 -79 -44.001s-74.167 -16 -123.5 -16h-44zM143 161.002c0 -17.333 -2.83301 -29.9971 -8.5 -37.9971s-16.5 -12 -32.5 -12h-21c-12.667 0 -21.834 -2.83301 -27.501 -8.5
s-8.5 -14.834 -8.5 -27.501v-119c0 -12.667 2.83301 -21.834 8.5 -27.501s14.834 -8.5 27.501 -8.5h44c94 0 158.5 19 193.5 57s52.5 87 52.5 147v130c21.333 6.66699 37.333 16.834 48 30.501s16 32.5 16 56.5v35c0 24 -5.33301 42.667 -16 56s-26.667 23.333 -48 30v133
c0 60.667 -17.5 110 -52.5 148s-99.5 57 -193.5 57h-44c-12.667 0 -21.834 -2.83301 -27.501 -8.5s-8.5 -14.834 -8.5 -27.501v-121c0 -12.667 2.83301 -21.834 8.5 -27.501s14.834 -8.5 27.501 -8.5h21c16 0 26.833 -4 32.5 -12s8.5 -20.667 8.5 -38v-117
c0 -20 3.16699 -34.667 9.5 -44s18.166 -15.333 35.499 -18l33 -6c4.66699 -0.666992 8 -2 10 -4s3 -5.33301 3 -10s-1 -8 -3 -10s-5.33301 -3.33301 -10 -4l-33 -6c-17.333 -2.66699 -29.166 -8.66699 -35.499 -18s-9.5 -24 -9.5 -44v-115zM262 124.005
c0 -38 -10.332 -66.3369 -30.999 -85.0039s-52.667 -28 -96 -28v10c39.333 0 68.666 8.5 87.999 25.5s29 42.833 29 77.5v159c22.667 2.66699 39 8.83398 49 18.501s15 23.834 15 42.501v28c0 18.667 -4.83301 32.834 -14.5 42.501s-26.167 15.834 -49.5 18.501v162
c0 39.333 -9.5 66.333 -28.5 81s-48.5 22 -88.5 22v10c44 0 76.167 -8.33301 96.5 -25s30.5 -46 30.5 -88v-154c20 -2.66699 35.667 -9.5 47 -20.5s17 -27.167 17 -48.5v-28c0 -20.667 -5.66699 -36.667 -17 -48s-27 -18.333 -47 -21v-151z" />
    <glyph glyph-name="asciitilde" unicode="~" horiz-adv-x="734" 
d="M630 277c-26 -9.33301 -47.832 -15.999 -65.499 -19.999s-34.667 -6.16699 -51 -6.5s-34 0.833984 -53 3.50098l-71.5 10l-23 3l-40 5c-26.667 4 -48.667 6.66699 -66 8s-33 1.33301 -47 0s-27.833 -3.66602 -41.5 -6.99902s-29.5 -8 -47.5 -14
c-24 -6 -40.667 -5.16699 -50 2.5s-14 18.5 -14 32.5v106c0 20.667 4.33301 35.167 13 43.5s19 14.5 31 18.5c26 9.33301 47.833 16 65.5 20s34.5 6.16699 50.5 6.5s33.5 -0.833984 52.5 -3.50098l71.5 -10l24 -3l31 -4c30.667 -4.66699 55.167 -7.83398 73.5 -9.50098
s34.166 -2 47.499 -1s26.5 3.33301 39.5 7l49.5 14.5c22.667 6.66699 39.167 6.16699 49.5 -1.5s15.5 -20.834 15.5 -39.501v-99c0 -20.667 -4.66699 -35.167 -14 -43.5s-19.333 -14.5 -30 -18.5zM367.001 277.001l22.9961 -2.99902l70 -10
c18.667 -2.66699 36 -3.83398 52 -3.50098s32.833 2.5 50.5 6.5s39.167 10.333 64.5 19c8.66699 3.33301 17 8.66602 25 15.999s12 19.666 12 36.999v99c0 14.667 -4.33301 24.667 -13 30s-21.667 5.66602 -39 0.999023l-51 -14.5c-13.333 -3.66699 -26.833 -6 -40.5 -7
s-29.667 -0.666992 -48 1s-43.166 4.83398 -74.499 9.50098l-31 4l-24 3l-70.5 10c-18.333 2.66699 -35.5 3.83398 -51.5 3.50098s-32.667 -2.5 -50 -6.5s-38.666 -10.333 -63.999 -19c-10 -3.33301 -18.667 -8.66602 -26 -15.999s-11 -19.666 -11 -36.999v-106
c0 -11.333 4.33301 -19.5 13 -24.5s21.334 -5.16699 38.001 -0.5c18.667 6 34.834 10.667 48.501 14s27.667 5.66602 42 6.99902s30.5 1.33301 48.5 0s40.333 -4 67 -8zM159.997 368.002v11.0029c24 6.66699 47.167 10.167 69.5 10.5s55.166 -2.83398 98.499 -9.50098l40 -5
l23 -3c22.667 -3.33301 42 -6.33301 58 -9s30.667 -4.33398 44 -5.00098s26.333 -0.166992 39 1.5s26.667 4.5 42 8.5v-11c-15.333 -4 -29.333 -6.66699 -42 -8s-25.834 -1.5 -39.501 -0.5s-28.667 2.66699 -45 5l-58.5 8.5l-23 3l-40 5
c-21.333 3.33301 -39.666 5.66602 -54.999 6.99902s-29.166 1.83301 -41.499 1.5s-24 -1.33301 -35 -3s-22.5 -4.16699 -34.5 -7.5z" />
    <glyph glyph-name="uni00A0" unicode="&#xa0;" horiz-adv-x="225" 
 />
    <glyph glyph-name="exclamdown" unicode="&#xa1;" horiz-adv-x="423" 
d="M85 684c0 12.667 2.83301 21.834 8.5 27.501s14.834 8.5 27.501 8.5h184c12.667 0 21.834 -2.83301 27.501 -8.5s8.5 -14.834 8.5 -27.501v-131c0 -12.667 -2.83301 -21.834 -8.5 -27.501s-14.834 -8.5 -27.501 -8.5h-184c-12.667 0 -21.834 2.83301 -27.501 8.5
s-8.5 14.834 -8.5 27.501v131zM331 684c0 8.66699 -2.16699 15.167 -6.5 19.5s-10.833 6.5 -19.5 6.5h-184c-8.66699 0 -15.167 -2.16699 -19.5 -6.5s-6.5 -10.833 -6.5 -19.5v-131c0 -9.33301 2.16699 -16 6.5 -20s10.833 -6 19.5 -6h184c8.66699 0 15.167 2 19.5 6
s6.5 10.667 6.5 20v131zM208 640h10v-43h-10v43zM98 422c0.666992 12.667 3.83008 21.834 9.49707 27.501s14.834 8.5 27.501 8.5h155c12.667 0 22 -2.83301 28 -8.5s9.33301 -14.834 10 -27.501l14 -386c0.666992 -12.667 -1.66602 -21.834 -6.99902 -27.501
s-14.333 -8.5 -27 -8.5h-191c-12.667 0 -21.667 2.83301 -27 8.5s-7.66602 14.834 -6.99902 27.501zM317.996 422c-0.666992 8.66699 -3.33203 15.167 -7.99902 19.5s-11.334 6.5 -20.001 6.5h-155c-8.66699 0 -15.167 -2.16699 -19.5 -6.5s-6.83301 -10.833 -7.5 -19.5
l-15 -386c-0.666992 -8.66699 1 -15.167 5 -19.5s10.333 -6.5 19 -6.5h191c8.66699 0 15 2.16699 19 6.5s5.66699 10.833 5 19.5zM217.998 90h-10v278h10v-278z" />
    <glyph glyph-name="cent" unicode="&#xa2;" horiz-adv-x="628" 
d="M290 -60c-16 0 -27.667 3.66699 -35 11s-11 19 -11 35v47c-74.667 8.66699 -126 32 -154 70s-42 85 -42 141v231c0 56 14 103.167 42 141.5s79.333 61.833 154 70.5v47c0 16 3.66699 27.667 11 35s19 11 35 11h145c16 0 27.667 -3.66699 35 -11s11 -19 11 -35v-44h67
c16 0 27.667 -3.66699 35 -11s11 -19 11 -35v-121c0 -16 -3.66699 -27.667 -11 -35s-19 -11 -35 -11h-201c-20.667 0 -34.334 -4 -41.001 -12s-10 -17.333 -10 -28v-158c0 -11.333 3.33301 -20.5 10 -27.5s20.334 -10.5 41.001 -10.5h201c16 0 27.667 -3.66699 35 -11
s11 -19 11 -35v-119c0 -16 -3.66699 -27.667 -11 -35s-19 -11 -35 -11h-67v-44c0 -16 -3.66699 -27.667 -11 -35s-19 -11 -35 -11h-145zM471 -14v53.998h77c12.667 0 21.834 2.83301 27.501 8.5s8.5 14.834 8.5 27.501v119c0 12.667 -2.83301 21.834 -8.5 27.501
s-14.834 8.5 -27.501 8.5h-201c-26 0 -42.667 4.5 -50 13.5s-11 20.5 -11 34.5v158c0 12.667 3.66699 24.167 11 34.5s24 15.5 50 15.5h201c12.667 0 21.834 2.83301 27.501 8.5s8.5 14.834 8.5 27.501v121c0 12.667 -2.83301 21.834 -8.5 27.501s-14.834 8.5 -27.501 8.5
h-77v54c0 12.667 -2.83301 21.834 -8.5 27.501s-14.834 8.5 -27.501 8.5h-145c-12.667 0 -21.834 -2.83301 -27.501 -8.5s-8.5 -14.834 -8.5 -27.501v-56c-74 -6.66699 -125.167 -28.5 -153.5 -65.5s-42.5 -82.833 -42.5 -137.5v-231
c0 -54.667 14.167 -100.334 42.5 -137.001s79.5 -58.334 153.5 -65.001v-56c0 -12.667 2.83301 -21.834 8.5 -27.501s14.834 -8.5 27.501 -8.5h145c12.667 0 21.834 2.83301 27.501 8.5s8.5 14.834 8.5 27.501zM358 130.998h-31.999c-64.667 0 -107.5 10 -128.5 30
s-31.5 53 -31.5 99v197c0 47.333 10.667 81 32 101s64 30 128 30h32v92h10v-92h125v-10h-167c-58.667 0 -98.334 -9.16699 -119.001 -27.5s-31 -49.5 -31 -93.5v-197c0 -43.333 10 -74 30 -92s60 -27 120 -27h167v-10h-125v-91h-10v91z" />
    <glyph glyph-name="sterling" unicode="&#xa3;" horiz-adv-x="695" 
d="M105 -10c-16 0 -27.666 3.66699 -34.999 11s-11 19 -11 35v219h-3c-16 0 -27.667 3.5 -35 10.5s-11 18.833 -11 35.5v107c0 16 3.66699 27.667 11 35s19 11 35 11h3v62c0 31.333 4 60.166 12 86.499s21.833 48.833 41.5 67.5s46 33.334 79 44.001s74.167 16 123.5 16h190
c16 0 27.667 -3.66699 35 -11s11 -19 11 -35v-121c0 -16 -3.66699 -27.667 -11 -35s-19 -11 -35 -11h-148c-20.667 0 -34.334 -4 -41.001 -12s-10 -17.333 -10 -28v-23h38c16 0 27.667 -3.5 35 -10.5s11 -18.833 11 -35.5v-107c0 -16.667 -3.66699 -28.5 -11 -35.5
s-19 -10.5 -35 -10.5h-38v-56h117v92c0 16 3.66699 27.667 11 35s19 11 35 11h145c16 0 27.667 -3.66699 35 -11s11 -19 11 -35v-255c0 -16 -3.66699 -27.667 -11 -35s-19 -11 -35 -11h-509zM650.001 36v254.998c0 12.667 -2.83301 21.834 -8.5 27.501
s-14.834 8.5 -27.501 8.5h-145c-12.667 0 -21.834 -2.83301 -27.501 -8.5s-8.5 -14.834 -8.5 -27.501v-102h-137v76h48c12.667 0 21.834 2.83301 27.501 8.5s8.5 14.834 8.5 27.501v107c0 12.667 -2.83301 21.834 -8.5 27.501s-14.834 8.5 -27.501 8.5h-48v33
c0 12.667 3.66699 24.167 11 34.5s24 15.5 50 15.5h148c12.667 0 21.834 2.83301 27.501 8.5s8.5 14.834 8.5 27.501v121c0 12.667 -2.83301 21.834 -8.5 27.501s-14.834 8.5 -27.501 8.5h-190c-94 0 -158.5 -19 -193.5 -57s-52.5 -87 -52.5 -147v-72h-13
c-12.667 0 -21.834 -2.83301 -27.501 -8.5s-8.5 -14.834 -8.5 -27.501v-107c0 -12.667 2.83301 -21.834 8.5 -27.501s14.834 -8.5 27.501 -8.5h13v-229c0 -12.667 2.83301 -21.834 8.5 -27.501s14.834 -8.5 27.501 -8.5h509c12.667 0 21.834 2.83301 27.501 8.5
s8.5 14.834 8.5 27.501zM546.001 236.998v-146.999h-368v259h-68v10h68v157c0 43.333 12.167 73.166 36.5 89.499s57.833 24.5 100.5 24.5h136v-10h-136c-38.667 0 -69.5 -7.33301 -92.5 -22s-34.5 -42 -34.5 -82v-157h102v-10h-102v-249h348v137h10z" />
    <glyph glyph-name="currency" unicode="&#xa4;" horiz-adv-x="821" 
d="M192 1c-10 -10.667 -19.8271 -16.3301 -29.4941 -16.9971s-20.834 5 -33.501 17l-76 76c-10.667 11.333 -16 22.166 -16 32.499s5.33301 20.5 16 30.5l90 90c-0.666992 4.66699 -1 9.66699 -1 15v15v199v16c0 5.33301 0.333008 10.333 1 15l-90 90
c-10.667 10 -16.334 20 -17.001 30s5 20.667 17 32l76 76c11.333 12 22.166 17.833 32.499 17.5s20.5 -6.16602 30.5 -17.499l80 -80c18.667 4.66699 39.667 8.5 63 11.5s49.666 4.5 78.999 4.5c28.667 0 54.5 -1.33301 77.5 -4s43.5 -6.33398 61.5 -11.001l79 79
c10 11.333 20 17.333 30 18s20.667 -5.33301 32 -18l76 -76c12.667 -11.333 18.667 -22 18 -32s-6.66699 -20 -18 -30l-87 -87c0.666992 -5.33301 1.16699 -10.833 1.5 -16.5s0.5 -11.5 0.5 -17.5v-199c0 -6 -0.166992 -11.833 -0.5 -17.5s-0.833008 -10.834 -1.5 -15.501
l87 -87c11.333 -10 17.333 -19.833 18 -29.5s-5.33301 -20.834 -18 -33.501l-76 -76c-11.333 -12 -22 -17.667 -32 -17s-20 6.33398 -30 17.001l-80 80c-18 -4.66699 -38.333 -8.33398 -61 -11.001s-48.334 -4 -77.001 -4s-54.834 1.33301 -78.501 4s-44.5 6.66699 -62.5 12
zM185.006 8.00391l84.9971 85c18.667 -5.33301 39.834 -9.5 63.501 -12.5s50.5 -4.5 80.5 -4.5c28.667 0 54.834 1.5 78.501 4.5s44.5 6.83301 62.5 11.5l84 -84c8 -8.66699 15.833 -13 23.5 -13s15.834 4.33301 24.501 13l76 76c9.33301 9.33301 13.833 17.833 13.5 25.5
s-4.83301 15.5 -13.5 23.5l-90 90c0.666992 6 1.16699 12 1.5 18s0.5 12.333 0.5 19v199c0 6.66699 -0.166992 13.167 -0.5 19.5s-0.833008 12.5 -1.5 18.5l90 90c8.66699 8 13.167 15.833 13.5 23.5s-4.16699 15.834 -13.5 24.501l-76 76
c-8.66699 9.33301 -16.834 13.833 -24.501 13.5s-15.5 -4.83301 -23.5 -13.5l-84 -84c-18 5.33301 -38.667 9.5 -62 12.5s-49.666 4.5 -78.999 4.5c-30 0 -57 -1.5 -81 -4.5s-45 -7.5 -63 -13.5l-85 85c-8 8.66699 -16 13 -24 13s-16.333 -4.33301 -25 -13l-76 -76
c-8.66699 -8.66699 -13 -16.834 -13 -24.501s4.33301 -15.5 13 -23.5l94 -94c-0.666992 -5.33301 -1.16699 -10.833 -1.5 -16.5s-0.5 -11.5 -0.5 -17.5v-199c0 -5.33301 0.166992 -11 0.5 -17s0.833008 -11.333 1.5 -16l-94 -94c-8.66699 -8 -13 -16 -13 -24
s4.33301 -16.333 13 -25l76 -76c9.33301 -8.66699 17.833 -13 25.5 -13s15.5 4.33301 23.5 13zM659.003 110.004l-92.002 94c-12 -15.333 -30 -27.5 -54 -36.5s-57 -13.5 -99 -13.5s-75.167 4.5 -99.5 13.5s-42.166 21.167 -53.499 36.5l-92 -94l-8 6l94 96
c-6.66699 10.667 -11.167 22.667 -13.5 36s-3.5 27.333 -3.5 42v142c0 15.333 1.33301 30 4 44s7.33398 26.333 14.001 37l-93 95l8 6l91 -93c12 14.667 30.167 26.334 54.5 35.001s56.833 13 97.5 13s73.167 -4.33301 97.5 -13s42.166 -20.667 53.499 -36l92 94l8 -6
l-94 -96c6.66699 -10.667 11.334 -22.834 14.001 -36.501s4 -28.167 4 -43.5v-142c0 -14.667 -1.16699 -28.5 -3.5 -41.5s-6.83301 -24.833 -13.5 -35.5l95 -97zM414.001 164.004c33.333 0 60.833 3 82.5 9s38.5 14.5 50.5 25.5s20.333 24.333 25 40s7 32.834 7 51.501v142
c0 19.333 -2.33301 36.833 -7 52.5s-13 29 -25 40s-28.833 19.5 -50.5 25.5s-49.167 9 -82.5 9c-34 0 -61.833 -3 -83.5 -9s-38.5 -14.5 -50.5 -25.5s-20.333 -24.333 -25 -40s-7 -33.167 -7 -52.5v-142c0 -18.667 2.33301 -35.834 7 -51.501s13 -29 25 -40
s28.833 -19.5 50.5 -25.5s49.5 -9 83.5 -9zM334.001 289.004v141c0 12.667 4.83301 23.167 14.5 31.5s31.5 12.5 65.5 12.5s55.833 -4.16699 65.5 -12.5s14.5 -18.833 14.5 -31.5v-141c0 -12.667 -4.83301 -23.334 -14.5 -32.001s-31.5 -13 -65.5 -13
s-55.833 4.33301 -65.5 13s-14.5 19.334 -14.5 32.001zM344.001 430.004v-141c0 -11.333 5 -20 15 -26s28.333 -9 55 -9s45 3 55 9s15 14.667 15 26v141c0 10.667 -5 19 -15 25s-28.333 9 -55 9s-45 -3 -55 -9s-15 -14.333 -15 -25z" />
    <glyph glyph-name="yen" unicode="&#xa5;" horiz-adv-x="703" 
d="M276 -10c-16.667 0 -28.502 3.66602 -35.502 10.999s-10.5 19 -10.5 35v84h-99c-16 0 -27.667 3.5 -35 10.5s-11 18.833 -11 35.5v97c0 16 3.66699 27.667 11 35s19 11 35 11h33l-99 127c-14.667 20 -23.5 41 -26.5 63s-4.5 46.333 -4.5 73v112
c0 16 3.66699 27.667 11 35s19 11 35 11h155c16 0 27.667 -3.66699 35 -11s11 -19 11 -35v-144c0 -6.66699 0.333008 -12.667 1 -18s2.33398 -11.333 5.00098 -18l46 -64c2.66699 -4 5.33398 -7.16699 8.00098 -9.5s6 -3.5 10 -3.5h12c4 0 7.33301 1 10 3
s5.33398 5.33301 8.00098 10l43 63c3.33301 6.66699 5.16602 12.834 5.49902 18.501s0.5 11.5 0.5 17.5v145c0 16 3.5 27.667 10.5 35s18.833 11 35.5 11h147c16 0 27.667 -3.66699 35 -11s11 -19 11 -35v-113c0 -26.667 -1.5 -51 -4.5 -73s-11.833 -43 -26.5 -63l-97 -126
h32c16 0 27.667 -3.5 35 -10.5s11 -18.833 11 -35.5v-97c0 -16.667 -3.66699 -28.5 -11 -35.5s-19 -10.5 -35 -10.5h-99v-84c0 -16 -3.66699 -27.667 -11 -35s-19 -11 -35 -11h-152zM463.998 35.999l0.00195312 93.999h109c12.667 0 21.834 2.83301 27.501 8.5
s8.5 14.834 8.5 27.501v97c0 12.667 -2.83301 21.834 -8.5 27.501s-14.834 8.5 -27.501 8.5h-53l110 142c14 18.667 22.333 38.667 25 60s4 44.666 4 69.999v113c0 12.667 -2.83301 21.834 -8.5 27.501s-14.834 8.5 -27.501 8.5h-147
c-12.667 0 -21.834 -2.83301 -27.501 -8.5s-8.5 -14.834 -8.5 -27.501v-145c0 -6.66699 -0.166992 -13.5 -0.5 -20.5s-2.83301 -13.833 -7.5 -20.5l-43 -64c-4 -6 -8 -10.333 -12 -13s-8.66699 -4 -14 -4h-12c-5.33301 0 -10 1.5 -14 4.5s-8 7.16699 -12 12.5l-46 65
c-3.33301 7.33301 -5.5 14.333 -6.5 21s-1.5 13.334 -1.5 20.001v144c0 12.667 -2.83301 21.834 -8.5 27.501s-14.834 8.5 -27.501 8.5h-155c-12.667 0 -21.834 -2.83301 -27.501 -8.5s-8.5 -14.834 -8.5 -27.501v-112c0 -25.333 1.16699 -48.666 3.5 -69.999
s10.833 -41.333 25.5 -60l111 -143h-53c-12.667 0 -21.834 -2.83301 -27.501 -8.5s-8.5 -14.834 -8.5 -27.501v-97c0 -12.667 2.83301 -21.834 8.5 -27.501s14.834 -8.5 27.501 -8.5h109v-94c0 -12.667 2.83301 -21.834 8.5 -27.501s14.834 -8.5 27.501 -8.5h152
c12.667 0 21.834 2.83301 27.501 8.5s8.5 14.834 8.5 27.501zM519 208.998h-161v-119h-10v119h-163v10h163v90h-18c-14.667 0 -27.167 2.83301 -37.5 8.5s-20.833 15.834 -31.5 30.501l-86 115c-8.66699 14.667 -14.5 28.834 -17.5 42.501s-4.5 31.834 -4.5 54.501v70h10
v-70c0 -21.333 1.33301 -38.333 4 -51s8 -26 16 -40l86 -115c10 -12.667 19.5 -21.667 28.5 -27s19.833 -8 32.5 -8h47c12.667 0 23.5 2.66699 32.5 8s18.5 14.333 28.5 27l86 115c8 14 13.333 27.333 16 40s4 29.667 4 51v70h10v-70c0 -22.667 -1.5 -40.834 -4.5 -54.501
s-8.83301 -27.834 -17.5 -42.501l-86 -115c-10.667 -14.667 -21.167 -24.834 -31.5 -30.501s-22.833 -8.5 -37.5 -8.5h-19v-90h161v-10z" />
    <glyph glyph-name="brokenbar" unicode="&#xa6;" horiz-adv-x="347" 
d="M246 820c16 0 27.667 -3.66699 35 -11s11 -19 11 -35v-338c0 -16 -3.66699 -27.667 -11 -35s-19 -11 -35 -11h-145c-16 0 -27.667 3.66699 -35 11s-11 19 -11 35v338c0 16 3.66699 27.667 11 35s19 11 35 11h145zM282 774c0 12.667 -2.83301 21.834 -8.5 27.501
s-14.834 8.5 -27.501 8.5h-145c-12.667 0 -21.834 -2.83301 -27.501 -8.5s-8.5 -14.834 -8.5 -27.501v-338c0 -12.667 2.83301 -21.834 8.5 -27.501s14.834 -8.5 27.501 -8.5h145c12.667 0 21.834 2.83301 27.501 8.5s8.5 14.834 8.5 27.501v338zM169 720h10v-230h-10v230z
M246 330c16 0 27.667 -3.66699 35 -11s11 -19 11 -35v-338c0 -16 -3.66699 -27.667 -11 -35s-19 -11 -35 -11h-145c-16 0 -27.667 3.66699 -35 11s-11 19 -11 35v338c0 16 3.66699 27.667 11 35s19 11 35 11h145zM282 284c0 12.667 -2.83301 21.834 -8.5 27.501
s-14.834 8.5 -27.501 8.5h-145c-12.667 0 -21.834 -2.83301 -27.501 -8.5s-8.5 -14.834 -8.5 -27.501v-338c0 -12.667 2.83301 -21.834 8.5 -27.501s14.834 -8.5 27.501 -8.5h145c12.667 0 21.834 2.83301 27.501 8.5s8.5 14.834 8.5 27.501v338zM169 230h10v-230h-10v230z
" />
    <glyph glyph-name="section" unicode="&#xa7;" horiz-adv-x="650" 
d="M98 -10c-16 0 -27.667 3.66699 -35 11s-11 19 -11 35v81c0 16 3.66699 27.667 11 35s19 11 35 11h233c18.667 0 31.5 3.16699 38.5 9.5s10.833 13.833 11.5 22.5h-83c-49.333 0 -90.5 5.33301 -123.5 16s-59.333 25.334 -79 44.001s-33.5 41.167 -41.5 67.5
s-12 55.166 -12 86.499v106c0 31.333 4 60.333 12 87s21.833 49.334 41.5 68.001s46 33.334 79 44.001s74.167 16 123.5 16h240c16 0 27.667 -3.66699 35 -11s11 -19 11 -35v-81c0 -16 -3.66699 -27.667 -11 -35s-19 -11 -35 -11h-207c-18.667 0 -31.5 -3.16699 -38.5 -9.5
s-10.833 -13.833 -11.5 -22.5h83c49.333 0 90.5 -5.33301 123.5 -16s59.333 -25.334 79 -44.001s33.5 -41.167 41.5 -67.5s12 -55.166 12 -86.499v-106c0 -31.333 -4 -60.333 -12 -87s-21.833 -49.334 -41.5 -68.001s-46 -33.334 -79 -44.001s-74.167 -16 -123.5 -16h-266z
M364 0c94 0 158.5 19 193.5 57s52.5 87.333 52.5 148v106c0 60 -17.5 109 -52.5 147s-99.5 57 -193.5 57h-94v2c0 12.667 3.66699 24.167 11 34.5s24 15.5 50 15.5h207c12.667 0 21.834 2.83301 27.501 8.5s8.5 14.834 8.5 27.501v81c0 12.667 -2.83301 21.834 -8.5 27.501
s-14.834 8.5 -27.501 8.5h-240c-94 0 -158.5 -19 -193.5 -57s-52.5 -87.333 -52.5 -148v-106c0 -60 17.5 -109 52.5 -147s99.5 -57 193.5 -57h94v-2c0 -12.667 -3.66699 -24.167 -11 -34.5s-24 -15.5 -50 -15.5h-233c-12.667 0 -21.834 -2.83301 -27.501 -8.5
s-8.5 -14.834 -8.5 -27.501v-81c0 -12.667 2.83301 -21.834 8.5 -27.501s14.834 -8.5 27.501 -8.5h266zM151 72v10h211c52.667 0 90.5 8.5 113.5 25.5s34.5 48.167 34.5 93.5v59h-203c-53.333 0 -91.833 12.833 -115.5 38.5s-35.5 57.167 -35.5 94.5v126
c0 48 12.167 81.5 36.5 100.5s64.833 28.5 121.5 28.5h171v-10h-171c-52.667 0 -90.5 -8.5 -113.5 -25.5s-34.5 -48.167 -34.5 -93.5v-59h203c53.333 0 91.833 -12.667 115.5 -38s35.5 -57 35.5 -95v-126c0 -48 -12.167 -81.5 -36.5 -100.5s-64.833 -28.5 -121.5 -28.5h-211
zM307 270l203 0.00195312v57c0 35.333 -11.167 64.666 -33.5 87.999s-58.166 35 -107.499 35h-203v-57c0 -34.667 11.167 -63.834 33.5 -87.501s58.166 -35.5 107.499 -35.5zM331 326.002c-26 0 -42.667 4.5 -50 13.5s-11 20.5 -11 34.5v20h61c26 0 42.667 -4.5 50 -13.5
s11 -20.5 11 -34.5v-20h-61zM331 336.002h51v10c0 11.333 -3.33301 20.5 -10 27.5s-20.334 10.5 -41.001 10.5h-51v-10c0 -11.333 3.33301 -20.5 10 -27.5s20.334 -10.5 41.001 -10.5z" />
    <glyph glyph-name="dieresis" unicode="&#xa8;" horiz-adv-x="500" 
d="M231 793c0 -14.667 -3.5 -25.5 -10.5 -32.5s-17.833 -10.5 -32.5 -10.5h-138c-14.667 0 -25.667 3.5 -33 10.5s-11 17.833 -11 32.5v121c0 14.667 3.66699 25.5 11 32.5s18.333 10.5 33 10.5h138c14.667 0 25.5 -3.5 32.5 -10.5s10.5 -17.833 10.5 -32.5v-121zM489 793
c0 -14.667 -3.5 -25.5 -10.5 -32.5s-17.833 -10.5 -32.5 -10.5h-138c-14.667 0 -25.5 3.5 -32.5 10.5s-10.5 17.833 -10.5 32.5v121c0 14.667 3.5 25.5 10.5 32.5s17.833 10.5 32.5 10.5h138c14.667 0 25.5 -3.5 32.5 -10.5s10.5 -17.833 10.5 -32.5v-121zM188 760
c11.333 0 19.666 2.66699 24.999 8s8 13.666 8 24.999v121c0 11.333 -2.66699 19.666 -8 24.999s-13.666 8 -24.999 8h-138c-11.333 0 -19.833 -2.66699 -25.5 -8s-8.5 -13.666 -8.5 -24.999v-121c0 -11.333 2.83301 -19.666 8.5 -24.999s14.167 -8 25.5 -8h138zM446 760
c11.333 0 19.666 2.66699 24.999 8s8 13.666 8 24.999v121c0 11.333 -2.66699 19.666 -8 24.999s-13.666 8 -24.999 8h-138c-11.333 0 -19.666 -2.66699 -24.999 -8s-8 -13.666 -8 -24.999v-121c0 -11.333 2.66699 -19.666 8 -24.999s13.666 -8 24.999 -8h138zM124 830h-10
v47h10v-47zM382 830h-10v47h10v-47z" />
    <glyph glyph-name="copyright" unicode="&#xa9;" horiz-adv-x="867" 
d="M817 564v-410c0 -37.333 -5.33301 -71.666 -16 -102.999s-30 -58.166 -58 -80.499s-67 -39.833 -117 -52.5s-114 -19 -192 -19c-77.333 0 -141 6.33301 -191 19s-89.333 30.167 -118 52.5s-48.334 49.166 -59.001 80.499s-16 65.666 -16 102.999v410
c0 37.333 5.33301 71.833 16 103.5s30.334 58.834 59.001 81.501s68 40.334 118 53.001s113.667 19 191 19c78 0 142 -6.33301 192 -19s89 -30.334 117 -53.001s47.333 -49.834 58 -81.501s16 -66.167 16 -103.5zM807 154v410c0 36.667 -5.33301 70.167 -16 100.5
s-29.834 56.333 -57.501 78s-65.834 38.5 -114.501 50.5s-110.334 18 -185.001 18s-136.334 -6 -185.001 -18s-86.834 -28.833 -114.501 -50.5s-47 -47.667 -58 -78s-16.5 -63.833 -16.5 -100.5v-410c0 -36 5.5 -69.167 16.5 -99.5s30.333 -56.166 58 -77.499
s65.834 -38 114.501 -50s110.334 -18 185.001 -18s136.334 6 185.001 18s86.834 28.667 114.501 50s46.834 47.166 57.501 77.499s16 63.5 16 99.5zM762 568l-0.00195312 -418c0 -25.333 -4 -50 -12 -74s-23.667 -45.167 -47 -63.5s-56.5 -33 -99.5 -44
s-99.5 -16.5 -169.5 -16.5s-126.667 5 -170 15s-76.666 23.833 -99.999 41.5s-39 38.667 -47 63s-12 50.5 -12 78.5v418c0 26 3.16699 51 9.5 75s20.666 45.333 42.999 64s55.333 33.5 99 44.5s102.834 16.5 177.501 16.5s133.834 -5.5 177.501 -16.5
s76.5 -25.833 98.5 -44.5s36.167 -40 42.5 -64s9.5 -49 9.5 -75zM433.998 -38c66 0 119.834 5.16699 161.501 15.5s74 24.166 97 41.499s38.667 37.333 47 60s12.5 46.334 12.5 71.001v418c0 24.667 -3.16699 48.5 -9.5 71.5s-20.5 43.333 -42.5 61s-54.167 31.667 -96.5 42
s-98.833 15.5 -169.5 15.5s-127.167 -5.16699 -169.5 -15.5s-74.5 -24.333 -96.5 -42s-36.333 -38 -43 -61s-10 -46.833 -10 -71.5v-418c0 -27.333 4.16699 -52.5 12.5 -75.5s24.166 -42.833 47.499 -59.5s55.833 -29.667 97.5 -39s95.5 -14 161.5 -14zM706.999 150
c0 -21.333 -4 -41 -12 -59s-22 -33.333 -42 -46s-47.833 -22.5 -83.5 -29.5s-80.834 -10.5 -135.501 -10.5s-99.834 3.5 -135.501 10.5s-63.667 16.833 -84 29.5s-34.5 28 -42.5 46s-12 37.667 -12 59v418c0 21.333 4 41.166 12 59.499s22.167 33.833 42.5 46.5
s48.333 22.667 84 30s80.834 11 135.501 11s99.834 -3.66699 135.501 -11s63.5 -17.333 83.5 -30s34 -28.167 42 -46.5s12 -38.166 12 -59.499v-418zM433.999 15c50.667 0 93 3.16699 127 9.5s61 15.333 81 27s34.167 25.834 42.5 42.501s12.5 35.334 12.5 56.001v418
c0 20.667 -4.16699 39.5 -12.5 56.5s-22.5 31.5 -42.5 43.5s-47 21.167 -81 27.5s-76.333 9.5 -127 9.5s-93.167 -3.16699 -127.5 -9.5s-61.5 -15.5 -81.5 -27.5s-34.167 -26.5 -42.5 -43.5s-12.5 -35.833 -12.5 -56.5v-418c0 -20.667 4.16699 -39.334 12.5 -56.001
s22.5 -30.834 42.5 -42.501s47.167 -20.667 81.5 -27s76.833 -9.5 127.5 -9.5zM624.999 136c0 -12.667 -2.83301 -21.8311 -8.5 -27.498s-14.834 -8.5 -27.501 -8.5h-175c-72 0 -121 14.667 -147 44s-39 66.666 -39 111.999v223c0 46 13 83.667 39 113s75 44 147 44h175
c12.667 0 21.834 -2.83301 27.501 -8.5s8.5 -14.834 8.5 -27.501v-87c0 -12 -2.83301 -20.833 -8.5 -26.5s-14.834 -8.5 -27.501 -8.5h-144c-13.333 0 -22.333 -2.66699 -27 -8s-7 -11.333 -7 -18v-171c0 -7.33301 2.33301 -13.166 7 -17.499s13.667 -6.5 27 -6.5h144
c12.667 0 21.834 -2.83301 27.501 -8.5s8.5 -14.834 8.5 -27.501v-85zM588.999 110.003c8.66699 0 15.167 2.16602 19.5 6.49902s6.5 10.833 6.5 19.5v85c0 8.66699 -2.16699 15.167 -6.5 19.5s-10.833 6.5 -19.5 6.5h-144c-18.667 0 -30.667 3.16699 -36 9.5
s-8 14.5 -8 24.5v171c0 8.66699 2.66699 16.834 8 24.501s17.333 11.5 36 11.5h144c8.66699 0 15.167 2 19.5 6s6.5 10.333 6.5 19v87c0 8.66699 -2.16699 15.167 -6.5 19.5s-10.833 6.5 -19.5 6.5h-175c-67.333 0 -113.5 -13.5 -138.5 -40.5s-37.5 -62.5 -37.5 -106.5v-223
c0 -43.333 12.5 -78.5 37.5 -105.5s71.167 -40.5 138.5 -40.5h175zM550.999 173.002l-121.001 0.000976562c-46 0 -77 7.16699 -93 21.5s-24 38.5 -24 72.5v201c0 34 8.33301 58.167 25 72.5s47.334 21.5 92.001 21.5h121v-9h-121c-41.333 0 -69.5 -6.5 -84.5 -19.5
s-22.5 -34.833 -22.5 -65.5v-201c0 -30.667 7.33301 -52.334 22 -65.001s43 -19 85 -19h121v-10z" />
    <glyph glyph-name="ordfeminine" unicode="&#xaa;" horiz-adv-x="520" 
d="M122 420v-21.001h273v21c0 12.667 -1.16699 24.334 -3.5 35.001s-5.16602 20.667 -8.49902 30l-48 115c-5.33301 12.667 -10.833 22.834 -16.5 30.501s-15.167 11.5 -28.5 11.5h-67c-14 0 -23.833 -3.83301 -29.5 -11.5s-10.834 -17.5 -15.501 -29.5l-45 -116
c-3.33301 -9.33301 -6 -19.333 -8 -30s-3 -22.334 -3 -35.001zM243 567.999c0.666992 2.66699 1.66699 5 3 7s3 3 5 3h13c1.33301 0 3 -1 5 -3s3.33301 -4.33301 4 -7l34 -105h-99zM253 564.999l-30.999 -92h71l-29 91l0.5 2c0.333008 1.33301 0.166016 2 -0.500977 2h-13
c-0.666992 0 -0.5 -0.5 0.5 -1.5s1.5 -1.16699 1.5 -0.5v-1zM395.001 269.999l-0.000976562 119.999h-273v-120h-9v150c0 12.667 1 24.667 3 36s5 22 9 32l45 116c4.66699 12.667 10.334 23.667 17.001 33s18 14 34 14h70c15.333 0 26.5 -4.66699 33.5 -14
s13.167 -20.666 18.5 -33.999l49 -115c4 -10 7 -20.667 9 -32s3 -23.333 3 -36v-150h-9zM199 231.998l-0.00195312 94.999h117v-95c0 -10 2.5 -17.5 7.5 -22.5s12.5 -7.5 22.5 -7.5h108c10.667 0 18.334 2.5 23.001 7.5s7 12.5 7 22.5v179c0 20 -2 39.167 -6 57.5
s-8.66699 35.166 -14 50.499l-62 169c-4.66699 11.333 -10.5 19.5 -17.5 24.5s-16.833 7.5 -29.5 7.5h-189c-13.333 0 -23.5 -2.5 -30.5 -7.5s-12.833 -13.167 -17.5 -24.5l-30.5 -84c-11 -29.333 -21.167 -57.666 -30.5 -84.999c-6 -15.333 -11 -32.166 -15 -50.499
s-6 -37.5 -6 -57.5v-179c0 -10 2.5 -17.5 7.5 -22.5s12.5 -7.5 22.5 -7.5h103c10.667 0 18.334 2.5 23.001 7.5s7 12.5 7 22.5zM65.998 191.997c-13.333 0 -23.333 3.33594 -30 10.0029s-10 16.667 -10 30v179c0 20.667 2 40.5 6 59.5s9.33301 36.167 16 51.5
c9.33301 27.333 19.5 55.666 30.5 84.999s21.167 57.666 30.5 84.999c6 13.333 13 23 21 29s20 9 36 9h189c15.333 0 27 -3 35 -9s15 -16 21 -30l62 -169c6 -16 11 -33.333 15 -52s6 -38.334 6 -59.001v-179c0 -13.333 -3 -23.333 -9 -30s-16.333 -10 -31 -10h-108
c-13.333 0 -23.333 3.33301 -30 10s-10 16.667 -10 30v85h-97v-85c0 -13.333 -3.16699 -23.333 -9.5 -30s-16.5 -10 -30.5 -10h-103zM447.998 -10h-376c-16 0 -27.667 3.5 -35 10.5s-11 18.833 -11 35.5v67c0 16 3.66699 27.667 11 35s19 11 35 11h376
c16 0 27.667 -3.5 35 -10.5s11 -18.833 11 -35.5v-67c0 -16.667 -3.66699 -28.5 -11 -35.5s-19 -10.5 -35 -10.5zM71.998 0h376c12.667 -0 21.834 2.83301 27.501 8.5s8.5 14.834 8.5 27.501v67c0 12.667 -2.83301 21.834 -8.5 27.501s-14.834 8.5 -27.501 8.5h-376
c-12.667 0 -21.834 -2.83301 -27.501 -8.5s-8.5 -14.834 -8.5 -27.501v-67c0 -12.667 2.83301 -21.834 8.5 -27.501s14.834 -8.5 27.501 -8.5zM413.998 73v-8h-308v8h308z" />
    <glyph glyph-name="guillemotleft" unicode="&#xab;" horiz-adv-x="812" 
d="M762 140c0 -16.667 -4.16797 -28.835 -12.501 -36.502s-20.5 -9.16699 -36.5 -4.5l-169 48c-44 12.667 -77.333 30.334 -100 53.001s-34 60 -34 112v74c0 52 11.333 89.333 34 112s56 40.334 100 53.001l169 49c14.667 4.66699 26.5 3 35.5 -5s13.5 -20 13.5 -36v-114
c0 -15.333 -3.66699 -27.666 -11 -36.999s-17.666 -16.333 -30.999 -21h-1v-1l-95 -28c-3.33301 -0.666992 -5.83301 -1.5 -7.5 -2.5s-2.5 -3.16699 -2.5 -6.5s0.833008 -5.5 2.5 -6.5s4.16699 -1.83301 7.5 -2.5l95 -27c14.667 -4.66699 25.5 -11.834 32.5 -21.501
s10.5 -22.167 10.5 -37.5v-114zM355.999 105.999c12 -3.33301 21.002 -1.99902 27.002 4.00098s9 15 9 27v117c0 12.667 -3 23.167 -9 31.5s-15 14.166 -27 17.499l-95 27c-6.66699 2.66699 -11.167 5 -13.5 7s-3.5 6 -3.5 12s1.16699 10 3.5 12s6.83301 4.33301 13.5 7
l95 28c11.333 4.66699 20.166 10.834 26.499 18.501s9.5 17.834 9.5 30.501v117c0 12.667 -3.33301 21.667 -10 27s-15.334 6.66602 -26.001 3.99902l-179 -52c-41.333 -12.667 -72.833 -29.334 -94.5 -50.001s-32.5 -55.667 -32.5 -105v-74
c0 -49.333 10.833 -84.5 32.5 -105.5s53.167 -37.5 94.5 -49.5zM716.001 109c12 -3.33301 21 -2 27 4s9 15 9 27v114c0 12.667 -3 23.167 -9 31.5s-15 14.166 -27 17.499l-95 27c-6.66699 2 -11.167 4.16699 -13.5 6.5s-3.5 6.5 -3.5 12.5s1.16699 10.167 3.5 12.5
s6.83301 4.5 13.5 6.5l95 28c11.333 4.66699 20.166 10.834 26.499 18.501s9.5 17.834 9.5 30.501v114c0 11.333 -3.16699 20.166 -9.5 26.499s-15.166 7.83301 -26.499 4.5l-169 -49c-42 -12 -73.667 -28.5 -95 -49.5s-32 -56.167 -32 -105.5v-74
c0 -49.333 10.833 -84.5 32.5 -105.5s53.167 -37.5 94.5 -49.5zM573.001 457l98.999 30.0029v-10l-97 -30c-15.333 -4.66699 -28.166 -10.834 -38.499 -18.501s-15.5 -21.834 -15.5 -42.501v-74c0 -20.667 5.16699 -35 15.5 -43s22.833 -14 37.5 -18l98 -29v-10l-100 29
c-18 4.66699 -32.667 11.834 -44 21.501s-17 26.167 -17 49.5v74c0 23.333 5.66699 39.666 17 48.999s26.333 16.666 45 21.999zM204 251.003l97.999 -28.9951v-10l-100 29c-18 4.66699 -32.667 11.834 -44 21.501s-17 26.167 -17 49.5v74
c0 23.333 5.66699 39.666 17 48.999s26.333 16.666 45 21.999l99 30v-10l-97 -30c-15.333 -4.66699 -28.166 -10.834 -38.499 -18.501s-15.5 -21.834 -15.5 -42.501v-74c0 -20.667 5.16699 -34.834 15.5 -42.501s22.833 -13.834 37.5 -18.501zM401.999 137.008
c0 -16.667 -4.16797 -28.833 -12.501 -36.5s-20.5 -9.16699 -36.5 -4.5l-179 51c-44 12.667 -77.333 30.334 -100 53.001s-34 60 -34 112v74c0 52 11.333 89.167 34 111.5s56 40.166 100 53.499l179 52c14 3.33301 25.667 1.83301 35 -4.5s14 -18.5 14 -36.5v-117
c0 -15.333 -3.66699 -27.666 -11 -36.999s-17.666 -16.333 -30.999 -21h-1l-95 -29l1 1c-3.33301 -1.33301 -6 -2.5 -8 -3.5s-3 -3.16699 -3 -6.5s0.833008 -5.5 2.5 -6.5s4.16699 -1.83301 7.5 -2.5l95 -27c14.667 -4.66699 25.5 -11.834 32.5 -21.501
s10.5 -22.167 10.5 -37.5v-117z" />
    <glyph glyph-name="logicalnot" unicode="&#xac;" horiz-adv-x="734" 
d="M504 53c-16.667 0 -28.5 3.66699 -35.5 11s-10.5 19 -10.5 35v198h-352c-16 0 -27.667 3.5 -35 10.5s-11 18.833 -11 35.5v114c0 16 3.66699 27.667 11 35s19 11 35 11h522c16 0 27.667 -3.5 35 -10.5s11 -18.833 11 -35.5v-358c0 -16 -3.5 -27.667 -10.5 -35
s-18.833 -11 -35.5 -11h-124zM628 63c12.667 0 21.833 2.83398 27.5 8.50098s8.5 14.834 8.5 27.501v358c0 12.667 -2.83301 21.834 -8.5 27.501s-14.834 8.5 -27.501 8.5h-522c-12.667 0 -21.834 -2.83301 -27.501 -8.5s-8.5 -14.834 -8.5 -27.501v-114
c0 -12.667 2.83301 -21.834 8.5 -27.501s14.834 -8.5 27.501 -8.5h362v-208c0 -12.667 2.83301 -21.834 8.5 -27.501s14.834 -8.5 27.501 -8.5h124zM563.999 395.001h-404v10h414v-252h-10v242z" />
    <glyph glyph-name="uni00AD" unicode="&#xad;" horiz-adv-x="420" 
d="M344 247h-268c-16 0 -27.667 3.5 -35 10.5s-11 18.833 -11 35.5v134c0 16 3.66699 27.667 11 35s19 11 35 11h268c16 0 27.667 -3.5 35 -10.5s11 -18.833 11 -35.5v-134c0 -16.667 -3.66699 -28.5 -11 -35.5s-19 -10.5 -35 -10.5zM76 257h268
c12.667 0 21.834 2.83301 27.501 8.5s8.5 14.834 8.5 27.501v134c0 12.667 -2.83301 21.834 -8.5 27.501s-14.834 8.5 -27.501 8.5h-268c-12.667 0 -21.834 -2.83301 -27.501 -8.5s-8.5 -14.834 -8.5 -27.501v-134c0 -12.667 2.83301 -21.834 8.5 -27.501
s14.834 -8.5 27.501 -8.5zM290 365v-10h-160v10h160z" />
    <glyph glyph-name="registered" unicode="&#xae;" horiz-adv-x="560" 
d="M514 591v-246c0 -22.667 -3.16699 -43.667 -9.5 -63s-18 -35.833 -35 -49.5s-40.833 -24.5 -71.5 -32.5s-70 -12 -118 -12s-87.167 4 -117.5 12s-54.166 18.833 -71.499 32.5s-29.166 30.167 -35.499 49.5s-9.5 40.333 -9.5 63v246c0 23.333 3.16699 44.666 9.5 63.999
s18.166 36 35.499 50s41.166 25 71.499 33s69.5 12 117.5 12s87.333 -4 118 -12s54.5 -19 71.5 -33s28.667 -30.667 35 -50s9.5 -40.666 9.5 -63.999zM504 345v246c0 22 -3.16699 42.167 -9.5 60.5s-17.833 34 -34.5 47s-39.5 23.167 -68.5 30.5s-66.167 11 -111.5 11
c-44.667 0 -81.5 -3.66699 -110.5 -11s-51.833 -17.5 -68.5 -30.5s-28.334 -28.667 -35.001 -47s-10 -38.5 -10 -60.5v-246c0 -21.333 3.33301 -41.166 10 -59.499s18.334 -33.833 35.001 -46.5s39.5 -22.667 68.5 -30s65.833 -11 110.5 -11c45.333 0 82.5 3.66699 111.5 11
s51.833 17.333 68.5 30s28.167 28.167 34.5 46.5s9.5 38.166 9.5 59.499zM479 588v-240c0 -19.333 -2.66699 -36.833 -8 -52.5s-15.333 -29 -30 -40s-35 -19.333 -61 -25s-59.333 -8.5 -100 -8.5c-40 0 -73 2.83301 -99 8.5s-46.333 14 -61 25s-24.834 24.333 -30.501 40
s-8.5 33.167 -8.5 52.5v240c0 20 2.83301 38 8.5 54s15.834 29.5 30.501 40.5s35 19.333 61 25s59 8.5 99 8.5c40.667 0 74 -2.83301 100 -8.5s46.333 -14 61 -25s24.667 -24.5 30 -40.5s8 -34 8 -54zM280 232c37.333 0 68.333 2.5 93 7.5s44 12.5 58 22.5
s23.833 22.167 29.5 36.5s8.5 30.833 8.5 49.5v240c0 19.333 -2.83301 36.333 -8.5 51s-15.5 27 -29.5 37s-33.333 17.5 -58 22.5s-55.667 7.5 -93 7.5c-74.667 0 -124.834 -10.167 -150.501 -30.5s-38.5 -49.5 -38.5 -87.5v-240c0 -37.333 12.833 -66 38.5 -86
s75.834 -30 150.501 -30zM444 343c0 -26 -10.833 -47 -32.5 -63s-65.5 -24 -131.5 -24s-109.833 8 -131.5 24s-32.5 37 -32.5 63v251c0 26 10.833 47.167 32.5 63.5s65.5 24.5 131.5 24.5s109.833 -8.16699 131.5 -24.5s32.5 -37.5 32.5 -63.5v-251zM280 266
c58 0 98.167 6.66699 120.5 20s33.5 32.333 33.5 57v251c0 24.667 -11.167 43.834 -33.5 57.501s-62.5 20.5 -120.5 20.5s-98.167 -6.83301 -120.5 -20.5s-33.5 -32.834 -33.5 -57.501v-251c0 -24.667 11.167 -43.667 33.5 -57s62.5 -20 120.5 -20zM276 579h-68.999v-114h69
c22 0 37 3.5 45 10.5s12 16.833 12 29.5v29c0 14 -4.83301 25 -14.5 33s-23.834 12 -42.501 12zM248.001 548h31c7.33301 0 12.166 -2 14.499 -6s3.5 -8.66699 3.5 -14v-13c0 -6 -1.16699 -10.833 -3.5 -14.5s-7.16602 -5.5 -14.499 -5.5h-31v53zM279.001 538h-21v-33h21
c4 0 6.33301 1 7 3s1 4.33301 1 7v13c0 2.66699 -0.333008 5 -1 7s-3 3 -7 3zM207.001 361h-10.001v228h79c22.667 0 39.5 -5.16699 50.5 -15.5s16.5 -23.5 16.5 -39.5v-29c0 -8.66699 -1.33301 -16.5 -4 -23.5s-7.66699 -12.5 -15 -16.5c16 -0.666992 28 -5 36 -13
s12 -19.333 12 -34v-57h-10v57c0 12 -3.66699 21.167 -11 27.5s-17.666 9.5 -30.999 9.5h-113v-94zM234 326c4.66699 0 8.16699 1.33105 10.5 3.99805s3.5 6.33398 3.5 11.001v83h58c5.33301 0 9.16602 -1.33301 11.499 -4s3.5 -7 3.5 -13v-66
c0 -4.66699 1.33301 -8.33398 4 -11.001s6.33398 -4 11.001 -4h64c4.66699 0 8.16699 1.33301 10.5 4s3.5 6.33398 3.5 11.001v87c0 16.667 -4.66699 30.334 -14 41.001s-21.333 17 -36 19c8.66699 3.33301 14.834 9 18.501 17s5.5 17.667 5.5 29v19
c0 20.667 -5.83301 37.167 -17.5 49.5s-32.834 18.5 -63.501 18.5h-136c-5.33301 0 -9.16602 -1.16699 -11.499 -3.5s-3.5 -6.16602 -3.5 -11.499v-265c0 -4.66699 1.16699 -8.33398 3.5 -11.001s6.16602 -4 11.499 -4h63zM234 315.998l-62.998 0.000976562
c-8.66699 0 -15 2 -19 6s-6 10.333 -6 19v265c0 8.66699 2 15 6 19s10.333 6 19 6h136c35.333 0 59.333 -7.33301 72 -22s19 -33.334 19 -56.001v-19c0 -8.66699 -1 -16.667 -3 -24s-5 -13.333 -9 -18c11.333 -5.33301 20.5 -13.5 27.5 -24.5s10.5 -24.167 10.5 -39.5v-87
c0 -8.66699 -1.83301 -15 -5.5 -19s-9.83398 -6 -18.501 -6h-64c-8.66699 0 -15 2 -19 6s-6 10.333 -6 19v66c0 2 -0.166992 3.66699 -0.5 5s-1.83301 2 -4.5 2h-48v-73c0 -8.66699 -1.83301 -15 -5.5 -19s-9.83398 -6 -18.501 -6z" />
    <glyph glyph-name="macron" unicode="&#xaf;" horiz-adv-x="500" 
d="M469 796c0 -16 -3.66699 -27.667 -11 -35s-19 -11 -35 -11h-347c-16 0 -27.667 3.66699 -35 11s-11 19 -11 35v93c0 16 3.66699 27.667 11 35s19 11 35 11h347c16 0 27.667 -3.66699 35 -11s11 -19 11 -35v-93zM423 760c12.667 0 21.834 2.83301 27.501 8.5
s8.5 14.834 8.5 27.501v93c0 12.667 -2.83301 21.834 -8.5 27.501s-14.834 8.5 -27.501 8.5h-347c-12.667 0 -21.834 -2.83301 -27.501 -8.5s-8.5 -14.834 -8.5 -27.501v-93c0 -12.667 2.83301 -21.834 8.5 -27.501s14.834 -8.5 27.501 -8.5h347zM130 847h239v-10h-239v10z
" />
    <glyph glyph-name="degree" unicode="&#xb0;" horiz-adv-x="483" 
d="M448 609v-184c0 -18 -2.66699 -34.833 -8 -50.5s-15.5 -29 -30.5 -40s-36 -19.667 -63 -26s-61.833 -9.5 -104.5 -9.5s-77.5 3.16699 -104.5 9.5s-48.167 15 -63.5 26s-25.666 24.333 -30.999 40s-8 32.5 -8 50.5v184c0 18 2.66699 34.833 8 50.5s15.666 29 30.999 40
s36.5 19.667 63.5 26s61.833 9.5 104.5 9.5s77.5 -3.16699 104.5 -9.5s48 -15 63 -26s25.167 -24.333 30.5 -40s8 -32.5 8 -50.5zM438 425v184c0 17.333 -2.83301 33.166 -8.5 47.499s-15.834 26.5 -30.501 36.5s-34.667 17.833 -60 23.5s-57.666 8.5 -96.999 8.5
s-71.833 -2.83301 -97.5 -8.5s-45.834 -13.5 -60.501 -23.5s-24.834 -22.167 -30.501 -36.5s-8.5 -30.166 -8.5 -47.499v-184c0 -17.333 2.83301 -33.166 8.5 -47.499s15.834 -26.5 30.501 -36.5s34.834 -17.833 60.501 -23.5s58.167 -8.5 97.5 -8.5
s71.666 2.83301 96.999 8.5s45.333 13.5 60 23.5s24.834 22.167 30.501 36.5s8.5 30.166 8.5 47.499zM370 581v-129c0 -28.667 -9 -49 -27 -61s-51.667 -18 -101 -18c-48.667 0 -82.167 6 -100.5 18s-27.5 32.333 -27.5 61v129c0 28.667 9.16699 49.167 27.5 61.5
s51.833 18.5 100.5 18.5c49.333 0 83 -6.16699 101 -18.5s27 -32.833 27 -61.5zM242 383c44 0 74.667 5 92 15s26 28 26 54v129c0 26 -8.66699 44.167 -26 54.5s-48 15.5 -92 15.5s-74.667 -5.16699 -92 -15.5s-26 -28.5 -26 -54.5v-129c0 -26 8.66699 -44 26 -54
s48 -15 92 -15zM192 474v85c0 7.33301 3.16699 13.833 9.5 19.5s19.833 8.5 40.5 8.5c22 0 35.833 -2.83301 41.5 -8.5s8.5 -12.167 8.5 -19.5v-85c0 -8 -3.16699 -14.5 -9.5 -19.5s-19.833 -7.5 -40.5 -7.5s-34.167 2.5 -40.5 7.5s-9.5 11.5 -9.5 19.5zM202 559v-85
c0 -6.66699 3.5 -11.167 10.5 -13.5s16.833 -3.5 29.5 -3.5s22.5 1.16699 29.5 3.5s10.5 6.83301 10.5 13.5v85c0 6 -3.16699 10.5 -9.5 13.5s-16.5 4.5 -30.5 4.5c-13.333 0 -23.333 -1.5 -30 -4.5s-10 -7.5 -10 -13.5z" />
    <glyph glyph-name="plusminus" unicode="&#xb1;" horiz-adv-x="734" 
d="M362 215v202h-202v10h202v202h10v-202h202v-10h-202v-202h-10zM269 329l0.00195312 -132h196v132h163c12.667 0 21.834 2.83301 27.501 8.5s8.5 14.834 8.5 27.501v114c0 12.667 -2.83301 21.834 -8.5 27.501s-14.834 8.5 -27.501 8.5h-163v168
c0 12.667 -2.83301 21.834 -8.5 27.501s-14.834 8.5 -27.501 8.5h-124c-12.667 0 -21.834 -2.83301 -27.501 -8.5s-8.5 -14.834 -8.5 -27.501v-168h-163c-12.667 0 -21.834 -2.83301 -27.501 -8.5s-8.5 -14.834 -8.5 -27.501v-114c0 -12.667 2.83301 -21.834 8.5 -27.501
s14.834 -8.5 27.501 -8.5h163zM160.002 89v10h414v-10h-414zM475.002 197h153c16 0 27.667 -3.5 35 -10.5s11 -18.833 11 -35.5v-114c0 -16.667 -3.66699 -28.5 -11 -35.5s-19 -10.5 -35 -10.5h-522c-16 0 -27.667 3.5 -35 10.5s-11 18.833 -11 35.5v114
c0 16 3.66699 27.667 11 35s19 11 35 11h163v-10h-163c-12.667 0 -21.834 -2.83301 -27.501 -8.5s-8.5 -14.834 -8.5 -27.501v-114c0 -12.667 2.83301 -21.834 8.5 -27.501s14.834 -8.5 27.501 -8.5h522c12.667 0 21.834 2.83301 27.501 8.5s8.5 14.834 8.5 27.501v114
c0 12.667 -2.83301 21.834 -8.5 27.501s-14.834 8.5 -27.501 8.5h-163v10h-206v122h-153c-16 0 -27.667 3.5 -35 10.5s-11 18.833 -11 35.5v114c0 16 3.66699 27.667 11 35s19 11 35 11h153v158c0 16 3.5 27.667 10.5 35s18.833 11 35.5 11h124c16 0 27.667 -3.66699 35 -11
s11 -19 11 -35v-158h153c16 0 27.667 -3.5 35 -10.5s11 -18.833 11 -35.5v-114c0 -16.667 -3.66699 -28.5 -11 -35.5s-19 -10.5 -35 -10.5h-153v-122z" />
    <glyph glyph-name="twosuperior" unicode="&#xb2;" horiz-adv-x="485" 
d="M66 192c-12.667 0 -21.834 2.83105 -27.501 8.49805s-8.5 14.834 -8.5 27.501v124c0 29.333 3 53.5 9 72.5s14.333 34.667 25 47s23.334 22 38.001 29s30.667 13.167 48 18.5l96 29c4.66699 2 8 4.16699 10 6.5s3 5.83301 3 10.5c0 4 -0.833008 6.5 -2.5 7.5
s-4.16699 1.5 -7.5 1.5h-156c-12.667 0 -21.834 2.83301 -27.501 8.5s-8.5 14.834 -8.5 27.501v84c0 12.667 2.83301 21.834 8.5 27.501s14.834 8.5 27.501 8.5h212c44 0 77.833 -11.167 101.5 -33.5s35.5 -54.166 35.5 -95.499v-68c0 -38.667 -10.5 -68.334 -31.5 -89.001
s-50.167 -36.667 -87.5 -48l-98 -30c-4 -1.33301 -7 -2.66602 -9 -3.99902s-3 -4.33301 -3 -9v-5h195c12.667 0 21.834 -2.83301 27.501 -8.5s8.5 -14.834 8.5 -27.501v-84c0 -12.667 -2.83301 -21.834 -8.5 -27.501s-14.834 -8.5 -27.501 -8.5h-342zM408 201.998
c8.66699 0 15.168 2.16699 19.501 6.5s6.5 10.833 6.5 19.5v84c0 8.66699 -2.16699 15.167 -6.5 19.5s-10.833 6.5 -19.5 6.5h-205v15c0 8 1.33301 13 4 15s7.66699 4.33301 15 7l98 31c34.667 10.667 62 25.5 82 44.5s30 46.5 30 82.5v68c0 38 -11 67.333 -33 88
s-53.333 31 -94 31h-212c-8.66699 0 -15.167 -2.16699 -19.5 -6.5s-6.5 -10.833 -6.5 -19.5v-84c0 -8.66699 2.16699 -15.167 6.5 -19.5s10.833 -6.5 19.5 -6.5h156c7.33301 0 12.5 -1.33301 15.5 -4s4.5 -7.66699 4.5 -15s-1.5 -12.833 -4.5 -16.5
s-8.16699 -6.83398 -15.5 -9.50098l-96 -30c-16.667 -4.66699 -31.834 -10.334 -45.501 -17.001s-25.5 -15.667 -35.5 -27s-17.833 -26.166 -23.5 -44.499s-8.5 -41.166 -8.5 -68.499v-124c0 -8.66699 2.16699 -15.167 6.5 -19.5s10.833 -6.5 19.5 -6.5h342z
M158.001 438.998l168 55.002c5.33301 2.66699 9.83301 6.66699 13.5 12s5.5 12.333 5.5 21v66c0 21.333 -6.16699 35.666 -18.5 42.999s-28.833 11 -49.5 11h-145v9h145c24.667 0 43.834 -4.33301 57.501 -13s20.5 -25.334 20.5 -50.001v-66
c0 -11.333 -2.33301 -20.333 -7 -27s-11.334 -11.334 -20.001 -14.001l-167 -56c-13.333 -4.66699 -22.5 -10.5 -27.5 -17.5s-7.5 -18.167 -7.5 -33.5v-104h243v-9h-252v113c0 18 3 31.333 9 40s16.667 15.334 32 20.001z" />
    <glyph glyph-name="threesuperior" unicode="&#xb3;" horiz-adv-x="484" 
d="M75 192c-12.667 0 -21.833 2.82617 -27.5 8.49316s-8.5 14.834 -8.5 27.501v84c0 12.667 2.83301 21.834 8.5 27.501s14.834 8.5 27.501 8.5h181c6 0 10.333 1 13 3s4 4.66699 4 8v20c0 3.33301 -1.33301 6 -4 8s-7 3 -13 3h-122c-12.667 0 -21.834 2.83301 -27.501 8.5
s-8.5 14.834 -8.5 27.501v77c0 12.667 2.83301 21.834 8.5 27.501s14.834 8.5 27.501 8.5h75c6 0 10.5 1 13.5 3s4.5 4.66699 4.5 8v11c0 4 -1.33301 7 -4 9s-7.33398 3 -14.001 3h-134c-12.667 0 -21.834 2.83301 -27.501 8.5s-8.5 14.834 -8.5 27.501v85
c0 12.667 2.83301 21.834 8.5 27.501s14.834 8.5 27.501 8.5h201c44 0 76.333 -10.333 97 -31s31 -48 31 -82v-42c0 -14.667 -2 -28.167 -6 -40.5s-10.333 -22.833 -19 -31.5c27.333 -6.66699 46.5 -19 57.5 -37s16.5 -42.333 16.5 -73v-72
c0 -39.333 -12.5 -70.666 -37.5 -93.999s-62.5 -35 -112.5 -35h-228zM75.001 337.993c-8.66699 0 -15.167 -2.16992 -19.5 -6.50293s-6.5 -10.833 -6.5 -19.5v-84c0 -8.66699 2.16699 -15.167 6.5 -19.5s10.833 -6.5 19.5 -6.5h228c46 0 80.833 10.667 104.5 32
s35.5 50.333 35.5 87v72c0 32 -6.66699 56.5 -20 73.5s-37 27.5 -71 31.5c16 6.66699 27 16.667 33 30s9 29 9 47v42c0 32 -9.66699 57.167 -29 75.5s-49 27.5 -89 27.5h-201c-8.66699 0 -15.167 -2.16699 -19.5 -6.5s-6.5 -10.833 -6.5 -19.5v-85
c0 -8.66699 2.16699 -15.167 6.5 -19.5s10.833 -6.5 19.5 -6.5h134c11.333 0 18.833 -2.16699 22.5 -6.5s5.5 -9.5 5.5 -15.5v-11c0 -5.33301 -1.83301 -10.166 -5.5 -14.499s-11.167 -6.5 -22.5 -6.5h-75c-8.66699 0 -15.167 -2.16699 -19.5 -6.5s-6.5 -10.833 -6.5 -19.5
v-77c0 -8.66699 2.16699 -15.167 6.5 -19.5s10.833 -6.5 19.5 -6.5h122c11.333 0 18.666 -2.16699 21.999 -6.5s5 -9.16602 5 -14.499v-20c0 -5.33301 -1.66699 -10.166 -5 -14.499s-10.666 -6.5 -21.999 -6.5h-181zM173.001 458.99v8.99805h59c36 0 58.167 6.66699 66.5 20
s12.5 28.333 12.5 45v49c0 18 -5.66699 33.333 -17 46s-34.333 19 -69 19h-111v9h111c40 0 65.833 -7.5 77.5 -22.5s17.5 -33.167 17.5 -54.5v-46c0 -13.333 -2.5 -26.666 -7.5 -39.999s-18.5 -22.333 -40.5 -27h11c30.667 0 52.5 -6.66699 65.5 -20
s19.5 -32.666 19.5 -57.999v-49c0 -22 -5.83301 -39.667 -17.5 -53s-37.5 -20 -77.5 -20h-159v9h159c35.333 0 58.5 5.83301 69.5 17.5s16.5 27.167 16.5 46.5v49c0 24 -6.16699 41.833 -18.5 53.5s-31.833 17.5 -58.5 17.5h-109z" />
    <glyph glyph-name="acute" unicode="&#xb4;" horiz-adv-x="500" 
d="M75 743c-14.667 -2 -25.834 0.833008 -33.501 8.5s-11.5 19.167 -11.5 34.5v96c0 15.333 3.5 26.333 10.5 33s18.5 11 34.5 13l349 43c14.667 2 25.834 -0.833008 33.501 -8.5s11.5 -19.167 11.5 -34.5v-96c0 -15.333 -3.5 -26.333 -10.5 -33s-18.5 -11 -34.5 -13z
M423 796c12.667 1.33301 21.834 4.5 27.501 9.5s8.5 13.833 8.5 26.5v96c0 11.333 -2.83301 20 -8.5 26s-14.167 8.33301 -25.5 7l-349 -43c-12.667 -1.33301 -21.834 -4.5 -27.501 -9.5s-8.5 -13.833 -8.5 -26.5v-96c0 -11.333 2.83301 -20 8.5 -26
s14.167 -8.33301 25.5 -7zM130 847l239 30v-10l-239 -30v10z" />
    <glyph glyph-name="mu" unicode="&#xb5;" horiz-adv-x="713" 
d="M359 78c-55.333 0 -96.832 7.33203 -124.499 21.999s-45.834 34.334 -54.501 59.001v-159h-10v480h10v-267c0 -37.333 12.5 -67.5 37.5 -90.5s72.167 -34.5 141.5 -34.5s116.833 11.5 142.5 34.5s38.5 53.167 38.5 90.5v267h10v-267c0 -40 -13.5 -72.5 -40.5 -97.5
s-77.167 -37.5 -150.5 -37.5zM288.001 -54.001l0.00292969 47c12.667 -2.66699 26.667 -4.66699 42 -6s31.333 -2 48 -2c56 0 102 5 138 15s64.5 23.833 85.5 41.5s35.5 39 43.5 64s12 52.833 12 83.5v345c0 12.667 -2.83301 21.834 -8.5 27.501s-14.834 8.5 -27.501 8.5
h-152c-12.667 0 -21.834 -2.83301 -27.501 -8.5s-8.5 -14.834 -8.5 -27.501v-316c0 -13.333 -4.5 -24.5 -13.5 -33.5s-28.833 -13.5 -59.5 -13.5s-50.334 4.5 -59.001 13.5s-13 20.167 -13 33.5v316c0 12.667 -2.83301 21.834 -8.5 27.501s-14.834 8.5 -27.501 8.5h-155
c-12.667 0 -21.834 -2.83301 -27.501 -8.5s-8.5 -14.834 -8.5 -27.501v-588c0 -12.667 2.83301 -21.834 8.5 -27.501s14.834 -8.5 27.501 -8.5h155c12.667 0 21.834 2.83301 27.501 8.5s8.5 14.834 8.5 27.501zM252.004 -100.001l-154.999 0.000976562
c-16 0 -27.667 3.66699 -35 11s-11 19 -11 35v588c0 16 3.66699 27.667 11 35s19 11 35 11h155c14 0 24.667 -2.83301 32 -8.5s11.666 -14.834 12.999 -27.501h1v-326c0 -11.333 4.33301 -20.333 13 -27s25 -10 49 -10c24.667 0 41.334 3.33301 50.001 10s13 15.667 13 27
v316c0 16 3.5 27.667 10.5 35s18.833 11 35.5 11h152c16 0 27.667 -3.66699 35 -11s11 -19 11 -35v-345c0 -31.333 -4 -60.166 -12 -86.499s-22.667 -48.833 -44 -67.5s-50.833 -33.334 -88.5 -44.001s-85.834 -16 -144.501 -16c-14.667 0 -28.667 0.5 -42 1.5
s-26 2.5 -38 4.5v-35c0 -16 -3.66699 -27.667 -11 -35s-19 -11 -35 -11z" />
    <glyph glyph-name="paragraph" unicode="&#xb6;" horiz-adv-x="682" 
d="M133 425c0 -18 1.83301 -34.502 5.5 -49.502s10.5 -28 20.5 -39s24.167 -19.5 42.5 -25.5s42.166 -9 71.499 -9h242v318h-242c-29.333 0 -53.166 -3.16699 -71.499 -9.5s-32.5 -15.166 -42.5 -26.499s-16.833 -24.666 -20.5 -39.999s-5.5 -32 -5.5 -50v-69zM277 291.998
h-4c-31.333 0 -56.833 3.33301 -76.5 10s-34.834 15.834 -45.501 27.501s-18 25.667 -22 42s-6 34.166 -6 53.499v69c0 19.333 2 37.333 6 54s11.333 31 22 43s25.834 21.5 45.501 28.5s45.167 10.5 76.5 10.5h252v-540h-10v202h-228v-202h-10v202zM365 271.998v10l10 -10
h-10zM198 271.998h-10l10 10v-10zM339 9.99805c8.66699 0 15.168 2.16699 19.501 6.5s6.5 10.833 6.5 19.5v176h71v-176c0 -8.66699 2.16699 -15.167 6.5 -19.5s10.833 -6.5 19.5 -6.5h115c8.66699 0 15.167 2.16699 19.5 6.5s6.5 10.833 6.5 19.5v648
c0 8.66699 -2.16699 15.167 -6.5 19.5s-10.833 6.5 -19.5 6.5h-306c-86 0 -145.167 -17 -177.5 -51s-48.5 -78.667 -48.5 -134v-128c0 -46.667 11.167 -86 33.5 -118s62.166 -52.667 119.499 -62v-181c0 -8.66699 2.16699 -15.167 6.5 -19.5s10.833 -6.5 19.5 -6.5h115z
M375.001 35.998c0 -12.667 -2.83008 -21.833 -8.49707 -27.5s-14.834 -8.5 -27.501 -8.5h-115c-12.667 0 -21.834 2.83301 -27.501 8.5s-8.5 14.834 -8.5 27.501v173c-58 10.667 -98 32.667 -120 66s-33 74 -33 122v128c0 58 16.667 105 50 141s95.333 54 186 54h306
c12.667 0 21.834 -2.83301 27.501 -8.5s8.5 -14.834 8.5 -27.501v-648c0 -12.667 -2.83301 -21.834 -8.5 -27.501s-14.834 -8.5 -27.501 -8.5h-115c-12.667 0 -21.834 2.83301 -27.501 8.5s-8.5 14.834 -8.5 27.501v166h-51v-166z" />
    <glyph glyph-name="periodcentered" unicode="&#xb7;" horiz-adv-x="364" 
d="M329 256c0 -16 -3.66699 -27.667 -11 -35s-19 -11 -35 -11h-202c-16 0 -27.667 3.66699 -35 11s-11 19 -11 35v203c0 16.667 3.66699 28.5 11 35.5s19 10.5 35 10.5h202c16 0 27.667 -3.5 35 -10.5s11 -18.833 11 -35.5v-203zM283 220
c12.667 0 21.834 2.83301 27.501 8.5s8.5 14.834 8.5 27.501v203c0 12.667 -2.83301 21.834 -8.5 27.501s-14.834 8.5 -27.501 8.5h-202c-12.667 0 -21.834 -2.83301 -27.501 -8.5s-8.5 -14.834 -8.5 -27.501v-203c0 -12.667 2.83301 -21.834 8.5 -27.501
s14.834 -8.5 27.501 -8.5h202zM177 310v95h10v-95h-10z" />
    <glyph glyph-name="cedilla" unicode="&#xb8;" horiz-adv-x="500" 
d="M322 -99c-4 -12.667 -10.168 -22 -18.501 -28s-20.5 -9 -36.5 -9h-126c-22.667 0 -36.334 5 -41.001 15s-4 22.667 2 38l85 230c4.66699 14.667 11.334 24.167 20.001 28.5s20.667 3.5 36 -2.5l116 -43c14.667 -4.66699 23.834 -11.5 27.501 -20.5
s3.16699 -19.5 -1.5 -31.5zM266.999 -126c12.667 0 22.668 2.33301 30.001 7s12.666 12.334 15.999 23.001l63 177c3.33301 9.33301 3.5 17.333 0.5 24s-9.83301 12 -20.5 16l-116 43c-12 4.66699 -21.333 5.16699 -28 1.5s-12 -10.834 -16 -21.501l-85 -230
c-4.66699 -12 -5 -21.667 -1 -29s14.333 -11 31 -11h126zM275 97l10 -1l-48 -132h-10z" />
    <glyph glyph-name="onesuperior" unicode="&#xb9;" horiz-adv-x="457" 
d="M74 192c-12.667 0 -21.835 2.83203 -27.502 8.49902s-8.5 14.834 -8.5 27.501v87c0 12.667 2.83301 21.834 8.5 27.501s14.834 8.5 27.501 8.5h71v220h-57c-12.667 0 -21.834 2.83301 -27.501 8.5s-8.5 14.834 -8.5 27.501v87c0 12.667 2.83301 21.834 8.5 27.501
s14.834 8.5 27.501 8.5h209c12.667 0 21.834 -2.83301 27.501 -8.5s8.5 -14.834 8.5 -27.501v-343h59c12.667 0 21.834 -2.83301 27.501 -8.5s8.5 -14.834 8.5 -27.501v-87c0 -12.667 -2.83301 -21.834 -8.5 -27.501s-14.834 -8.5 -27.501 -8.5h-318zM391.999 201.999
c8.66699 0 15.167 2.16699 19.5 6.5s6.5 10.833 6.5 19.5v87c0 8.66699 -2.16699 15.167 -6.5 19.5s-10.833 6.5 -19.5 6.5h-69v353c0 8.66699 -2.16699 15.167 -6.5 19.5s-10.833 6.5 -19.5 6.5h-209c-8.66699 0 -15.167 -2.16699 -19.5 -6.5s-6.5 -10.833 -6.5 -19.5v-87
c0 -8.66699 2.16699 -15.167 6.5 -19.5s10.833 -6.5 19.5 -6.5h67v-240h-81c-8.66699 0 -15.167 -2.16699 -19.5 -6.5s-6.5 -10.833 -6.5 -19.5v-87c0 -8.66699 2.16699 -15.167 6.5 -19.5s10.833 -6.5 19.5 -6.5h318zM352.999 261.999h-240v8h121v377h-107v9h116v-385h110
v-9z" />
    </font>
</defs>
</svg>
